Bungee_Layers-Ice.ufo
<glyph name="exclam" format="2">
  <advance width="424"/>
  <unicode hex="0021"/>
  <outline>
    <contour>
      <point x="39" y="745" type="curve" smooth="yes"/>
      <point x="31" y="707"/>
      <point x="-36" y="654"/>
      <point x="-39" y="610" type="curve" smooth="yes"/>
      <point x="-47" y="562"/>
      <point x="-29" y="526"/>
      <point x="-23" y="517" type="curve" smooth="yes"/>
      <point x="-11" y="499"/>
      <point x="-6" y="509"/>
      <point x="20" y="568" type="curve" smooth="yes"/>
      <point x="80" y="705"/>
      <point x="100" y="599"/>
      <point x="127" y="599" type="curve" smooth="yes"/>
      <point x="167" y="599"/>
      <point x="157" y="715"/>
      <point x="187" y="715" type="curve" smooth="yes"/>
      <point x="218" y="715"/>
      <point x="224" y="545"/>
      <point x="254" y="545" type="curve" smooth="yes"/>
      <point x="283" y="545"/>
      <point x="287" y="725"/>
      <point x="302" y="725" type="curve"/>
      <point x="329" y="725"/>
      <point x="349" y="722"/>
      <point x="346" y="669" type="curve" smooth="yes"/>
      <point x="345" y="652" type="line"/>
      <point x="356" y="653"/>
      <point x="363" y="659"/>
      <point x="363" y="719" type="curve" smooth="yes"/>
      <point x="363" y="813"/>
      <point x="333" y="847"/>
      <point x="297" y="846" type="curve" smooth="yes"/>
      <point x="262" y="845"/>
      <point x="231" y="827"/>
      <point x="201" y="828" type="curve" smooth="yes"/>
      <point x="150" y="830"/>
      <point x="107" y="850"/>
      <point x="84" y="833" type="curve" smooth="yes"/>
      <point x="51" y="808"/>
      <point x="46" y="770"/>
    </contour>
    <contour>
      <point x="43" y="169" type="curve" smooth="yes"/>
      <point x="43" y="141"/>
      <point x="59" y="157"/>
      <point x="108" y="181" type="curve" smooth="yes"/>
      <point x="186" y="218"/>
      <point x="193" y="155"/>
      <point x="236" y="155" type="curve" smooth="yes"/>
      <point x="261" y="155"/>
      <point x="295" y="192"/>
      <point x="303" y="208" type="curve"/>
      <point x="334" y="208"/>
      <point x="345" y="193"/>
      <point x="345" y="163" type="curve" smooth="yes"/>
      <point x="345" y="107" type="line" smooth="yes"/>
      <point x="345" y="75"/>
      <point x="362" y="146"/>
      <point x="367" y="198" type="curve" smooth="yes"/>
      <point x="368" y="249"/>
      <point x="357" y="259"/>
      <point x="327" y="259" type="curve" smooth="yes"/>
      <point x="310" y="259"/>
      <point x="269" y="249"/>
      <point x="243" y="241" type="curve" smooth="yes"/>
      <point x="204" y="233"/>
      <point x="106" y="250"/>
      <point x="63" y="227" type="curve" smooth="yes"/>
      <point x="50" y="220"/>
      <point x="43" y="198"/>
    </contour>
  </outline>
</glyph>
<glyph name="numbersign" format="2">
  <advance width="750"/>
  <unicode hex="0023"/>
  <outline>
    <contour>
      <point x="61" y="745" type="curve" smooth="yes"/>
      <point x="53" y="707"/>
      <point x="-4" y="654"/>
      <point x="-7" y="610" type="curve" smooth="yes"/>
      <point x="-15" y="562"/>
      <point x="-7" y="506"/>
      <point x="-1" y="497" type="curve" smooth="yes"/>
      <point x="11" y="479"/>
      <point x="16" y="489"/>
      <point x="42" y="548" type="curve" smooth="yes"/>
      <point x="102" y="685"/>
      <point x="122" y="599"/>
      <point x="149" y="599" type="curve" smooth="yes"/>
      <point x="168" y="599"/>
      <point x="179" y="705"/>
      <point x="209" y="705" type="curve" smooth="yes"/>
      <point x="240" y="705"/>
      <point x="256" y="675"/>
      <point x="286" y="675" type="curve" smooth="yes"/>
      <point x="315" y="675"/>
      <point x="309" y="725"/>
      <point x="324" y="725" type="curve"/>
      <point x="351" y="725"/>
      <point x="371" y="708"/>
      <point x="368" y="669" type="curve" smooth="yes"/>
      <point x="365" y="623" type="line"/>
      <point x="376" y="634"/>
      <point x="385" y="659"/>
      <point x="385" y="719" type="curve" smooth="yes"/>
      <point x="385" y="813"/>
      <point x="355" y="847"/>
      <point x="319" y="846" type="curve" smooth="yes"/>
      <point x="284" y="845"/>
      <point x="253" y="827"/>
      <point x="223" y="828" type="curve" smooth="yes"/>
      <point x="172" y="830"/>
      <point x="129" y="850"/>
      <point x="106" y="833" type="curve" smooth="yes"/>
      <point x="73" y="808"/>
      <point x="68" y="770"/>
    </contour>
    <contour>
      <point x="408" y="722" type="curve" smooth="yes"/>
      <point x="392" y="645"/>
      <point x="321" y="607"/>
      <point x="407" y="607" type="curve" smooth="yes"/>
      <point x="414" y="607"/>
      <point x="429" y="623"/>
      <point x="455" y="623" type="curve"/>
      <point x="479" y="623"/>
      <point x="489" y="689"/>
      <point x="522" y="689" type="curve" smooth="yes"/>
      <point x="533" y="689"/>
      <point x="555" y="639"/>
      <point x="565" y="588" type="curve" smooth="yes"/>
      <point x="574" y="543"/>
      <point x="571" y="496"/>
      <point x="582" y="496" type="curve" smooth="yes"/>
      <point x="612" y="496"/>
      <point x="616" y="666"/>
      <point x="619" y="725" type="curve"/>
      <point x="646" y="725"/>
      <point x="664" y="708"/>
      <point x="658" y="669" type="curve" smooth="yes"/>
      <point x="647" y="595" type="line"/>
      <point x="667" y="629"/>
      <point x="680" y="659"/>
      <point x="680" y="719" type="curve" smooth="yes"/>
      <point x="680" y="780"/>
      <point x="653" y="783"/>
      <point x="633" y="795" type="curve" smooth="yes"/>
      <point x="611" y="808"/>
      <point x="608" y="853"/>
      <point x="572" y="853" type="curve"/>
      <point x="514" y="853"/>
      <point x="469" y="834"/>
      <point x="436" y="809" type="curve" smooth="yes"/>
      <point x="404" y="784"/>
      <point x="415" y="747"/>
    </contour>
    <contour>
      <point x="313" y="238"/>
      <point x="314" y="199"/>
      <point x="351" y="199" type="curve" smooth="yes"/>
      <point x="369" y="199"/>
      <point x="391" y="298"/>
      <point x="413" y="298" type="curve" smooth="yes"/>
      <point x="442" y="298"/>
      <point x="426" y="228"/>
      <point x="456" y="228" type="curve" smooth="yes"/>
      <point x="471" y="228"/>
      <point x="480" y="253"/>
      <point x="484" y="289" type="curve" smooth="yes"/>
      <point x="490" y="337"/>
      <point x="456" y="378"/>
      <point x="400" y="371" type="curve"/>
      <point x="376" y="382"/>
      <point x="355" y="384"/>
      <point x="323" y="364" type="curve"/>
    </contour>
    <contour>
      <point x="608" y="320" type="line"/>
      <point x="637" y="320"/>
      <point x="626" y="228"/>
      <point x="656" y="228" type="curve" smooth="yes"/>
      <point x="671" y="228"/>
      <point x="680" y="253"/>
      <point x="684" y="289" type="curve" smooth="yes"/>
      <point x="690" y="337"/>
      <point x="671" y="378"/>
      <point x="615" y="371" type="curve"/>
    </contour>
    <contour>
      <point x="-71.0" y="319.0"/>
      <point x="-24.0" y="241.0"/>
      <point x="11.0" y="241.0" type="curve" smooth="yes"/>
      <point x="20.0" y="241.0"/>
      <point x="26" y="174"/>
      <point x="37" y="189" type="curve" smooth="yes"/>
      <point x="47" y="203"/>
      <point x="62.0" y="298.0"/>
      <point x="73.0" y="298.0" type="curve" smooth="yes"/>
      <point x="117.0" y="298.0"/>
      <point x="132.0" y="181.0"/>
      <point x="144.0" y="289.0" type="curve" smooth="yes"/>
      <point x="150.0" y="337.0"/>
      <point x="116.0" y="378.0"/>
      <point x="60.0" y="371.0" type="curve"/>
    </contour>
  </outline>
</glyph>
<glyph name="ampersand" format="1">
  <advance width="766"/>
  <unicode hex="0026"/>
  <outline>
    <contour>
      <point x="-27.0" y="516.0" type="curve" smooth="yes"/>
      <point x="-18.0" y="496.0"/>
      <point x="6.0" y="465.0"/>
      <point x="41.0" y="507.0" type="curve" smooth="yes"/>
      <point x="56.0" y="524.0"/>
      <point x="42" y="554"/>
      <point x="57" y="583" type="curve" smooth="yes"/>
      <point x="81" y="626"/>
      <point x="133.0" y="668.0"/>
      <point x="141.0" y="668.0" type="curve" smooth="yes"/>
      <point x="216.0" y="668.0"/>
      <point x="171.0" y="577.0"/>
      <point x="224.0" y="577.0" type="curve"/>
      <point x="268.0" y="577.0"/>
      <point x="271.0" y="711.0"/>
      <point x="298.0" y="711.0" type="curve" smooth="yes"/>
      <point x="323.0" y="711.0"/>
      <point x="341.0" y="682.0"/>
      <point x="365.0" y="682.0" type="curve" smooth="yes"/>
      <point x="384.0" y="682.0"/>
      <point x="408.0" y="718.0"/>
      <point x="413.0" y="714.0" type="curve" smooth="yes"/>
      <point x="433.0" y="705.0"/>
      <point x="452.0" y="628.0"/>
      <point x="476.0" y="625.0" type="curve" smooth="yes"/>
      <point x="505.0" y="621.0"/>
      <point x="479.0" y="695.0"/>
      <point x="501.0" y="725.0" type="curve"/>
      <point x="534.0" y="725.0"/>
      <point x="548.0" y="711.0"/>
      <point x="548.0" y="680.0" type="curve" smooth="yes"/>
      <point x="548.0" y="625.0" type="line" smooth="yes"/>
      <point x="548.0" y="592.0"/>
      <point x="588.0" y="673.0"/>
      <point x="588.0" y="725.0" type="curve" smooth="yes"/>
      <point x="588.0" y="781.0"/>
      <point x="589.0" y="795.0"/>
      <point x="575.0" y="817.0" type="curve" smooth="yes"/>
      <point x="547.0" y="861.0"/>
      <point x="489.0" y="860.0"/>
      <point x="455.0" y="851.0" type="curve" smooth="yes"/>
      <point x="384.0" y="835.0"/>
      <point x="300.0" y="857.0"/>
      <point x="215.0" y="857.0" type="curve" smooth="yes"/>
      <point x="141.0" y="857.0"/>
      <point x="103.0" y="835.0"/>
      <point x="58.0" y="797.0" type="curve" smooth="yes"/>
      <point x="35.0" y="778.0"/>
      <point x="28.0" y="747.0"/>
      <point x="11.0" y="709.0" type="curve" smooth="yes"/>
      <point x="0.0" y="684.0"/>
      <point x="-23.0" y="663.0"/>
      <point x="-29.0" y="636.0" type="curve" smooth="yes"/>
      <point x="-39.0" y="589.0"/>
      <point x="-40.0" y="544.0"/>
    </contour>
    <contour>
      <point x="303.0" y="136.0" type="curve" smooth="yes"/>
      <point x="313.0" y="136.0"/>
      <point x="313.0" y="155.0"/>
      <point x="321.0" y="169.0" type="curve" smooth="yes"/>
      <point x="328.0" y="180.0"/>
      <point x="342.0" y="186.0"/>
      <point x="352.0" y="186.0" type="curve" smooth="yes"/>
      <point x="406.0" y="186.0"/>
      <point x="349.0" y="67.0"/>
      <point x="405.0" y="67.0" type="curve" smooth="yes"/>
      <point x="415.0" y="67.0"/>
      <point x="412" y="96"/>
      <point x="417" y="115" type="curve" smooth="yes"/>
      <point x="425" y="145"/>
      <point x="439.0" y="170.0"/>
      <point x="443.0" y="169.0" type="curve" smooth="yes"/>
      <point x="459.0" y="163.0"/>
      <point x="495.0" y="145.0"/>
      <point x="495.0" y="164.0" type="curve" smooth="yes"/>
      <point x="495.0" y="175.0"/>
      <point x="488.0" y="198.0"/>
      <point x="473.0" y="210.0" type="curve" smooth="yes"/>
      <point x="461.0" y="220.0"/>
      <point x="451.0" y="240.0"/>
      <point x="441.0" y="246.0" type="curve" smooth="yes"/>
      <point x="418.0" y="258.0"/>
      <point x="377.0" y="253.0"/>
      <point x="359.0" y="253.0" type="curve" smooth="yes"/>
      <point x="316.0" y="253.0"/>
      <point x="267.0" y="254.0"/>
      <point x="249.0" y="202.0" type="curve" smooth="yes"/>
      <point x="235.0" y="161.0"/>
      <point x="239.0" y="100.0"/>
      <point x="247.0" y="97.0" type="curve"/>
      <point x="260.0" y="90.0"/>
      <point x="273.0" y="171.0"/>
      <point x="280.0" y="171.0" type="curve" smooth="yes"/>
      <point x="299.0" y="171.0"/>
      <point x="288.0" y="136.0"/>
    </contour>
    <contour>
      <point x="500" y="384" type="curve" smooth="yes"/>
      <point x="500" y="410"/>
      <point x="531" y="405"/>
      <point x="548" y="405" type="curve" smooth="yes"/>
      <point x="567" y="405"/>
      <point x="550" y="369"/>
      <point x="580" y="369" type="curve" smooth="yes"/>
      <point x="611" y="369"/>
      <point x="635" y="256"/>
      <point x="665" y="256" type="curve" smooth="yes"/>
      <point x="694" y="256"/>
      <point x="688" y="406"/>
      <point x="703" y="406" type="curve"/>
      <point x="730" y="406"/>
      <point x="747" y="389"/>
      <point x="747" y="350" type="curve"/>
      <point x="747" y="333" type="line"/>
      <point x="758" y="334"/>
      <point x="764" y="340"/>
      <point x="764" y="400" type="curve" smooth="yes"/>
      <point x="764" y="451"/>
      <point x="734" y="488"/>
      <point x="698" y="487" type="curve" smooth="yes"/>
      <point x="600" y="483"/>
      <point x="549" y="501"/>
      <point x="520" y="467" type="curve" smooth="yes"/>
      <point x="467" y="406"/>
      <point x="439" y="383"/>
      <point x="448" y="351" type="curve" smooth="yes"/>
      <point x="451" y="340"/>
      <point x="463" y="318"/>
      <point x="473" y="334" type="curve" smooth="yes"/>
      <point x="486" y="355"/>
      <point x="500" y="362"/>
    </contour>
    <contour>
      <point x="338.0" y="460.0" type="curve"/>
      <point x="348.0" y="394.0"/>
      <point x="341.0" y="370.0"/>
      <point x="369.0" y="370.0" type="curve" smooth="yes"/>
      <point x="383.0" y="370.0"/>
      <point x="375.0" y="424.0"/>
      <point x="396.0" y="424.0" type="curve" smooth="yes"/>
      <point x="403.0" y="424.0"/>
      <point x="393" y="329"/>
      <point x="412" y="329" type="curve" smooth="yes"/>
      <point x="429" y="329"/>
      <point x="429.0" y="414.0"/>
      <point x="429.0" y="423.0" type="curve" smooth="yes"/>
      <point x="429.0" y="438.0"/>
      <point x="423.0" y="449.0"/>
      <point x="413.0" y="456.0" type="curve" smooth="yes"/>
      <point x="408.0" y="460.0"/>
      <point x="401" y="456"/>
      <point x="395" y="458" type="curve" smooth="yes"/>
      <point x="386.813112804" y="461.274754878"/>
      <point x="348.275716324" y="472.844645406"/>
    </contour>
  </outline>
</glyph>
<glyph name="parenleft" format="2">
  <advance width="429"/>
  <unicode hex="0028"/>
  <outline>
    <contour>
      <point x="-63.0" y="783.0" type="curve" smooth="yes"/>
      <point x="-71.0" y="745.0"/>
      <point x="-66.0" y="687.0"/>
      <point x="-69.0" y="643.0" type="curve" smooth="yes"/>
      <point x="-77.0" y="595.0"/>
      <point x="-93.0" y="556.0"/>
      <point x="-87.0" y="547.0" type="curve" smooth="yes"/>
      <point x="-75.0" y="529.0"/>
      <point x="-64.0" y="537.0"/>
      <point x="-44.0" y="598.0" type="curve"/>
      <point x="-29.0" y="629.0"/>
      <point x="13.0" y="568.0"/>
      <point x="22.0" y="568.0" type="curve" smooth="yes"/>
      <point x="52.0" y="568.0"/>
      <point x="41.0" y="630.0"/>
      <point x="49.0" y="649.0" type="curve" smooth="yes"/>
      <point x="77.0" y="718.0"/>
      <point x="189.0" y="710.0"/>
      <point x="209.0" y="710.0" type="curve" smooth="yes"/>
      <point x="245.0" y="710.0"/>
      <point x="231.0" y="580.0"/>
      <point x="277.0" y="580.0" type="curve" smooth="yes"/>
      <point x="312.0" y="580.0"/>
      <point x="319.0" y="679.0"/>
      <point x="319.0" y="739.0" type="curve" smooth="yes"/>
      <point x="319.0" y="765.0"/>
      <point x="383" y="716"/>
      <point x="389" y="742" type="curve" smooth="yes"/>
      <point x="397" y="775"/>
      <point x="404" y="794"/>
      <point x="396" y="830" type="curve" smooth="yes"/>
      <point x="393" y="844"/>
      <point x="383" y="865"/>
      <point x="389" y="893" type="curve" smooth="yes"/>
      <point x="399" y="940"/>
      <point x="283.0" y="927.0"/>
      <point x="236.0" y="927.0" type="curve" smooth="yes"/>
      <point x="196.0" y="927.0"/>
      <point x="152.0" y="885.0"/>
      <point x="101.0" y="859.0" type="curve" smooth="yes"/>
      <point x="45.0" y="828.0"/>
      <point x="-57.0" y="803.0"/>
    </contour>
  </outline>
</glyph>
<glyph name="parenright" format="1">
  <advance width="429"/>
  <unicode hex="0029"/>
  <outline>
    <contour>
      <point x="-109" y="805"/>
      <point x="-87.0" y="699.0"/>
      <point x="-96.0" y="643.0" type="curve" smooth="yes"/>
      <point x="-103.0" y="597.0"/>
      <point x="-76.0" y="619.0"/>
      <point x="-56.0" y="612.0" type="curve" smooth="yes"/>
      <point x="-43.0" y="608.0"/>
      <point x="-37.0" y="568.0"/>
      <point x="-33.0" y="568.0" type="curve" smooth="yes"/>
      <point x="-3.0" y="568.0"/>
      <point x="16.0" y="630.0"/>
      <point x="24.0" y="649.0" type="curve" smooth="yes"/>
      <point x="35.0" y="677.0"/>
      <point x="41.0" y="754.0"/>
      <point x="68.0" y="777.0" type="curve" smooth="yes"/>
      <point x="83.0" y="791.0"/>
      <point x="94" y="747"/>
      <point x="112" y="748" type="curve" smooth="yes"/>
      <point x="125" y="749"/>
      <point x="131" y="768"/>
      <point x="141" y="777" type="curve" smooth="yes"/>
      <point x="155" y="787"/>
      <point x="180.0" y="790.0"/>
      <point x="184.0" y="790.0" type="curve" smooth="yes"/>
      <point x="220.0" y="790.0"/>
      <point x="229.0" y="580.0"/>
      <point x="252.0" y="580.0" type="curve" smooth="yes"/>
      <point x="275.0" y="580.0"/>
      <point x="283.0" y="718.0"/>
      <point x="283.0" y="778.0" type="curve"/>
      <point x="316.0" y="772.0"/>
      <point x="358.0" y="728.0"/>
      <point x="374.0" y="682.0" type="curve"/>
      <point x="382.0" y="715.0"/>
      <point x="379" y="744"/>
      <point x="371" y="780" type="curve" smooth="yes"/>
      <point x="368" y="794"/>
      <point x="358" y="815"/>
      <point x="364" y="843" type="curve" smooth="yes"/>
      <point x="374" y="890"/>
      <point x="258.0" y="917.0"/>
      <point x="211.0" y="917.0" type="curve" smooth="yes"/>
      <point x="171.0" y="917.0"/>
      <point x="127" y="925"/>
      <point x="76" y="899" type="curve" smooth="yes"/>
      <point x="49" y="884"/>
      <point x="7" y="875"/>
      <point x="-21" y="858" type="curve" smooth="yes"/>
    </contour>
  </outline>
</glyph>
<glyph name="comma" format="2">
  <advance width="384"/>
  <unicode hex="002C"/>
  <outline>
    <contour>
      <point x="-74.0" y="163.0" type="curve" smooth="yes"/>
      <point x="-74.0" y="141.0"/>
      <point x="-7.0" y="188.0"/>
      <point x="48.0" y="224.0" type="curve" smooth="yes"/>
      <point x="67.0" y="236.0"/>
      <point x="83" y="253"/>
      <point x="97.0" y="253.0" type="curve" smooth="yes"/>
      <point x="127" y="253"/>
      <point x="113.0" y="131.0"/>
      <point x="140.0" y="131.0" type="curve" smooth="yes"/>
      <point x="167.0" y="131.0"/>
      <point x="171" y="245"/>
      <point x="187.0" y="245.0" type="curve" smooth="yes"/>
      <point x="227.235294118" y="245.0"/>
      <point x="249.72" y="239.0"/>
      <point x="271.0" y="239.0" type="curve" smooth="yes"/>
      <point x="283.0" y="239.0"/>
      <point x="287.0" y="270.0"/>
      <point x="292.0" y="280.0" type="curve"/>
      <point x="323.0" y="280.0"/>
      <point x="334.0" y="265.0"/>
      <point x="334.0" y="235.0" type="curve" smooth="yes"/>
      <point x="334.0" y="179.0" type="line" smooth="yes"/>
      <point x="334.0" y="147.0"/>
      <point x="361.0" y="278.0"/>
      <point x="366.0" y="330.0" type="curve" smooth="yes"/>
      <point x="367.0" y="381.0"/>
      <point x="346.0" y="381.0"/>
      <point x="316.0" y="381.0" type="curve" smooth="yes"/>
      <point x="299.0" y="381.0"/>
      <point x="248" y="361"/>
      <point x="222" y="353" type="curve" smooth="yes"/>
      <point x="183" y="345"/>
      <point x="95.0" y="392.0"/>
      <point x="52.0" y="369.0" type="curve" smooth="yes"/>
      <point x="47.0" y="366.0"/>
      <point x="-51.0" y="308.0"/>
      <point x="-48.0" y="261.0" type="curve" smooth="yes"/>
      <point x="-46.0" y="233.0"/>
      <point x="-74.0" y="181.0"/>
    </contour>
  </outline>
</glyph>
<glyph name="period" format="1">
  <advance width="384"/>
  <unicode hex="002E"/>
  <outline>
    <contour>
      <point x="-74.0" y="163.0" type="curve" smooth="yes"/>
      <point x="-74.0" y="139.0"/>
      <point x="10.0" y="200.0"/>
      <point x="66.0" y="235.0" type="curve" smooth="yes"/>
      <point x="78.0" y="243.0"/>
      <point x="93.0" y="186.0"/>
      <point x="101.0" y="190.0" type="curve" smooth="yes"/>
      <point x="117.0" y="198.0"/>
      <point x="126.0" y="264.0"/>
      <point x="137.0" y="265.0" type="curve" smooth="yes"/>
      <point x="160.0" y="266.0"/>
      <point x="174.0" y="254.0"/>
      <point x="188.0" y="244.0" type="curve" smooth="yes"/>
      <point x="199.0" y="235.0"/>
      <point x="210.0" y="227.0"/>
      <point x="225.0" y="227.0" type="curve" smooth="yes"/>
      <point x="250.0" y="227.0"/>
      <point x="284.0" y="264.0"/>
      <point x="292.0" y="280.0" type="curve"/>
      <point x="323.0" y="280.0"/>
      <point x="334.0" y="265.0"/>
      <point x="334.0" y="235.0" type="curve" smooth="yes"/>
      <point x="334.0" y="179.0" type="line"/>
      <point x="362.0" y="177.0"/>
      <point x="351.0" y="278.0"/>
      <point x="356.0" y="330.0" type="curve" smooth="yes"/>
      <point x="357.0" y="381.0"/>
      <point x="336.0" y="391.0"/>
      <point x="306.0" y="391.0" type="curve" smooth="yes"/>
      <point x="289.0" y="391.0"/>
      <point x="248.0" y="381.0"/>
      <point x="222.0" y="373.0" type="curve" smooth="yes"/>
      <point x="201.0" y="369.0"/>
      <point x="158" y="385"/>
      <point x="116" y="388" type="curve" smooth="yes"/>
      <point x="79" y="390"/>
      <point x="42" y="349"/>
      <point x="22" y="338" type="curve" smooth="yes"/>
      <point x="17" y="335"/>
      <point x="-51.0" y="308.0"/>
      <point x="-58.0" y="261.0" type="curve" smooth="yes"/>
      <point x="-62.0" y="233.0"/>
      <point x="-74.0" y="181.0"/>
    </contour>
  </outline>
</glyph>
<glyph name="slash" format="1">
  <advance width="347"/>
  <unicode hex="002F"/>
  <outline>
    <contour>
      <point x="38.0" y="815.0" type="curve" smooth="yes"/>
      <point x="30.0" y="777.0"/>
      <point x="-16.0" y="744.0"/>
      <point x="-19.0" y="700.0" type="curve" smooth="yes"/>
      <point x="-27.0" y="652.0"/>
      <point x="-19.0" y="596.0"/>
      <point x="-13.0" y="587.0" type="curve" smooth="yes"/>
      <point x="-1.0" y="569.0"/>
      <point x="4.0" y="579.0"/>
      <point x="30.0" y="638.0" type="curve" smooth="yes"/>
      <point x="90.0" y="775.0"/>
      <point x="97.0" y="655.0"/>
      <point x="124.0" y="655.0" type="curve" smooth="yes"/>
      <point x="132.0" y="655.0"/>
      <point x="136.0" y="707.0"/>
      <point x="142.0" y="732.0" type="curve" smooth="yes"/>
      <point x="149.0" y="764.0"/>
      <point x="163" y="764"/>
      <point x="180" y="764" type="curve" smooth="yes"/>
      <point x="211" y="764"/>
      <point x="216.0" y="794.0"/>
      <point x="246.0" y="794.0" type="curve" smooth="yes"/>
      <point x="257.0" y="794.0"/>
      <point x="265" y="710"/>
      <point x="273" y="710" type="curve" smooth="yes"/>
      <point x="298" y="710"/>
      <point x="292.0" y="815.0"/>
      <point x="301.0" y="815.0" type="curve"/>
      <point x="328.0" y="815.0"/>
      <point x="351.0" y="798.0"/>
      <point x="345.0" y="759.0" type="curve" smooth="yes"/>
      <point x="338.0" y="712.0" type="line"/>
      <point x="349.0" y="723.0"/>
      <point x="362.0" y="749.0"/>
      <point x="362.0" y="809.0" type="curve" smooth="yes"/>
      <point x="362.0" y="903.0"/>
      <point x="332.0" y="937.0"/>
      <point x="296.0" y="936.0" type="curve" smooth="yes"/>
      <point x="261.0" y="935.0"/>
      <point x="230.0" y="917.0"/>
      <point x="200.0" y="918.0" type="curve" smooth="yes"/>
      <point x="149.0" y="920.0"/>
      <point x="106.0" y="920.0"/>
      <point x="83.0" y="903.0" type="curve" smooth="yes"/>
      <point x="50.0" y="878.0"/>
      <point x="45.0" y="840.0"/>
    </contour>
  </outline>
</glyph>
<glyph name="zero" format="1">
  <advance width="727"/>
  <unicode hex="0030"/>
  <outline>
    <contour>
      <point x="-50.0" y="603.0" type="curve" smooth="yes"/>
      <point x="-58.0" y="555.0"/>
      <point x="-74.0" y="516.0"/>
      <point x="-68.0" y="507.0" type="curve" smooth="yes"/>
      <point x="-56.0" y="489.0"/>
      <point x="-45.0" y="497.0"/>
      <point x="-25.0" y="558.0" type="curve"/>
      <point x="27.0" y="611.0"/>
      <point x="53" y="602"/>
      <point x="79.0" y="609.0" type="curve" smooth="yes"/>
      <point x="111" y="617"/>
      <point x="109" y="570"/>
      <point x="135" y="570" type="curve" smooth="yes"/>
      <point x="161" y="570"/>
      <point x="155.0" y="622.0"/>
      <point x="194.0" y="622.0" type="curve" smooth="yes"/>
      <point x="225.0" y="622.0"/>
      <point x="200" y="690"/>
      <point x="223" y="690" type="curve" smooth="yes"/>
      <point x="252" y="690"/>
      <point x="252" y="559"/>
      <point x="264" y="559" type="curve" smooth="yes"/>
      <point x="276" y="559"/>
      <point x="293" y="630"/>
      <point x="293" y="690" type="curve" smooth="yes"/>
      <point x="293" y="712"/>
      <point x="381.0" y="724.0"/>
      <point x="391.0" y="724.0" type="curve" smooth="yes"/>
      <point x="407.0" y="724.0"/>
      <point x="419" y="656"/>
      <point x="442" y="656" type="curve" smooth="yes"/>
      <point x="457" y="655"/>
      <point x="481.0" y="709.0"/>
      <point x="496.0" y="729.0" type="curve"/>
      <point x="600.0" y="712.0"/>
      <point x="665.0" y="658.0"/>
      <point x="672.0" y="565.0" type="curve" smooth="yes"/>
      <point x="674.0" y="532.0"/>
      <point x="695" y="615"/>
      <point x="695" y="667" type="curve" smooth="yes"/>
      <point x="695" y="701"/>
      <point x="716" y="763"/>
      <point x="711" y="785" type="curve" smooth="yes"/>
      <point x="692" y="874"/>
      <point x="629.0" y="840.0"/>
      <point x="589.0" y="838.0" type="curve" smooth="yes"/>
      <point x="560.0" y="836.0"/>
      <point x="558.0" y="833.0"/>
      <point x="510.0" y="858.0" type="curve" smooth="yes"/>
      <point x="467.0" y="881.0"/>
      <point x="394.0" y="884.0"/>
      <point x="340.0" y="883.0" type="curve" smooth="yes"/>
      <point x="302.0" y="881.0"/>
      <point x="278.0" y="839.0"/>
      <point x="256.0" y="839.0" type="curve" smooth="yes"/>
      <point x="216.0" y="839.0"/>
      <point x="172.0" y="866.0"/>
      <point x="121.0" y="840.0" type="curve" smooth="yes"/>
      <point x="91.0" y="823.0"/>
      <point x="43.0" y="846.0"/>
      <point x="23.0" y="831.0" type="curve" smooth="yes"/>
      <point x="-64.0" y="767.0"/>
      <point x="-46.0" y="658.0"/>
    </contour>
    <contour>
      <point x="341" y="183" type="curve" smooth="yes"/>
      <point x="365" y="183"/>
      <point x="357" y="125"/>
      <point x="385" y="125" type="curve" smooth="yes"/>
      <point x="413" y="125"/>
      <point x="430" y="172"/>
      <point x="438" y="239" type="curve"/>
      <point x="438" y="293"/>
      <point x="390.0" y="312.0"/>
      <point x="346" y="312" type="curve" smooth="yes"/>
      <point x="310" y="312"/>
      <point x="280" y="296"/>
      <point x="280" y="247" type="curve" smooth="yes"/>
      <point x="280" y="196"/>
      <point x="310" y="183"/>
    </contour>
    <contour>
      <point x="363.0" y="747.0" type="move" name="top"/>
    </contour>
    <contour>
      <point x="363.0" y="0.0" type="move" name="bottom"/>
    </contour>
  </outline>
</glyph>
<glyph name="two" format="2">
  <advance width="639"/>
  <unicode hex="0032"/>
  <outline>
    <contour>
      <point x="-28.0" y="796.0"/>
      <point x="-53.0" y="661.0"/>
      <point x="-58.0" y="593.0" type="curve"/>
      <point x="-65.0" y="549.0"/>
      <point x="-44.0" y="526.0"/>
      <point x="-29.0" y="548.0" type="curve" smooth="yes"/>
      <point x="-1.0" y="590.0"/>
      <point x="25.0" y="581.0"/>
      <point x="36.0" y="552.0" type="curve" smooth="yes"/>
      <point x="45.0" y="529.0"/>
      <point x="38.0" y="489.0"/>
      <point x="59.0" y="489.0" type="curve" smooth="yes"/>
      <point x="94.0" y="489.0"/>
      <point x="78.0" y="694.0"/>
      <point x="137.0" y="694.0" type="curve" smooth="yes"/>
      <point x="252.0" y="694.0"/>
      <point x="218.0" y="607.0"/>
      <point x="271.0" y="607.0" type="curve"/>
      <point x="315.0" y="607.0"/>
      <point x="318.0" y="689.0"/>
      <point x="345.0" y="689.0" type="curve" smooth="yes"/>
      <point x="370.0" y="689.0"/>
      <point x="388.0" y="592.0"/>
      <point x="412.0" y="592.0" type="curve" smooth="yes"/>
      <point x="431.0" y="592.0"/>
      <point x="416.0" y="714.0"/>
      <point x="460.0" y="714.0" type="curve" smooth="yes"/>
      <point x="497.0" y="714.0"/>
      <point x="590.0" y="688.0"/>
      <point x="590.0" y="545.0" type="curve" smooth="yes"/>
      <point x="590.0" y="512.0"/>
      <point x="610.0" y="593.0"/>
      <point x="610.0" y="645.0" type="curve" smooth="yes"/>
      <point x="610.0" y="700.0"/>
      <point x="614" y="742"/>
      <point x="604" y="773" type="curve" smooth="yes"/>
      <point x="583" y="838"/>
      <point x="536.0" y="855.0"/>
      <point x="502.0" y="846.0" type="curve" smooth="yes"/>
      <point x="448.0" y="834.0"/>
      <point x="426.0" y="818.0"/>
      <point x="405.0" y="822.0" type="curve" smooth="yes"/>
      <point x="364.0" y="829.0"/>
      <point x="306.0" y="833.0"/>
      <point x="263.0" y="822.0" type="curve" smooth="yes"/>
      <point x="223.0" y="812.0"/>
      <point x="174.0" y="842.0"/>
      <point x="117.0" y="829.0" type="curve" smooth="yes"/>
    </contour>
    <contour>
      <point x="264" y="163" type="curve" smooth="yes"/>
      <point x="264" y="141"/>
      <point x="270" y="118"/>
      <point x="281" y="118" type="curve" smooth="yes"/>
      <point x="300" y="118"/>
      <point x="289" y="164"/>
      <point x="314" y="176" type="curve" smooth="yes"/>
      <point x="331" y="186"/>
      <point x="373" y="194"/>
      <point x="406" y="194" type="curve" smooth="yes"/>
      <point x="433" y="194"/>
      <point x="437" y="140"/>
      <point x="455" y="140" type="curve" smooth="yes"/>
      <point x="472" y="140"/>
      <point x="476" y="166"/>
      <point x="489" y="166" type="curve" smooth="yes"/>
      <point x="506" y="166"/>
      <point x="511" y="194"/>
      <point x="553" y="194" type="curve" smooth="yes"/>
      <point x="583" y="194"/>
      <point x="593" y="188"/>
      <point x="593" y="154" type="curve" smooth="yes"/>
      <point x="593" y="102" type="line"/>
      <point x="615" y="112"/>
      <point x="634" y="150"/>
      <point x="634" y="202" type="curve" smooth="yes"/>
      <point x="634" y="244"/>
      <point x="603" y="258"/>
      <point x="562" y="258" type="curve" smooth="yes"/>
      <point x="530" y="258"/>
      <point x="489" y="246"/>
      <point x="446" y="249" type="curve" smooth="yes"/>
      <point x="425" y="250"/>
      <point x="378" y="215"/>
      <point x="344" y="215" type="curve" smooth="yes"/>
      <point x="319" y="215"/>
      <point x="271" y="234"/>
      <point x="271" y="213" type="curve" smooth="yes"/>
      <point x="271" y="190"/>
      <point x="264" y="178"/>
    </contour>
  </outline>
</glyph>
<glyph name="three" format="1">
  <advance width="637"/>
  <unicode hex="0033"/>
  <outline>
    <contour>
      <point x="-88" y="603" type="curve"/>
      <point x="-95" y="559"/>
      <point x="-66" y="521"/>
      <point x="-51" y="543" type="curve"/>
      <point x="-29" y="486"/>
      <point x="-46" y="592"/>
      <point x="16" y="592" type="curve" smooth="yes"/>
      <point x="40" y="592"/>
      <point x="18" y="529"/>
      <point x="39" y="529" type="curve" smooth="yes"/>
      <point x="74" y="529"/>
      <point x="58" y="694"/>
      <point x="117" y="694" type="curve" smooth="yes"/>
      <point x="248" y="694"/>
      <point x="174" y="592"/>
      <point x="219" y="592" type="curve"/>
      <point x="274" y="592"/>
      <point x="259" y="714"/>
      <point x="303" y="714" type="curve" smooth="yes"/>
      <point x="328" y="714"/>
      <point x="329" y="626"/>
      <point x="376" y="675" type="curve" smooth="yes"/>
      <point x="384" y="684"/>
      <point x="396" y="729"/>
      <point x="423" y="720" type="curve" smooth="yes"/>
      <point x="475" y="705"/>
      <point x="541" y="675"/>
      <point x="533" y="545" type="curve" smooth="yes"/>
      <point x="531" y="512"/>
      <point x="563" y="593"/>
      <point x="563" y="645" type="curve" smooth="yes"/>
      <point x="563" y="716"/>
      <point x="551" y="766"/>
      <point x="532" y="795" type="curve" smooth="yes"/>
      <point x="504" y="836"/>
      <point x="474" y="858"/>
      <point x="445" y="850" type="curve" smooth="yes"/>
      <point x="402" y="840"/>
      <point x="356" y="826"/>
      <point x="294" y="837" type="curve" smooth="yes"/>
      <point x="272" y="841"/>
      <point x="243" y="837"/>
      <point x="224" y="850" type="curve" smooth="yes"/>
      <point x="208" y="860"/>
      <point x="158" y="858"/>
      <point x="143" y="858" type="curve" smooth="yes"/>
      <point x="103" y="858"/>
      <point x="64" y="812"/>
      <point x="7" y="799" type="curve" smooth="yes"/>
      <point x="-70" y="781"/>
      <point x="-73" y="739"/>
      <point x="-76" y="689" type="curve" smooth="yes"/>
      <point x="-79" y="646"/>
      <point x="-86" y="635"/>
    </contour>
    <contour>
      <point x="373.0" y="163.0" type="curve" smooth="yes"/>
      <point x="373.0" y="178.0"/>
      <point x="366.0" y="190.0"/>
      <point x="366.0" y="213.0" type="curve" smooth="yes"/>
      <point x="366.0" y="234.0"/>
      <point x="318.0" y="215.0"/>
      <point x="293.0" y="215.0" type="curve" smooth="yes"/>
      <point x="259.0" y="215.0"/>
      <point x="152" y="250"/>
      <point x="131" y="249" type="curve" smooth="yes"/>
      <point x="88" y="246"/>
      <point x="47.0" y="208.0"/>
      <point x="15.0" y="208.0" type="curve" smooth="yes"/>
      <point x="-26.0" y="208.0"/>
      <point x="-67.0" y="187.0"/>
      <point x="-80.0" y="152.0" type="curve" smooth="yes"/>
      <point x="-83.0" y="143.0"/>
      <point x="-79.0" y="122.0"/>
      <point x="-81.0" y="113.0" type="curve" smooth="yes"/>
      <point x="-92.0" y="76.0"/>
      <point x="-100.0" y="59.0"/>
      <point x="-89.0" y="57.0" type="curve" smooth="yes"/>
      <point x="-78.0" y="54.0"/>
      <point x="-47.0" y="83.0"/>
      <point x="-13.0" y="97.0" type="curve" smooth="yes"/>
      <point x="-1.0" y="102.0"/>
      <point x="19" y="66"/>
      <point x="30" y="69" type="curve" smooth="yes"/>
      <point x="59" y="75"/>
      <point x="39" y="166"/>
      <point x="88" y="166" type="curve" smooth="yes"/>
      <point x="101" y="166"/>
      <point x="105" y="140"/>
      <point x="122" y="140" type="curve" smooth="yes"/>
      <point x="140" y="140"/>
      <point x="136.0" y="184.0"/>
      <point x="231.0" y="184.0" type="curve" smooth="yes"/>
      <point x="264.0" y="184.0"/>
      <point x="306.0" y="186.0"/>
      <point x="323.0" y="176.0" type="curve" smooth="yes"/>
      <point x="348.0" y="164.0"/>
      <point x="337.0" y="118.0"/>
      <point x="356.0" y="118.0" type="curve" smooth="yes"/>
      <point x="367.0" y="118.0"/>
      <point x="373.0" y="141.0"/>
    </contour>
    <contour>
      <point x="304.0" y="482.0" type="curve" smooth="yes"/>
      <point x="304.0" y="494.0"/>
      <point x="242.0" y="481.0"/>
      <point x="221.0" y="480.0" type="curve" smooth="yes"/>
      <point x="178.0" y="477.0"/>
      <point x="137.0" y="489.0"/>
      <point x="105.0" y="489.0" type="curve" smooth="yes"/>
      <point x="64.0" y="489.0"/>
      <point x="46.0" y="468.0"/>
      <point x="33.0" y="433.0" type="curve" smooth="yes"/>
      <point x="15.0" y="384.0"/>
      <point x="-13" y="357"/>
      <point x="-5" y="332" type="curve"/>
      <point x="2" y="339"/>
      <point x="94.0" y="393.0"/>
      <point x="109.0" y="395.0" type="curve" smooth="yes"/>
      <point x="119.0" y="397.0"/>
      <point x="143.0" y="442.0"/>
      <point x="154.0" y="442.0" type="curve" smooth="yes"/>
      <point x="168.0" y="442.0"/>
      <point x="174" y="453"/>
      <point x="184" y="453" type="curve" smooth="yes"/>
      <point x="197" y="453"/>
      <point x="217" y="341"/>
      <point x="234" y="341" type="curve" smooth="yes"/>
      <point x="264" y="341"/>
      <point x="226" y="404"/>
      <point x="248" y="425" type="curve" smooth="yes"/>
      <point x="266" y="442"/>
      <point x="304.0" y="440.0"/>
    </contour>
  </outline>
</glyph>
<glyph name="five" format="1">
  <advance width="647"/>
  <unicode hex="0035"/>
  <outline>
    <contour>
      <point x="-70.0" y="722.0" type="curve" smooth="yes"/>
      <point x="-70.0" y="703.0"/>
      <point x="-78" y="668"/>
      <point x="-72" y="645" type="curve" smooth="yes"/>
      <point x="-63" y="619"/>
      <point x="-78" y="605"/>
      <point x="-72" y="592" type="curve" smooth="yes"/>
      <point x="-61" y="572"/>
      <point x="22.0" y="655.0"/>
      <point x="42.0" y="655.0" type="curve" smooth="yes"/>
      <point x="63.0" y="655.0"/>
      <point x="87.0" y="690.0"/>
      <point x="96.0" y="690.0" type="curve" smooth="yes"/>
      <point x="109.0" y="690.0"/>
      <point x="125" y="638"/>
      <point x="126" y="617" type="curve" smooth="yes"/>
      <point x="127" y="600"/>
      <point x="141" y="476"/>
      <point x="164" y="476" type="curve" smooth="yes"/>
      <point x="180" y="476"/>
      <point x="180" y="627"/>
      <point x="205" y="665" type="curve" smooth="yes"/>
      <point x="219" y="686"/>
      <point x="252" y="700"/>
      <point x="263" y="699" type="curve" smooth="yes"/>
      <point x="276" y="699"/>
      <point x="315" y="698"/>
      <point x="347" y="698" type="curve" smooth="yes"/>
      <point x="375" y="697"/>
      <point x="396.0" y="716.0"/>
      <point x="408.0" y="716.0" type="curve" smooth="yes"/>
      <point x="431.0" y="716.0"/>
      <point x="427.0" y="658.0"/>
      <point x="448.0" y="658.0" type="curve" smooth="yes"/>
      <point x="471.0" y="658.0"/>
      <point x="483.0" y="669.0"/>
      <point x="526.0" y="724.0" type="curve"/>
      <point x="558.0" y="724.0"/>
      <point x="573.0" y="710.0"/>
      <point x="573.0" y="679.0" type="curve" smooth="yes"/>
      <point x="573.0" y="624.0" type="line" smooth="yes"/>
      <point x="573.0" y="602.0"/>
      <point x="595.0" y="631.0"/>
      <point x="609.0" y="672.0" type="curve" smooth="yes"/>
      <point x="615.0" y="692.0"/>
      <point x="594" y="717"/>
      <point x="594.0" y="734.0" type="curve" smooth="yes"/>
      <point x="594" y="769"/>
      <point x="563" y="851"/>
      <point x="501" y="839" type="curve" smooth="yes"/>
      <point x="474" y="831"/>
      <point x="423" y="812"/>
      <point x="368" y="812" type="curve" smooth="yes"/>
      <point x="341" y="812"/>
      <point x="341" y="825"/>
      <point x="309" y="832" type="curve" smooth="yes"/>
      <point x="260" y="842"/>
      <point x="177" y="848"/>
      <point x="122" y="848" type="curve" smooth="yes"/>
      <point x="-7" y="848"/>
      <point x="10.0" y="823.0"/>
      <point x="-23.0" y="799.0" type="curve" smooth="yes"/>
      <point x="-62.0" y="774.0"/>
      <point x="-70.0" y="740.0"/>
    </contour>
    <contour>
      <point x="270" y="476"/>
      <point x="267" y="444"/>
      <point x="325" y="459" type="curve" smooth="yes"/>
      <point x="408" y="480"/>
      <point x="368" y="348"/>
      <point x="411" y="348" type="curve" smooth="yes"/>
      <point x="428" y="348"/>
      <point x="428" y="392"/>
      <point x="440" y="427" type="curve" smooth="yes"/>
      <point x="446" y="445"/>
      <point x="467" y="461"/>
      <point x="470" y="466" type="curve"/>
      <point x="532" y="465"/>
      <point x="608" y="411"/>
      <point x="608" y="325" type="curve" smooth="yes"/>
      <point x="608" y="293"/>
      <point x="615" y="308"/>
      <point x="620" y="360" type="curve" smooth="yes"/>
      <point x="621" y="397"/>
      <point x="626" y="441"/>
      <point x="582" y="472" type="curve" smooth="yes"/>
      <point x="572" y="479"/>
      <point x="543" y="480"/>
      <point x="533" y="486" type="curve" smooth="yes"/>
      <point x="489" y="513"/>
      <point x="441" y="534"/>
      <point x="409" y="524" type="curve" smooth="yes"/>
      <point x="367" y="515"/>
      <point x="349" y="510"/>
      <point x="300" y="489" type="curve" smooth="yes"/>
    </contour>
    <contour>
      <point x="-89.0" y="103.0" type="curve" smooth="yes"/>
      <point x="-83.0" y="82.0"/>
      <point x="-95" y="-2"/>
      <point x="-49.0" y="76.0" type="curve"/>
      <point x="-46.0" y="79.0"/>
      <point x="-28.0" y="115.0"/>
      <point x="-14.0" y="107.0" type="curve" smooth="yes"/>
      <point x="-3.0" y="101.0"/>
      <point x="3.0" y="50.0"/>
      <point x="14.0" y="59.0" type="curve" smooth="yes"/>
      <point x="33.0" y="74.0"/>
      <point x="44.0" y="137.0"/>
      <point x="59.0" y="164.0" type="curve" smooth="yes"/>
      <point x="78.0" y="198.0"/>
      <point x="99.0" y="195.0"/>
      <point x="103.0" y="195.0" type="curve" smooth="yes"/>
      <point x="129.0" y="195.0"/>
      <point x="115.0" y="90.0"/>
      <point x="144.0" y="90.0" type="curve" smooth="yes"/>
      <point x="175.0" y="90.0"/>
      <point x="163.0" y="126.0"/>
      <point x="181.0" y="168.0" type="curve" smooth="yes"/>
      <point x="185.0" y="178.0"/>
      <point x="211.0" y="144.0"/>
      <point x="221.0" y="144.0" type="curve" smooth="yes"/>
      <point x="240.0" y="144.0"/>
      <point x="228.0" y="194.0"/>
      <point x="261.0" y="194.0" type="curve"/>
      <point x="325.0" y="194.0" type="line" smooth="yes"/>
      <point x="354.0" y="194.0"/>
      <point x="353" y="143"/>
      <point x="367" y="143" type="curve" smooth="yes"/>
      <point x="382" y="143"/>
      <point x="388" y="157"/>
      <point x="388" y="175" type="curve"/>
      <point x="388" y="205"/>
      <point x="354.0" y="239.0"/>
      <point x="305.0" y="236.0" type="curve" smooth="yes"/>
      <point x="288.0" y="235.0"/>
      <point x="255.0" y="257.0"/>
      <point x="236.0" y="257.0" type="curve" smooth="yes"/>
      <point x="218.0" y="257.0"/>
      <point x="155.0" y="238.0"/>
      <point x="137.0" y="243.0" type="curve" smooth="yes"/>
      <point x="105.0" y="253.0"/>
      <point x="58" y="252"/>
      <point x="19" y="248" type="curve" smooth="yes"/>
      <point x="-11" y="245"/>
      <point x="-25" y="192"/>
      <point x="-39" y="177" type="curve" smooth="yes"/>
      <point x="-59" y="155"/>
      <point x="-103.0" y="153.0"/>
    </contour>
  </outline>
</glyph>
<glyph name="six" format="2">
  <advance width="693"/>
  <unicode hex="0036"/>
  <outline>
    <contour>
      <point x="536.0" y="726.0" type="curve"/>
      <point x="546.0" y="686.0"/>
      <point x="561" y="670"/>
      <point x="574" y="673" type="curve"/>
      <point x="574" y="639" type="line"/>
      <point x="596" y="646"/>
      <point x="597.0" y="684.0"/>
      <point x="594.0" y="718.0" type="curve" smooth="yes"/>
      <point x="588.0" y="782.0"/>
      <point x="599.0" y="849.0"/>
      <point x="479.0" y="832.0" type="curve"/>
      <point x="450.0" y="851.0"/>
      <point x="400" y="823"/>
      <point x="357" y="824" type="curve" smooth="yes"/>
      <point x="316" y="826"/>
      <point x="281.0" y="857.0"/>
      <point x="266.0" y="857.0" type="curve" smooth="yes"/>
      <point x="220.0" y="857.0"/>
      <point x="199.0" y="848.0"/>
      <point x="145.0" y="820.0" type="curve" smooth="yes"/>
      <point x="111.0" y="803.0"/>
      <point x="31.0" y="782.0"/>
      <point x="11.0" y="762.0" type="curve" smooth="yes"/>
      <point x="-55.0" y="699.0"/>
      <point x="-36.0" y="652.0"/>
      <point x="-40.0" y="603.0" type="curve" smooth="yes"/>
      <point x="-48.0" y="555.0"/>
      <point x="-64.0" y="516.0"/>
      <point x="-58.0" y="507.0" type="curve" smooth="yes"/>
      <point x="-46.0" y="489.0"/>
      <point x="-35.0" y="497.0"/>
      <point x="-15.0" y="558.0" type="curve"/>
      <point x="0.0" y="589.0"/>
      <point x="53.0" y="528.0"/>
      <point x="62.0" y="528.0" type="curve" smooth="yes"/>
      <point x="92.0" y="528.0"/>
      <point x="81.0" y="590.0"/>
      <point x="89.0" y="609.0" type="curve" smooth="yes"/>
      <point x="108.0" y="656.0"/>
      <point x="133.0" y="694.0"/>
      <point x="156.0" y="691.0" type="curve"/>
      <point x="173.0" y="649.0"/>
      <point x="191.0" y="542.0"/>
      <point x="218.0" y="542.0" type="curve" smooth="yes"/>
      <point x="233.0" y="542.0"/>
      <point x="230.0" y="572.0"/>
      <point x="240.0" y="608.0" type="curve" smooth="yes"/>
      <point x="249.0" y="637.0"/>
      <point x="264.0" y="671.0"/>
      <point x="272.0" y="678.0" type="curve" smooth="yes"/>
      <point x="290.0" y="691.0"/>
      <point x="323.0" y="654.0"/>
      <point x="337.0" y="654.0" type="curve" smooth="yes"/>
      <point x="377.0" y="654.0"/>
      <point x="393" y="703"/>
      <point x="426" y="706" type="curve" smooth="yes"/>
      <point x="457" y="709"/>
      <point x="511.0" y="723.0"/>
    </contour>
    <contour>
      <point x="300.0" y="173.0" type="curve" smooth="yes"/>
      <point x="321.0" y="160.0"/>
      <point x="325.0" y="86.0"/>
      <point x="342.0" y="86.0" type="curve" smooth="yes"/>
      <point x="354.0" y="86.0"/>
      <point x="353.0" y="104.0"/>
      <point x="353.0" y="129.0" type="curve" smooth="yes"/>
      <point x="353.0" y="129.0"/>
      <point x="356" y="158"/>
      <point x="367" y="172" type="curve"/>
      <point x="375" y="172"/>
      <point x="384" y="173"/>
      <point x="395" y="176" type="curve"/>
      <point x="404" y="168"/>
      <point x="405.0" y="146.0"/>
      <point x="410.0" y="149.0" type="curve"/>
      <point x="421.0" y="158.0"/>
      <point x="420.0" y="195.0"/>
      <point x="417.0" y="210.0" type="curve" smooth="yes"/>
      <point x="415.0" y="222.0"/>
      <point x="422.0" y="234.0"/>
      <point x="422.0" y="239.0" type="curve" smooth="yes"/>
      <point x="422.0" y="251.0"/>
      <point x="400.0" y="261.0"/>
      <point x="375.0" y="258.0" type="curve" smooth="yes"/>
      <point x="359.0" y="256.0"/>
      <point x="341.0" y="243.0"/>
      <point x="328.0" y="243.0" type="curve"/>
      <point x="304.0" y="243.0"/>
      <point x="289.0" y="235.0"/>
      <point x="289.0" y="210.0" type="curve"/>
      <point x="289.0" y="188.0"/>
      <point x="289.0" y="180.0"/>
    </contour>
    <contour>
      <point x="325.0" y="459.0" type="curve" smooth="yes"/>
      <point x="387.0" y="478.0"/>
      <point x="379.0" y="419.0"/>
      <point x="422.0" y="419.0" type="curve" smooth="yes"/>
      <point x="439.0" y="419.0"/>
      <point x="422.0" y="328.0"/>
      <point x="459.0" y="328.0" type="curve" smooth="yes"/>
      <point x="475.0" y="328.0"/>
      <point x="487.0" y="456.0"/>
      <point x="490.0" y="461.0" type="curve"/>
      <point x="518.0" y="461.0"/>
      <point x="528.0" y="459.0"/>
      <point x="555.0" y="447.0" type="curve" smooth="yes"/>
      <point x="566.0" y="443.0"/>
      <point x="570.0" y="377.0"/>
      <point x="581.0" y="377.0" type="curve" smooth="yes"/>
      <point x="596.0" y="377.0"/>
      <point x="599.0" y="421.0"/>
      <point x="606.0" y="415.0" type="curve" smooth="yes"/>
      <point x="618.0" y="404.0"/>
      <point x="628.0" y="391.0"/>
      <point x="636.0" y="376.0" type="curve"/>
      <point x="649.0" y="405.0"/>
      <point x="644.0" y="433.0"/>
      <point x="623.0" y="462.0" type="curve" smooth="yes"/>
      <point x="615.0" y="473.0"/>
      <point x="583.0" y="500.0"/>
      <point x="573.0" y="506.0" type="curve" smooth="yes"/>
      <point x="529.0" y="533.0"/>
      <point x="442.0" y="520.0"/>
      <point x="410.0" y="510.0" type="curve" smooth="yes"/>
      <point x="368.0" y="501.0"/>
      <point x="349.0" y="530.0"/>
      <point x="300.0" y="509.0" type="curve" smooth="yes"/>
      <point x="280.0" y="500.0"/>
      <point x="264" y="450"/>
      <point x="277" y="438" type="curve" smooth="yes"/>
      <point x="284" y="432"/>
      <point x="306.0" y="453.0"/>
    </contour>
  </outline>
</glyph>
<glyph name="seven" format="1">
  <advance width="627"/>
  <unicode hex="0037"/>
  <outline>
    <contour>
      <point x="533" y="725" type="curve"/>
      <point x="565" y="725"/>
      <point x="580" y="711"/>
      <point x="580" y="680" type="curve" smooth="yes"/>
      <point x="580" y="625" type="line" smooth="yes"/>
      <point x="580" y="592"/>
      <point x="624" y="673"/>
      <point x="626" y="725" type="curve" smooth="yes"/>
      <point x="630" y="856"/>
      <point x="585" y="855"/>
      <point x="504" y="840" type="curve" smooth="yes"/>
      <point x="476" y="835"/>
      <point x="429" y="822"/>
      <point x="374" y="822" type="curve" smooth="yes"/>
      <point x="304" y="822"/>
      <point x="219" y="850"/>
      <point x="130" y="850" type="curve" smooth="yes"/>
      <point x="110" y="850"/>
      <point x="57" y="869"/>
      <point x="24" y="845" type="curve" smooth="yes"/>
      <point x="-56" y="794"/>
      <point x="-108" y="684"/>
      <point x="-102" y="638" type="curve" smooth="yes"/>
      <point x="-96" y="591"/>
      <point x="-125" y="517"/>
      <point x="-90" y="517" type="curve"/>
      <point x="-44" y="517"/>
      <point x="-11" y="591"/>
      <point x="6" y="609" type="curve" smooth="yes"/>
      <point x="47" y="651"/>
      <point x="36" y="584"/>
      <point x="71" y="584" type="curve" smooth="yes"/>
      <point x="106" y="584"/>
      <point x="83" y="725"/>
      <point x="123" y="725" type="curve" smooth="yes"/>
      <point x="225" y="725" type="line"/>
      <point x="278" y="725"/>
      <point x="257" y="666"/>
      <point x="283" y="629" type="curve" smooth="yes"/>
      <point x="314" y="584"/>
      <point x="292" y="553"/>
      <point x="323" y="553" type="curve" smooth="yes"/>
      <point x="345" y="553"/>
      <point x="334" y="679"/>
      <point x="386" y="679" type="curve" smooth="yes"/>
      <point x="405" y="679"/>
      <point x="427" y="661"/>
      <point x="437" y="640" type="curve" smooth="yes"/>
      <point x="451" y="614"/>
      <point x="441" y="583"/>
      <point x="460" y="583" type="curve" smooth="yes"/>
      <point x="504" y="583"/>
      <point x="489" y="725"/>
    </contour>
    <contour>
      <point x="147.0" y="358.0" type="curve"/>
      <point x="146.0" y="360.0"/>
      <point x="192.0" y="395.0"/>
      <point x="241.0" y="413.0" type="curve" smooth="yes"/>
      <point x="278.0" y="427.0"/>
      <point x="344.0" y="400.0"/>
      <point x="363.0" y="406.0" type="curve" smooth="yes"/>
      <point x="391.0" y="414.0"/>
      <point x="355.0" y="446.0"/>
      <point x="348.0" y="450.0" type="curve" smooth="yes"/>
      <point x="329.0" y="461.0"/>
      <point x="340.0" y="487.0"/>
      <point x="316.0" y="489.0" type="curve" smooth="yes"/>
      <point x="305.0" y="490.0"/>
      <point x="279" y="472"/>
      <point x="252" y="468" type="curve" smooth="yes"/>
      <point x="231" y="465"/>
      <point x="208.0" y="476.0"/>
      <point x="192.0" y="476.0" type="curve"/>
      <point x="109.0" y="476.0"/>
      <point x="122.0" y="419.0"/>
      <point x="121.0" y="401.0" type="curve" smooth="yes"/>
      <point x="119.0" y="378.0"/>
      <point x="107.0" y="393.0"/>
      <point x="89.0" y="387.0" type="curve" smooth="yes"/>
      <point x="65.0" y="379.0"/>
      <point x="9.0" y="275.0"/>
      <point x="6.0" y="239.0" type="curve" smooth="yes"/>
      <point x="5.0" y="226.0"/>
      <point x="-1.0" y="171.0"/>
      <point x="15.0" y="175.0" type="curve" smooth="yes"/>
      <point x="35.0" y="180.0"/>
      <point x="18.0" y="241.0"/>
      <point x="39.0" y="241.0" type="curve" smooth="yes"/>
      <point x="78.0" y="241.0"/>
      <point x="63.0" y="283.0"/>
      <point x="77.0" y="279.0" type="curve" smooth="yes"/>
      <point x="94.0" y="275.0"/>
      <point x="109.0" y="224.0"/>
      <point x="116.0" y="221.0" type="curve"/>
      <point x="152.0" y="231.0"/>
      <point x="137.0" y="263.0"/>
    </contour>
  </outline>
</glyph>
<glyph name="eight" format="2">
  <advance width="711"/>
  <unicode hex="0038"/>
  <outline>
    <contour>
      <point x="-44.0" y="494.0" type="curve"/>
      <point x="-21.0" y="475.0"/>
      <point x="-14.0" y="579.0"/>
      <point x="27.0" y="579.0" type="curve" smooth="yes"/>
      <point x="33.0" y="579.0"/>
      <point x="57" y="619"/>
      <point x="64" y="606" type="curve" smooth="yes"/>
      <point x="81" y="578"/>
      <point x="75" y="500"/>
      <point x="91.0" y="500.0" type="curve" smooth="yes"/>
      <point x="129" y="500"/>
      <point x="130" y="615"/>
      <point x="147" y="637" type="curve" smooth="yes"/>
      <point x="173" y="670"/>
      <point x="199" y="694"/>
      <point x="226" y="694" type="curve" smooth="yes"/>
      <point x="310" y="694"/>
      <point x="283" y="592"/>
      <point x="328" y="592" type="curve"/>
      <point x="363" y="592"/>
      <point x="328" y="714"/>
      <point x="392" y="714" type="curve" smooth="yes"/>
      <point x="421.433773947" y="714.0"/>
      <point x="458" y="738"/>
      <point x="512.0" y="720.0" type="curve" smooth="yes"/>
      <point x="563" y="703"/>
      <point x="630.0" y="675.0"/>
      <point x="622.0" y="545.0" type="curve" smooth="yes"/>
      <point x="620.0" y="512.0"/>
      <point x="649" y="593"/>
      <point x="649" y="645" type="curve" smooth="yes"/>
      <point x="649" y="716"/>
      <point x="640.0" y="756.0"/>
      <point x="621.0" y="785.0" type="curve" smooth="yes"/>
      <point x="593.0" y="826.0"/>
      <point x="563.0" y="848.0"/>
      <point x="534.0" y="840.0" type="curve" smooth="yes"/>
      <point x="491.0" y="830.0"/>
      <point x="466" y="842"/>
      <point x="404" y="853" type="curve" smooth="yes"/>
      <point x="382" y="857"/>
      <point x="319" y="807"/>
      <point x="300" y="820" type="curve" smooth="yes"/>
      <point x="284" y="830"/>
      <point x="179.0" y="849.0"/>
      <point x="164.0" y="849.0" type="curve" smooth="yes"/>
      <point x="124.0" y="849.0"/>
      <point x="117.0" y="791.0"/>
      <point x="60.0" y="778.0" type="curve" smooth="yes"/>
      <point x="-17.0" y="760.0"/>
      <point x="-27.0" y="657.0"/>
      <point x="-30.0" y="607.0" type="curve" smooth="yes"/>
      <point x="-33.0" y="564.0"/>
      <point x="-42.0" y="526.0"/>
    </contour>
    <contour>
      <point x="298" y="507" type="curve"/>
      <point x="298" y="479" type="line" smooth="yes"/>
      <point x="298" y="409"/>
      <point x="315" y="391"/>
      <point x="336" y="390" type="curve" smooth="yes"/>
      <point x="363" y="388"/>
      <point x="355" y="428"/>
      <point x="376" y="428" type="curve" smooth="yes"/>
      <point x="383" y="428"/>
      <point x="384" y="322"/>
      <point x="402" y="312" type="curve"/>
      <point x="419" y="313"/>
      <point x="414" y="433"/>
      <point x="413" y="446" type="curve" smooth="yes"/>
      <point x="408" y="506"/>
      <point x="306" y="524"/>
    </contour>
    <contour>
      <point x="303" y="169" type="curve" smooth="yes"/>
      <point x="327" y="169"/>
      <point x="338" y="132"/>
      <point x="355" y="132" type="curve" smooth="yes"/>
      <point x="380" y="132"/>
      <point x="382" y="162"/>
      <point x="393" y="165" type="curve" smooth="yes"/>
      <point x="403" y="167"/>
      <point x="411" y="121"/>
      <point x="419" y="121" type="curve" smooth="yes"/>
      <point x="436" y="121"/>
      <point x="440" y="185"/>
      <point x="440" y="205" type="curve" smooth="yes"/>
      <point x="440" y="260"/>
      <point x="418" y="232"/>
      <point x="395" y="230" type="curve" smooth="yes"/>
      <point x="372" y="227"/>
      <point x="360" y="248"/>
      <point x="326" y="248" type="curve"/>
      <point x="302" y="248"/>
      <point x="272" y="239"/>
      <point x="272" y="211" type="curve" smooth="yes"/>
      <point x="272" y="180"/>
      <point x="272" y="169"/>
    </contour>
  </outline>
</glyph>
<glyph name="nine" format="1">
  <advance width="693"/>
  <unicode hex="0039"/>
  <outline>
    <contour>
      <point x="-83.0" y="604.0" type="curve" smooth="yes"/>
      <point x="-91.0" y="556.0"/>
      <point x="-107.0" y="517.0"/>
      <point x="-101.0" y="508.0" type="curve" smooth="yes"/>
      <point x="-89.0" y="490.0"/>
      <point x="-78.0" y="498.0"/>
      <point x="-58.0" y="559.0" type="curve"/>
      <point x="-43.0" y="590.0"/>
      <point x="10.0" y="529.0"/>
      <point x="19.0" y="529.0" type="curve" smooth="yes"/>
      <point x="49.0" y="529.0"/>
      <point x="38.0" y="591.0"/>
      <point x="46.0" y="610.0" type="curve" smooth="yes"/>
      <point x="65.0" y="657.0"/>
      <point x="115.0" y="578.0"/>
      <point x="138.0" y="575.0" type="curve" smooth="yes"/>
      <point x="169.0" y="571.0"/>
      <point x="149.0" y="673.0"/>
      <point x="179.0" y="720.0" type="curve"/>
      <point x="233.0" y="742.0"/>
      <point x="299.0" y="742.0"/>
      <point x="347.0" y="714.0" type="curve" smooth="yes"/>
      <point x="357.0" y="708.0"/>
      <point x="370.0" y="673.0"/>
      <point x="379.0" y="644.0" type="curve" smooth="yes"/>
      <point x="389.0" y="608.0"/>
      <point x="386.0" y="578.0"/>
      <point x="401.0" y="578.0" type="curve" smooth="yes"/>
      <point x="428.0" y="578.0"/>
      <point x="446.0" y="688.0"/>
      <point x="463.0" y="730.0" type="curve"/>
      <point x="496.0" y="725.0"/>
      <point x="525.0" y="716.0"/>
      <point x="549.0" y="703.0" type="curve" smooth="yes"/>
      <point x="559.0" y="698.0"/>
      <point x="544.0" y="602.0"/>
      <point x="564.0" y="602.0" type="curve" smooth="yes"/>
      <point x="584.0" y="602.0"/>
      <point x="591.0" y="674.0"/>
      <point x="597.0" y="667.0" type="curve" smooth="yes"/>
      <point x="621.0" y="641.0"/>
      <point x="636.0" y="607.0"/>
      <point x="639.0" y="566.0" type="curve" smooth="yes"/>
      <point x="641.0" y="533.0"/>
      <point x="656.0" y="614.0"/>
      <point x="656.0" y="666.0" type="curve" smooth="yes"/>
      <point x="656.0" y="737.0"/>
      <point x="632" y="796"/>
      <point x="589" y="817" type="curve" smooth="yes"/>
      <point x="547" y="837"/>
      <point x="468" y="839"/>
      <point x="406" y="851" type="curve" smooth="yes"/>
      <point x="327" y="867"/>
      <point x="260" y="854"/>
      <point x="200" y="852" type="curve" smooth="yes"/>
      <point x="172" y="852"/>
      <point x="115" y="813"/>
      <point x="91" y="807" type="curve" smooth="yes"/>
      <point x="44" y="795"/>
      <point x="10" y="795"/>
      <point x="-16" y="765" type="curve" smooth="yes"/>
      <point x="-77" y="697"/>
      <point x="-79.0" y="653.0"/>
    </contour>
    <contour>
      <point x="300" y="418" type="curve" smooth="yes"/>
      <point x="319" y="418"/>
      <point x="327" y="378"/>
      <point x="340" y="378" type="curve" smooth="yes"/>
      <point x="359" y="378"/>
      <point x="360" y="411"/>
      <point x="369" y="414" type="curve" smooth="yes"/>
      <point x="377" y="417"/>
      <point x="383" y="396"/>
      <point x="388" y="396" type="curve" smooth="yes"/>
      <point x="401" y="396"/>
      <point x="405" y="436"/>
      <point x="405" y="458" type="curve" smooth="yes"/>
      <point x="405" y="519"/>
      <point x="388" y="488"/>
      <point x="371" y="485" type="curve" smooth="yes"/>
      <point x="353" y="482"/>
      <point x="344" y="505"/>
      <point x="318" y="505" type="curve"/>
      <point x="300" y="505"/>
      <point x="277" y="495"/>
      <point x="277" y="464" type="curve" smooth="yes"/>
      <point x="277" y="431"/>
      <point x="277" y="418"/>
    </contour>
    <contour>
      <point x="-13.0" y="104.0" type="curve" smooth="yes"/>
      <point x="-11.0" y="97.0"/>
      <point x="-24.0" y="50.0"/>
      <point x="-16.0" y="42.0" type="curve" smooth="yes"/>
      <point x="-10.0" y="37.0"/>
      <point x="1" y="56"/>
      <point x="22.0" y="56.0" type="curve" smooth="yes"/>
      <point x="38" y="56"/>
      <point x="39" y="19"/>
      <point x="46" y="19" type="curve" smooth="yes"/>
      <point x="53" y="19"/>
      <point x="55" y="37"/>
      <point x="58" y="52" type="curve" smooth="yes"/>
      <point x="62" y="70"/>
      <point x="70.0" y="90.0"/>
      <point x="76.0" y="94.0" type="curve"/>
      <point x="160.0" y="185.0"/>
      <point x="132.0" y="144.0"/>
      <point x="241.0" y="144.0" type="curve" smooth="yes"/>
      <point x="260.0" y="144.0"/>
      <point x="248.0" y="194.0"/>
      <point x="281.0" y="194.0" type="curve"/>
      <point x="345.0" y="194.0" type="line" smooth="yes"/>
      <point x="374.0" y="194.0"/>
      <point x="363.0" y="103.0"/>
      <point x="377.0" y="103.0" type="curve" smooth="yes"/>
      <point x="392.0" y="103.0"/>
      <point x="397.0" y="164.0"/>
      <point x="397.0" y="193.0" type="curve"/>
      <point x="397.0" y="223.0"/>
      <point x="374.0" y="239.0"/>
      <point x="325.0" y="236.0" type="curve" smooth="yes"/>
      <point x="308.0" y="235.0"/>
      <point x="275.0" y="241.0"/>
      <point x="256.0" y="241.0" type="curve" smooth="yes"/>
      <point x="238.0" y="241.0"/>
      <point x="185.0" y="221.0"/>
      <point x="167.0" y="226.0" type="curve" smooth="yes"/>
      <point x="110.0" y="243.0"/>
      <point x="99.0" y="260.0"/>
      <point x="66.0" y="225.0" type="curve" smooth="yes"/>
      <point x="46.0" y="203.0"/>
      <point x="-27.0" y="154.0"/>
    </contour>
  </outline>
</glyph>
<glyph name="colon" format="2">
  <advance width="384"/>
  <unicode hex="003A"/>
  <outline>
    <contour>
      <point x="-74" y="163" type="curve" smooth="yes"/>
      <point x="-74" y="139"/>
      <point x="10" y="200"/>
      <point x="66" y="235" type="curve" smooth="yes"/>
      <point x="78" y="243"/>
      <point x="93" y="216"/>
      <point x="101" y="220" type="curve" smooth="yes"/>
      <point x="117" y="228"/>
      <point x="126" y="264"/>
      <point x="137" y="265" type="curve" smooth="yes"/>
      <point x="160" y="266"/>
      <point x="174" y="254"/>
      <point x="188" y="244" type="curve" smooth="yes"/>
      <point x="199" y="235"/>
      <point x="210" y="177"/>
      <point x="225" y="177" type="curve" smooth="yes"/>
      <point x="250" y="177"/>
      <point x="284" y="264"/>
      <point x="292" y="280" type="curve"/>
      <point x="323" y="280"/>
      <point x="334" y="265"/>
      <point x="334" y="235" type="curve" smooth="yes"/>
      <point x="334" y="179" type="line"/>
      <point x="362" y="177"/>
      <point x="351" y="248"/>
      <point x="356" y="300" type="curve" smooth="yes"/>
      <point x="357" y="351"/>
      <point x="336" y="371"/>
      <point x="306" y="371" type="curve" smooth="yes"/>
      <point x="289" y="371"/>
      <point x="248" y="361"/>
      <point x="222" y="353" type="curve" smooth="yes"/>
      <point x="201" y="349"/>
      <point x="148" y="355"/>
      <point x="106" y="358" type="curve" smooth="yes"/>
      <point x="69" y="360"/>
      <point x="32" y="319"/>
      <point x="12" y="308" type="curve" smooth="yes"/>
      <point x="7" y="305"/>
      <point x="-71" y="278"/>
      <point x="-78" y="231" type="curve" smooth="yes"/>
      <point x="-82" y="203"/>
      <point x="-74" y="181"/>
    </contour>
    <contour>
      <point x="-74" y="518" type="curve" smooth="yes"/>
      <point x="-74" y="494"/>
      <point x="10" y="555"/>
      <point x="66" y="590" type="curve" smooth="yes"/>
      <point x="78" y="598"/>
      <point x="93" y="541"/>
      <point x="101" y="545" type="curve" smooth="yes"/>
      <point x="117" y="553"/>
      <point x="126" y="619"/>
      <point x="137" y="620" type="curve" smooth="yes"/>
      <point x="160" y="621"/>
      <point x="174" y="609"/>
      <point x="188" y="599" type="curve" smooth="yes"/>
      <point x="199" y="590"/>
      <point x="210" y="582"/>
      <point x="225" y="582" type="curve" smooth="yes"/>
      <point x="250" y="582"/>
      <point x="284" y="619"/>
      <point x="292" y="635" type="curve"/>
      <point x="323" y="635"/>
      <point x="334" y="620"/>
      <point x="334" y="590" type="curve" smooth="yes"/>
      <point x="334" y="534" type="line"/>
      <point x="362" y="532"/>
      <point x="351" y="633"/>
      <point x="356" y="685" type="curve" smooth="yes"/>
      <point x="357" y="736"/>
      <point x="336" y="746"/>
      <point x="306" y="746" type="curve" smooth="yes"/>
      <point x="289" y="746"/>
      <point x="248" y="736"/>
      <point x="222" y="728" type="curve" smooth="yes"/>
      <point x="201" y="724"/>
      <point x="158" y="740"/>
      <point x="116" y="743" type="curve" smooth="yes"/>
      <point x="79" y="745"/>
      <point x="42" y="704"/>
      <point x="22" y="693" type="curve" smooth="yes"/>
      <point x="17" y="690"/>
      <point x="-51" y="663"/>
      <point x="-58" y="616" type="curve" smooth="yes"/>
      <point x="-62" y="588"/>
      <point x="-74" y="536"/>
    </contour>
  </outline>
</glyph>
<glyph name="question" format="1">
  <advance width="656"/>
  <unicode hex="003F"/>
  <outline>
    <contour>
      <point x="-9.0" y="770.0" type="curve" smooth="yes"/>
      <point x="-17.0" y="732.0"/>
      <point x="-81.0" y="664.0"/>
      <point x="-84.0" y="620.0" type="curve" smooth="yes"/>
      <point x="-92.0" y="572.0"/>
      <point x="-84.0" y="516.0"/>
      <point x="-78.0" y="507.0" type="curve" smooth="yes"/>
      <point x="-66.0" y="489.0"/>
      <point x="-55.0" y="497.0"/>
      <point x="-35.0" y="558.0" type="curve"/>
      <point x="30.0" y="692.0"/>
      <point x="12.0" y="609.0"/>
      <point x="39.0" y="609.0" type="curve" smooth="yes"/>
      <point x="139.0" y="609.0"/>
      <point x="126" y="777"/>
      <point x="264" y="691" type="curve" smooth="yes"/>
      <point x="278" y="683"/>
      <point x="300" y="583"/>
      <point x="321" y="583" type="curve" smooth="yes"/>
      <point x="337" y="583"/>
      <point x="360.0" y="702.0"/>
      <point x="365.0" y="698.0" type="curve" smooth="yes"/>
      <point x="409.0" y="678.0"/>
      <point x="413.0" y="663.0"/>
      <point x="453.0" y="718.0" type="curve"/>
      <point x="486.0" y="713.0"/>
      <point x="524.0" y="700.0"/>
      <point x="556.0" y="675.0" type="curve" smooth="yes"/>
      <point x="566.0" y="668.0"/>
      <point x="553.0" y="586.0"/>
      <point x="555.0" y="574.0" type="curve" smooth="yes"/>
      <point x="561.0" y="541.0"/>
      <point x="579.0" y="579.0"/>
      <point x="591.0" y="590.0" type="curve" smooth="yes"/>
      <point x="603.0" y="601.0"/>
      <point x="609.0" y="585.0"/>
      <point x="611.0" y="565.0" type="curve" smooth="yes"/>
      <point x="615.0" y="532.0"/>
      <point x="631.0" y="613.0"/>
      <point x="631.0" y="665.0" type="curve" smooth="yes"/>
      <point x="631.0" y="877.0"/>
      <point x="480.0" y="884.0"/>
      <point x="430.0" y="871.0" type="curve" smooth="yes"/>
      <point x="407.0" y="866.0"/>
      <point x="407.0" y="838.0"/>
      <point x="389.0" y="838.0" type="curve" smooth="yes"/>
      <point x="371.0" y="838.0"/>
      <point x="384.0" y="866.0"/>
      <point x="361.0" y="866.0" type="curve" smooth="yes"/>
      <point x="293.0" y="866.0"/>
      <point x="281.0" y="824.0"/>
      <point x="240.0" y="824.0" type="curve" smooth="yes"/>
      <point x="200.0" y="824.0"/>
      <point x="129.0" y="881.0"/>
      <point x="78.0" y="855.0" type="curve" smooth="yes"/>
      <point x="22.0" y="824.0"/>
      <point x="-3.0" y="790.0"/>
    </contour>
    <contour>
      <point x="83" y="169" type="curve" smooth="yes"/>
      <point x="83" y="141"/>
      <point x="99" y="157"/>
      <point x="148" y="181" type="curve" smooth="yes"/>
      <point x="226" y="218"/>
      <point x="233" y="155"/>
      <point x="276" y="155" type="curve" smooth="yes"/>
      <point x="301" y="155"/>
      <point x="335" y="192"/>
      <point x="343" y="208" type="curve"/>
      <point x="374" y="208"/>
      <point x="385" y="193"/>
      <point x="385" y="163" type="curve" smooth="yes"/>
      <point x="385" y="107" type="line" smooth="yes"/>
      <point x="385" y="75"/>
      <point x="412" y="146"/>
      <point x="417" y="198" type="curve" smooth="yes"/>
      <point x="418" y="249"/>
      <point x="397" y="259"/>
      <point x="367" y="259" type="curve" smooth="yes"/>
      <point x="350" y="259"/>
      <point x="309" y="249"/>
      <point x="283" y="241" type="curve" smooth="yes"/>
      <point x="244" y="233"/>
      <point x="146" y="250"/>
      <point x="103" y="227" type="curve" smooth="yes"/>
      <point x="90" y="220"/>
      <point x="83" y="198"/>
    </contour>
    <contour>
      <point x="86.0" y="365.0" type="curve" smooth="yes"/>
      <point x="115" y="365"/>
      <point x="135.0" y="382.0"/>
      <point x="153.0" y="424.0" type="curve" smooth="yes"/>
      <point x="157.0" y="434.0"/>
      <point x="183.0" y="400.0"/>
      <point x="193.0" y="400.0" type="curve" smooth="yes"/>
      <point x="212.0" y="400.0"/>
      <point x="230.0" y="460.0"/>
      <point x="263.0" y="460.0" type="curve"/>
      <point x="327.0" y="469.0" type="line" smooth="yes"/>
      <point x="355.0" y="473.0"/>
      <point x="345" y="408"/>
      <point x="359" y="408" type="curve" smooth="yes"/>
      <point x="374" y="408"/>
      <point x="379.0" y="439.0"/>
      <point x="379.0" y="468.0" type="curve"/>
      <point x="379.0" y="498.0"/>
      <point x="356.0" y="504.0"/>
      <point x="307.0" y="501.0" type="curve" smooth="yes"/>
      <point x="290.0" y="500.0"/>
      <point x="257.0" y="487.0"/>
      <point x="238.0" y="487.0" type="curve" smooth="yes"/>
      <point x="220.0" y="487.0"/>
      <point x="123.0" y="482.0"/>
      <point x="97.0" y="463.0" type="curve" smooth="yes"/>
      <point x="70.0" y="444.0"/>
      <point x="74" y="423"/>
      <point x="74" y="405" type="curve" smooth="yes"/>
      <point x="73" y="384"/>
      <point x="71" y="365"/>
    </contour>
  </outline>
</glyph>
<glyph name="at" format="2">
  <advance width="867"/>
  <unicode hex="0040"/>
  <outline>
    <contour>
      <point x="-46" y="623" type="curve" smooth="yes"/>
      <point x="-55" y="575"/>
      <point x="-74" y="536"/>
      <point x="-67" y="527" type="curve" smooth="yes"/>
      <point x="-53" y="509"/>
      <point x="-40" y="517"/>
      <point x="-16" y="578" type="curve"/>
      <point x="1" y="609"/>
      <point x="73" y="548"/>
      <point x="84" y="548" type="curve" smooth="yes"/>
      <point x="119" y="548"/>
      <point x="106" y="610"/>
      <point x="116" y="629" type="curve" smooth="yes"/>
      <point x="149" y="698"/>
      <point x="144" y="480"/>
      <point x="174" y="480" type="curve" smooth="yes"/>
      <point x="205" y="480"/>
      <point x="205" y="642"/>
      <point x="251" y="642" type="curve" smooth="yes"/>
      <point x="287" y="642"/>
      <point x="320" y="715"/>
      <point x="347" y="715" type="curve" smooth="yes"/>
      <point x="381" y="715"/>
      <point x="392" y="614"/>
      <point x="406" y="614" type="curve" smooth="yes"/>
      <point x="420" y="614"/>
      <point x="444" y="649"/>
      <point x="444" y="709" type="curve" smooth="yes"/>
      <point x="444" y="731"/>
      <point x="470" y="744"/>
      <point x="482" y="744" type="curve" smooth="yes"/>
      <point x="501" y="744"/>
      <point x="509" y="707"/>
      <point x="536" y="707" type="curve" smooth="yes"/>
      <point x="554" y="706"/>
      <point x="588" y="729"/>
      <point x="605" y="749" type="curve"/>
      <point x="727" y="732"/>
      <point x="804" y="678"/>
      <point x="812" y="585" type="curve" smooth="yes"/>
      <point x="814" y="552"/>
      <point x="855" y="633"/>
      <point x="855" y="685" type="curve" smooth="yes"/>
      <point x="855" y="857"/>
      <point x="770" y="839"/>
      <point x="711" y="836" type="curve" smooth="yes"/>
      <point x="677" y="834"/>
      <point x="678" y="853"/>
      <point x="622" y="878" type="curve" smooth="yes"/>
      <point x="571" y="901"/>
      <point x="486" y="874"/>
      <point x="422" y="873" type="curve" smooth="yes"/>
      <point x="378" y="871"/>
      <point x="349" y="897"/>
      <point x="323" y="897" type="curve" smooth="yes"/>
      <point x="277" y="897"/>
      <point x="225" y="865"/>
      <point x="165" y="839" type="curve" smooth="yes"/>
      <point x="130" y="822"/>
      <point x="90" y="828"/>
      <point x="66" y="813" type="curve" smooth="yes"/>
      <point x="-36" y="749"/>
      <point x="-41" y="678"/>
    </contour>
  </outline>
</glyph>
<glyph name="A" format="2">
  <advance width="730"/>
  <unicode hex="0041"/>
  <outline>
    <contour>
      <point x="110" y="755" type="curve" smooth="yes"/>
      <point x="102" y="717"/>
      <point x="15.0" y="654.0"/>
      <point x="12.0" y="610.0" type="curve" smooth="yes"/>
      <point x="4.0" y="562.0"/>
      <point x="22.0" y="506.0"/>
      <point x="28.0" y="497.0" type="curve" smooth="yes"/>
      <point x="40.0" y="479.0"/>
      <point x="65.0" y="489.0"/>
      <point x="91.0" y="548.0" type="curve" smooth="yes"/>
      <point x="151.0" y="685.0"/>
      <point x="171.0" y="579.0"/>
      <point x="198.0" y="579.0" type="curve" smooth="yes"/>
      <point x="217.0" y="579.0"/>
      <point x="208" y="631"/>
      <point x="218" y="659" type="curve" smooth="yes"/>
      <point x="225" y="678"/>
      <point x="252" y="676"/>
      <point x="263" y="676" type="curve"/>
      <point x="288" y="676"/>
      <point x="282.0" y="606.0"/>
      <point x="311.0" y="606.0" type="curve" smooth="yes"/>
      <point x="326.0" y="606.0"/>
      <point x="313.0" y="648.0"/>
      <point x="330.0" y="667.0" type="curve" smooth="yes"/>
      <point x="345.0" y="685.0"/>
      <point x="390.0" y="681.0"/>
      <point x="408.0" y="664.0" type="curve" smooth="yes"/>
      <point x="434.0" y="638.0"/>
      <point x="439.0" y="555.0"/>
      <point x="459.0" y="555.0" type="curve"/>
      <point x="480.0" y="555.0"/>
      <point x="479.0" y="705.0"/>
      <point x="514.0" y="705.0" type="curve"/>
      <point x="533.0" y="705.0"/>
      <point x="552.0" y="691.0"/>
      <point x="561.0" y="669.0" type="curve" smooth="yes"/>
      <point x="568.0" y="652.0" type="line"/>
      <point x="578.0" y="665.0"/>
      <point x="580.0" y="710.0"/>
      <point x="580.0" y="719.0" type="curve" smooth="yes"/>
      <point x="580.0" y="813.0"/>
      <point x="540" y="855"/>
      <point x="458" y="846" type="curve" smooth="yes"/>
      <point x="411" y="841"/>
      <point x="372" y="832"/>
      <point x="330" y="834" type="curve" smooth="yes"/>
      <point x="265" y="838"/>
      <point x="207" y="859"/>
      <point x="185" y="843" type="curve" smooth="yes"/>
      <point x="152" y="818"/>
      <point x="117" y="780"/>
    </contour>
    <contour>
      <point x="317" y="363" type="curve" smooth="yes"/>
      <point x="353" y="354"/>
      <point x="363.0" y="247.0"/>
      <point x="376.0" y="247.0" type="curve"/>
      <point x="390.0" y="247.0"/>
      <point x="393.0" y="346.0"/>
      <point x="397.0" y="346.0" type="curve" smooth="yes"/>
      <point x="408.0" y="346.0"/>
      <point x="405.0" y="312.0"/>
      <point x="413.0" y="312.0" type="curve" smooth="yes"/>
      <point x="419.0" y="312.0"/>
      <point x="441.0" y="311.0"/>
      <point x="441.0" y="364.0" type="curve"/>
      <point x="442.0" y="383.0"/>
      <point x="426.0" y="407.0"/>
      <point x="416.0" y="414.0" type="curve" smooth="yes"/>
      <point x="407.0" y="420.0"/>
      <point x="392.0" y="421.0"/>
      <point x="382.0" y="425.0" type="curve" smooth="yes"/>
      <point x="363.0" y="433.0"/>
      <point x="350.0" y="446.0"/>
      <point x="313.0" y="434.0" type="curve"/>
      <point x="300" y="401" type="line"/>
      <point x="272" y="369"/>
      <point x="278" y="347"/>
      <point x="299" y="360" type="curve"/>
      <point x="307" y="365"/>
      <point x="313" y="364"/>
    </contour>
  </outline>
</glyph>
<glyph name="B" format="1">
  <advance width="725"/>
  <unicode hex="0042"/>
  <outline>
    <contour>
      <point x="-9.0" y="770.0" type="curve" smooth="yes"/>
      <point x="-17.0" y="732.0"/>
      <point x="-71.0" y="664.0"/>
      <point x="-74.0" y="620.0" type="curve" smooth="yes"/>
      <point x="-82.0" y="572.0"/>
      <point x="-74.0" y="516.0"/>
      <point x="-68.0" y="507.0" type="curve" smooth="yes"/>
      <point x="-56.0" y="489.0"/>
      <point x="-36.0" y="495.0"/>
      <point x="-25.0" y="558.0" type="curve" smooth="yes"/>
      <point x="-1.0" y="691.0"/>
      <point x="12.0" y="609.0"/>
      <point x="39.0" y="609.0" type="curve" smooth="yes"/>
      <point x="67.0" y="609.0"/>
      <point x="107.0" y="706.0"/>
      <point x="160.0" y="706.0" type="curve"/>
      <point x="207.0" y="706.0"/>
      <point x="205.0" y="566.0"/>
      <point x="237.0" y="566.0" type="curve" smooth="yes"/>
      <point x="270.0" y="566.0"/>
      <point x="266.0" y="715.0"/>
      <point x="314.0" y="715.0" type="curve" smooth="yes"/>
      <point x="357.0" y="715.0"/>
      <point x="355.0" y="667.0"/>
      <point x="394.0" y="667.0" type="curve" smooth="yes"/>
      <point x="422.0" y="667.0"/>
      <point x="416.0" y="715.0"/>
      <point x="429.0" y="715.0" type="curve" smooth="yes"/>
      <point x="439.0" y="715.0"/>
      <point x="448.0" y="630.0"/>
      <point x="471.0" y="630.0" type="curve" smooth="yes"/>
      <point x="494.0" y="630.0"/>
      <point x="492.0" y="702.0"/>
      <point x="503.0" y="718.0" type="curve"/>
      <point x="536.0" y="713.0"/>
      <point x="564.0" y="701.0"/>
      <point x="588.0" y="673.0" type="curve" smooth="yes"/>
      <point x="608.0" y="650.0"/>
      <point x="622.0" y="612.0"/>
      <point x="620.0" y="574.0" type="curve" smooth="yes"/>
      <point x="616.0" y="502.0"/>
      <point x="637.0" y="518.0"/>
      <point x="643.0" y="555.0" type="curve" smooth="yes"/>
      <point x="648.0" y="583.0"/>
      <point x="640.0" y="617.0"/>
      <point x="640.0" y="665.0" type="curve" smooth="yes"/>
      <point x="640.0" y="760.0"/>
      <point x="643" y="810"/>
      <point x="602" y="821" type="curve" smooth="yes"/>
      <point x="539" y="838"/>
      <point x="497" y="865"/>
      <point x="452" y="857" type="curve" smooth="yes"/>
      <point x="420" y="852"/>
      <point x="403" y="833"/>
      <point x="374" y="835" type="curve" smooth="yes"/>
      <point x="260" y="846"/>
      <point x="177.0" y="905.0"/>
      <point x="78.0" y="855.0" type="curve" smooth="yes"/>
      <point x="22.0" y="824.0"/>
      <point x="-3.0" y="790.0"/>
    </contour>
    <contour>
      <point x="299.0" y="175.0" type="line"/>
      <point x="325.0" y="175.0" type="line" smooth="yes"/>
      <point x="346.0" y="175.0"/>
      <point x="332.0" y="128.0"/>
      <point x="349.0" y="127.0" type="curve" smooth="yes"/>
      <point x="367.0" y="126.0"/>
      <point x="359.0" y="175.0"/>
      <point x="376.0" y="175.0" type="curve" smooth="yes"/>
      <point x="392.0" y="175.0"/>
      <point x="397.0" y="165.0"/>
      <point x="405.0" y="146.0" type="curve" smooth="yes"/>
      <point x="408.0" y="138.0"/>
      <point x="411" y="104"/>
      <point x="417" y="94" type="curve" smooth="yes"/>
      <point x="434" y="65"/>
      <point x="466.0" y="170.0"/>
      <point x="466.0" y="220.0" type="curve" smooth="yes"/>
      <point x="466.0" y="286.0"/>
      <point x="421.0" y="241.0"/>
      <point x="358.0" y="226.0" type="curve" smooth="yes"/>
      <point x="316.0" y="217.0"/>
      <point x="324.0" y="265.0"/>
      <point x="299.0" y="245.0" type="curve"/>
    </contour>
    <contour>
      <point x="299.0" y="447.0" type="line"/>
      <point x="320.0" y="447.0" type="line" smooth="yes"/>
      <point x="344.0" y="447.0"/>
      <point x="325" y="400"/>
      <point x="351" y="400" type="curve" smooth="yes"/>
      <point x="360" y="400"/>
      <point x="374" y="429"/>
      <point x="384" y="447" type="curve"/>
      <point x="408" y="449"/>
      <point x="412" y="469"/>
      <point x="413" y="481" type="curve" smooth="yes"/>
      <point x="416" y="532"/>
      <point x="399.0" y="516.0"/>
      <point x="369.0" y="502.0" type="curve" smooth="yes"/>
      <point x="361.0" y="498.0"/>
      <point x="351.0" y="514.0"/>
      <point x="341.0" y="514.0" type="curve" smooth="yes"/>
      <point x="324.0" y="514.0"/>
      <point x="316.0" y="492.0"/>
      <point x="299.0" y="479.0" type="curve"/>
    </contour>
  </outline>
</glyph>
<glyph name="C" format="1">
  <advance width="628"/>
  <unicode hex="0043"/>
  <outline>
    <contour>
      <point x="321.0" y="154.0" type="curve" smooth="yes"/>
      <point x="336.0" y="132.0"/>
      <point x="356.0" y="73.0"/>
      <point x="383.0" y="73.0" type="curve" smooth="yes"/>
      <point x="400.0" y="73.0"/>
      <point x="395" y="151"/>
      <point x="432" y="177" type="curve" smooth="yes"/>
      <point x="448" y="190"/>
      <point x="470" y="146"/>
      <point x="491" y="146" type="curve" smooth="yes"/>
      <point x="518" y="146"/>
      <point x="536.0" y="193.0"/>
      <point x="547.0" y="196.0" type="curve"/>
      <point x="576.0" y="197.0"/>
      <point x="589.0" y="189.0"/>
      <point x="589.0" y="157.0" type="curve" smooth="yes"/>
      <point x="589.0" y="103.0" type="line" smooth="yes"/>
      <point x="589.0" y="71.0"/>
      <point x="619" y="151"/>
      <point x="619.0" y="204.0" type="curve" smooth="yes"/>
      <point x="619" y="263"/>
      <point x="593" y="299"/>
      <point x="529" y="299" type="curve" smooth="yes"/>
      <point x="466" y="299"/>
      <point x="458" y="275"/>
      <point x="406" y="253" type="curve" smooth="yes"/>
      <point x="356" y="228"/>
      <point x="295.0" y="212.0"/>
      <point x="269.0" y="208.0" type="curve" smooth="yes"/>
      <point x="248.0" y="207.0"/>
      <point x="236.0" y="189.0"/>
      <point x="256.0" y="178.0" type="curve" smooth="yes"/>
      <point x="271.0" y="169.0"/>
      <point x="305.0" y="176.0"/>
    </contour>
    <contour>
      <point x="-33" y="743" type="curve" smooth="yes"/>
      <point x="-41" y="705"/>
      <point x="-36" y="647"/>
      <point x="-39" y="603" type="curve" smooth="yes"/>
      <point x="-47" y="555"/>
      <point x="-63" y="516"/>
      <point x="-57" y="507" type="curve" smooth="yes"/>
      <point x="-45" y="489"/>
      <point x="-34" y="497"/>
      <point x="-14" y="558" type="curve"/>
      <point x="1" y="589"/>
      <point x="43" y="528"/>
      <point x="52" y="528" type="curve" smooth="yes"/>
      <point x="82" y="528"/>
      <point x="71" y="590"/>
      <point x="79" y="609" type="curve" smooth="yes"/>
      <point x="107" y="678"/>
      <point x="219" y="670"/>
      <point x="239" y="670" type="curve" smooth="yes"/>
      <point x="275" y="670"/>
      <point x="261" y="540"/>
      <point x="307" y="540" type="curve" smooth="yes"/>
      <point x="342" y="540"/>
      <point x="349" y="639"/>
      <point x="349" y="699" type="curve" smooth="yes"/>
      <point x="349" y="725"/>
      <point x="410" y="686"/>
      <point x="433" y="693" type="curve" smooth="yes"/>
      <point x="447" y="695"/>
      <point x="459" y="728"/>
      <point x="464" y="724" type="curve" smooth="yes"/>
      <point x="484" y="715"/>
      <point x="473" y="642"/>
      <point x="497" y="639" type="curve" smooth="yes"/>
      <point x="526" y="635"/>
      <point x="530" y="695"/>
      <point x="552" y="725" type="curve"/>
      <point x="579" y="725"/>
      <point x="589" y="711"/>
      <point x="589" y="690" type="curve" smooth="yes"/>
      <point x="589" y="635" type="line" smooth="yes"/>
      <point x="589" y="602"/>
      <point x="629" y="683"/>
      <point x="629" y="735" type="curve" smooth="yes"/>
      <point x="629" y="947"/>
      <point x="556" y="839"/>
      <point x="506" y="826" type="curve" smooth="yes"/>
      <point x="435" y="810"/>
      <point x="351" y="887"/>
      <point x="266" y="887" type="curve" smooth="yes"/>
      <point x="226" y="887"/>
      <point x="182" y="845"/>
      <point x="131" y="819" type="curve" smooth="yes"/>
      <point x="75" y="788"/>
      <point x="-27" y="763"/>
    </contour>
  </outline>
</glyph>
<glyph name="D" format="1">
  <advance width="746"/>
  <unicode hex="0044"/>
  <outline>
    <contour>
      <point x="-9.0" y="770.0" type="curve" smooth="yes"/>
      <point x="-17.0" y="732.0"/>
      <point x="-81.0" y="664.0"/>
      <point x="-84.0" y="620.0" type="curve" smooth="yes"/>
      <point x="-92.0" y="572.0"/>
      <point x="-84.0" y="516.0"/>
      <point x="-78.0" y="507.0" type="curve" smooth="yes"/>
      <point x="-66.0" y="489.0"/>
      <point x="-55.0" y="497.0"/>
      <point x="-35.0" y="558.0" type="curve"/>
      <point x="30.0" y="692.0"/>
      <point x="12.0" y="609.0"/>
      <point x="39.0" y="609.0" type="curve" smooth="yes"/>
      <point x="104.0" y="609.0"/>
      <point x="92.0" y="670.0"/>
      <point x="209.0" y="670.0" type="curve" smooth="yes"/>
      <point x="245.0" y="670.0"/>
      <point x="275.0" y="520.0"/>
      <point x="297.0" y="510.0" type="curve" smooth="yes"/>
      <point x="317.0" y="504.0"/>
      <point x="349.0" y="639.0"/>
      <point x="349.0" y="699.0" type="curve" smooth="yes"/>
      <point x="349.0" y="725.0"/>
      <point x="390.0" y="616.0"/>
      <point x="413.0" y="623.0" type="curve" smooth="yes"/>
      <point x="427.0" y="625.0"/>
      <point x="439.0" y="702.0"/>
      <point x="444.0" y="698.0" type="curve" smooth="yes"/>
      <point x="488.0" y="678.0"/>
      <point x="492.0" y="663.0"/>
      <point x="532.0" y="718.0" type="curve"/>
      <point x="565.0" y="713.0"/>
      <point x="603.0" y="700.0"/>
      <point x="635.0" y="675.0" type="curve" smooth="yes"/>
      <point x="645.0" y="668.0"/>
      <point x="632.0" y="586.0"/>
      <point x="634.0" y="574.0" type="curve" smooth="yes"/>
      <point x="640.0" y="541.0"/>
      <point x="658.0" y="579.0"/>
      <point x="670.0" y="590.0" type="curve" smooth="yes"/>
      <point x="682.0" y="601.0"/>
      <point x="688.0" y="585.0"/>
      <point x="690.0" y="565.0" type="curve" smooth="yes"/>
      <point x="694.0" y="532.0"/>
      <point x="710.0" y="613.0"/>
      <point x="710.0" y="665.0" type="curve" smooth="yes"/>
      <point x="710.0" y="741.0"/>
      <point x="703" y="818"/>
      <point x="670" y="843" type="curve" smooth="yes"/>
      <point x="621" y="880"/>
      <point x="541.0" y="879.0"/>
      <point x="509.0" y="871.0" type="curve" smooth="yes"/>
      <point x="486.0" y="866.0"/>
      <point x="486.0" y="838.0"/>
      <point x="468.0" y="838.0" type="curve" smooth="yes"/>
      <point x="450.0" y="838.0"/>
      <point x="463.0" y="866.0"/>
      <point x="440.0" y="866.0" type="curve" smooth="yes"/>
      <point x="372.0" y="866.0"/>
      <point x="281.0" y="824.0"/>
      <point x="240.0" y="824.0" type="curve" smooth="yes"/>
      <point x="200.0" y="824.0"/>
      <point x="129.0" y="881.0"/>
      <point x="78.0" y="855.0" type="curve" smooth="yes"/>
      <point x="22.0" y="824.0"/>
      <point x="-3.0" y="790.0"/>
    </contour>
    <contour>
      <point x="289" y="182" type="curve" smooth="yes"/>
      <point x="295" y="175"/>
      <point x="307" y="194"/>
      <point x="327" y="194" type="curve" smooth="yes"/>
      <point x="349" y="194"/>
      <point x="356.0" y="158.0"/>
      <point x="373.0" y="157.0" type="curve" smooth="yes"/>
      <point x="391.0" y="156.0"/>
      <point x="385.0" y="198.0"/>
      <point x="407.0" y="198.0" type="curve" smooth="yes"/>
      <point x="430.0" y="198.0"/>
      <point x="437.0" y="173.0"/>
      <point x="457.0" y="138.0" type="curve" smooth="yes"/>
      <point x="474.0" y="109.0"/>
      <point x="502.0" y="168.0"/>
      <point x="506.0" y="221.0" type="curve" smooth="yes"/>
      <point x="511.0" y="347.0"/>
      <point x="390.0" y="308.0"/>
      <point x="363.0" y="290.0" type="curve" smooth="yes"/>
      <point x="327.0" y="266.0"/>
      <point x="326.0" y="324.0"/>
      <point x="301.0" y="304.0" type="curve"/>
      <point x="301" y="249" type="line" smooth="yes"/>
      <point x="301" y="226"/>
      <point x="283" y="189"/>
    </contour>
  </outline>
</glyph>
<glyph name="E" format="2">
  <advance width="654"/>
  <unicode hex="0045"/>
  <outline>
    <contour>
      <point x="-81" y="723" type="curve" smooth="yes"/>
      <point x="-81" y="704"/>
      <point x="-100" y="681"/>
      <point x="-94" y="658" type="curve" smooth="yes"/>
      <point x="-85" y="632"/>
      <point x="-72" y="610"/>
      <point x="-66" y="597" type="curve" smooth="yes"/>
      <point x="-55" y="577"/>
      <point x="41" y="656"/>
      <point x="61" y="656" type="curve" smooth="yes"/>
      <point x="82" y="656"/>
      <point x="89" y="582"/>
      <point x="115" y="582" type="curve" smooth="yes"/>
      <point x="147" y="582"/>
      <point x="148" y="660"/>
      <point x="177" y="672" type="curve" smooth="yes"/>
      <point x="201" y="682"/>
      <point x="271" y="714"/>
      <point x="300" y="711" type="curve" smooth="yes"/>
      <point x="336.885011813" y="711.0"/>
      <point x="384" y="613"/>
      <point x="415" y="613" type="curve" smooth="yes"/>
      <point x="443" y="613"/>
      <point x="447" y="642"/>
      <point x="475" y="689" type="curve" smooth="yes"/>
      <point x="500" y="725"/>
      <point x="512" y="709"/>
      <point x="563" y="725" type="curve"/>
      <point x="595" y="725"/>
      <point x="610" y="711"/>
      <point x="610" y="680" type="curve" smooth="yes"/>
      <point x="610" y="625" type="line" smooth="yes"/>
      <point x="610" y="592"/>
      <point x="656" y="673"/>
      <point x="656" y="725" type="curve" smooth="yes"/>
      <point x="656" y="861"/>
      <point x="596" y="851"/>
      <point x="534" y="839" type="curve"/>
      <point x="507" y="857"/>
      <point x="459" y="882"/>
      <point x="404" y="882" type="curve" smooth="yes"/>
      <point x="334" y="882"/>
      <point x="249" y="800"/>
      <point x="160" y="800" type="curve" smooth="yes"/>
      <point x="140" y="800"/>
      <point x="26" y="839"/>
      <point x="-7" y="815" type="curve" smooth="yes"/>
      <point x="-46" y="790"/>
      <point x="-81" y="741"/>
    </contour>
    <contour>
      <point x="281" y="163" type="curve" smooth="yes"/>
      <point x="281" y="141"/>
      <point x="287" y="118"/>
      <point x="298" y="118" type="curve" smooth="yes"/>
      <point x="317" y="118"/>
      <point x="306" y="164"/>
      <point x="331" y="176" type="curve" smooth="yes"/>
      <point x="348" y="186"/>
      <point x="390" y="194"/>
      <point x="423" y="194" type="curve" smooth="yes"/>
      <point x="450" y="194"/>
      <point x="454" y="163"/>
      <point x="472" y="163" type="curve" smooth="yes"/>
      <point x="489" y="163"/>
      <point x="492" y="135"/>
      <point x="505" y="135" type="curve" smooth="yes"/>
      <point x="522" y="135"/>
      <point x="528" y="194"/>
      <point x="570" y="194" type="curve" smooth="yes"/>
      <point x="600" y="194"/>
      <point x="610" y="188"/>
      <point x="610" y="154" type="curve" smooth="yes"/>
      <point x="610" y="102" type="line"/>
      <point x="632" y="112"/>
      <point x="651" y="150"/>
      <point x="651" y="202" type="curve" smooth="yes"/>
      <point x="651" y="285"/>
      <point x="572" y="240"/>
      <point x="526" y="253" type="curve" smooth="yes"/>
      <point x="504" y="259"/>
      <point x="474" y="245"/>
      <point x="432" y="236" type="curve"/>
      <point x="415" y="249"/>
      <point x="395" y="255"/>
      <point x="361" y="255" type="curve" smooth="yes"/>
      <point x="336" y="255"/>
      <point x="298" y="234"/>
      <point x="298" y="213" type="curve"/>
      <point x="285" y="194"/>
      <point x="281" y="178"/>
    </contour>
    <contour>
      <point x="277" y="424" type="curve" smooth="yes"/>
      <point x="277" y="396"/>
      <point x="293" y="412"/>
      <point x="342" y="436" type="curve" smooth="yes"/>
      <point x="420" y="473"/>
      <point x="377" y="406"/>
      <point x="420" y="406" type="curve" smooth="yes"/>
      <point x="445" y="406"/>
      <point x="479" y="443"/>
      <point x="487" y="459" type="curve"/>
      <point x="518" y="459"/>
      <point x="529" y="444"/>
      <point x="529" y="414" type="curve" smooth="yes"/>
      <point x="529" y="358" type="line" smooth="yes"/>
      <point x="529" y="326"/>
      <point x="566" y="407"/>
      <point x="571" y="459" type="curve" smooth="yes"/>
      <point x="572" y="510"/>
      <point x="551" y="520"/>
      <point x="521" y="520" type="curve" smooth="yes"/>
      <point x="504" y="520"/>
      <point x="453" y="500"/>
      <point x="427" y="492" type="curve" smooth="yes"/>
      <point x="388" y="484"/>
      <point x="340" y="505"/>
      <point x="297" y="482" type="curve" smooth="yes"/>
      <point x="284" y="475"/>
      <point x="277" y="453"/>
    </contour>
  </outline>
</glyph>
<glyph name="F" format="2">
  <advance width="618"/>
  <unicode hex="0046"/>
  <outline>
    <contour>
      <point x="-71.0" y="722.0" type="curve" smooth="yes"/>
      <point x="-71.0" y="703.0"/>
      <point x="-72.0" y="672.0"/>
      <point x="-66.0" y="649.0" type="curve" smooth="yes"/>
      <point x="-57.0" y="623.0"/>
      <point x="-72.0" y="609.0"/>
      <point x="-66.0" y="596.0" type="curve" smooth="yes"/>
      <point x="-55.0" y="576.0"/>
      <point x="41.0" y="655.0"/>
      <point x="61.0" y="655.0" type="curve" smooth="yes"/>
      <point x="82.0" y="655.0"/>
      <point x="106.0" y="690.0"/>
      <point x="115.0" y="690.0" type="curve" smooth="yes"/>
      <point x="128.0" y="690.0"/>
      <point x="144.0" y="668.0"/>
      <point x="145.0" y="647.0" type="curve" smooth="yes"/>
      <point x="146.0" y="630.0"/>
      <point x="160" y="566"/>
      <point x="183" y="566" type="curve" smooth="yes"/>
      <point x="199" y="566"/>
      <point x="199" y="647"/>
      <point x="224" y="685" type="curve" smooth="yes"/>
      <point x="238" y="706"/>
      <point x="271.0" y="720.0"/>
      <point x="282.0" y="719.0" type="curve" smooth="yes"/>
      <point x="295.0" y="719.0"/>
      <point x="334.0" y="708.0"/>
      <point x="366.0" y="708.0" type="curve" smooth="yes"/>
      <point x="394.0" y="707.0"/>
      <point x="415.0" y="716.0"/>
      <point x="427.0" y="716.0" type="curve" smooth="yes"/>
      <point x="450.0" y="716.0"/>
      <point x="446.0" y="658.0"/>
      <point x="467.0" y="658.0" type="curve" smooth="yes"/>
      <point x="490.0" y="658.0"/>
      <point x="502.0" y="669.0"/>
      <point x="545.0" y="724.0" type="curve"/>
      <point x="577.0" y="724.0"/>
      <point x="592.0" y="710.0"/>
      <point x="592.0" y="679.0" type="curve" smooth="yes"/>
      <point x="592.0" y="624.0" type="line" smooth="yes"/>
      <point x="592.0" y="602.0"/>
      <point x="614.0" y="631.0"/>
      <point x="628.0" y="672.0" type="curve" smooth="yes"/>
      <point x="634.0" y="692.0"/>
      <point x="612.0" y="717.0"/>
      <point x="613.0" y="734.0" type="curve" smooth="yes"/>
      <point x="617.0" y="901.0"/>
      <point x="582.0" y="871.0"/>
      <point x="520.0" y="859.0" type="curve" smooth="yes"/>
      <point x="493.0" y="851.0"/>
      <point x="442.0" y="832.0"/>
      <point x="387.0" y="832.0" type="curve" smooth="yes"/>
      <point x="317.0" y="832.0"/>
      <point x="271.0" y="871.0"/>
      <point x="182.0" y="871.0" type="curve" smooth="yes"/>
      <point x="127.0" y="871.0"/>
      <point x="103.0" y="826.0"/>
      <point x="73.0" y="819.0" type="curve" smooth="yes"/>
      <point x="33.0" y="809.0"/>
      <point x="1.0" y="800.0"/>
      <point x="-18.0" y="786.0" type="curve" smooth="yes"/>
      <point x="-57.0" y="761.0"/>
      <point x="-71.0" y="740.0"/>
    </contour>
    <contour>
      <point x="269" y="438"/>
      <point x="266" y="406"/>
      <point x="324" y="421" type="curve" smooth="yes"/>
      <point x="407" y="442"/>
      <point x="367" y="290"/>
      <point x="410" y="290" type="curve" smooth="yes"/>
      <point x="435" y="290"/>
      <point x="461" y="412"/>
      <point x="469" y="428" type="curve"/>
      <point x="500" y="428"/>
      <point x="511" y="413"/>
      <point x="511" y="383" type="curve" smooth="yes"/>
      <point x="511" y="327" type="line" smooth="yes"/>
      <point x="511" y="295"/>
      <point x="538" y="310"/>
      <point x="543" y="362" type="curve" smooth="yes"/>
      <point x="545" y="442"/>
      <point x="480" y="508"/>
      <point x="408" y="486" type="curve" smooth="yes"/>
      <point x="366" y="477"/>
      <point x="348" y="472"/>
      <point x="299" y="451" type="curve" smooth="yes"/>
    </contour>
  </outline>
</glyph>
<glyph name="G" format="2">
  <advance width="708"/>
  <unicode hex="0047"/>
  <outline>
    <contour>
      <point x="-18" y="776"/>
      <point x="-49" y="661"/>
      <point x="-54" y="593" type="curve" smooth="yes"/>
      <point x="-62" y="545"/>
      <point x="-78" y="506"/>
      <point x="-72" y="497" type="curve" smooth="yes"/>
      <point x="-60" y="479"/>
      <point x="-49" y="487"/>
      <point x="-29" y="548" type="curve"/>
      <point x="10" y="628"/>
      <point x="11" y="429"/>
      <point x="59" y="429" type="curve" smooth="yes"/>
      <point x="94" y="429"/>
      <point x="98" y="674"/>
      <point x="157" y="674" type="curve" smooth="yes"/>
      <point x="272" y="674"/>
      <point x="218" y="557"/>
      <point x="271" y="557" type="curve"/>
      <point x="315" y="557"/>
      <point x="318" y="689"/>
      <point x="345" y="689" type="curve" smooth="yes"/>
      <point x="370" y="689"/>
      <point x="388" y="662"/>
      <point x="412" y="662" type="curve" smooth="yes"/>
      <point x="431" y="662"/>
      <point x="455" y="718"/>
      <point x="460" y="714" type="curve" smooth="yes"/>
      <point x="480" y="705"/>
      <point x="469" y="632"/>
      <point x="493" y="629" type="curve" smooth="yes"/>
      <point x="522" y="625"/>
      <point x="526" y="695"/>
      <point x="548" y="725" type="curve"/>
      <point x="581" y="725"/>
      <point x="595" y="711"/>
      <point x="595" y="680" type="curve" smooth="yes"/>
      <point x="595" y="625" type="line" smooth="yes"/>
      <point x="595" y="592"/>
      <point x="635" y="673"/>
      <point x="635" y="725" type="curve" smooth="yes"/>
      <point x="635" y="897"/>
      <point x="552" y="859"/>
      <point x="502" y="846" type="curve" smooth="yes"/>
      <point x="431" y="830"/>
      <point x="347" y="877"/>
      <point x="262" y="877" type="curve" smooth="yes"/>
      <point x="222" y="877"/>
      <point x="184" y="822"/>
      <point x="127" y="809" type="curve" smooth="yes"/>
    </contour>
    <contour>
      <point x="290" y="157"/>
      <point x="298" y="134"/>
      <point x="315" y="133" type="curve" smooth="yes"/>
      <point x="333" y="132"/>
      <point x="357" y="188"/>
      <point x="379" y="188" type="curve" smooth="yes"/>
      <point x="407" y="188"/>
      <point x="396" y="163"/>
      <point x="416" y="128" type="curve" smooth="yes"/>
      <point x="451.270015297" y="67.8335033174"/>
      <point x="446" y="265"/>
      <point x="386" y="265" type="curve" smooth="yes"/>
      <point x="343" y="265"/>
      <point x="315" y="304"/>
      <point x="290" y="284" type="curve"/>
      <point x="290" y="229" type="line"/>
    </contour>
    <contour>
      <point x="423" y="276" type="curve"/>
      <point x="423.0" y="345.0" type="line" smooth="yes"/>
      <point x="423" y="371"/>
      <point x="444.0" y="386.0"/>
      <point x="461.0" y="386.0" type="curve" smooth="yes"/>
      <point x="480.0" y="386.0"/>
      <point x="463.0" y="350.0"/>
      <point x="493.0" y="350.0" type="curve" smooth="yes"/>
      <point x="524.0" y="350.0"/>
      <point x="548.0" y="237.0"/>
      <point x="578.0" y="237.0" type="curve" smooth="yes"/>
      <point x="607.0" y="237.0"/>
      <point x="601.0" y="387.0"/>
      <point x="616.0" y="387.0" type="curve"/>
      <point x="643.0" y="387.0"/>
      <point x="660.0" y="370.0"/>
      <point x="660.0" y="331.0" type="curve"/>
      <point x="660.0" y="314.0" type="line"/>
      <point x="671.0" y="315.0"/>
      <point x="677.0" y="321.0"/>
      <point x="677.0" y="381.0" type="curve" smooth="yes"/>
      <point x="677.0" y="432.0"/>
      <point x="647" y="469"/>
      <point x="611" y="468" type="curve" smooth="yes"/>
      <point x="513" y="464"/>
      <point x="462.0" y="482.0"/>
      <point x="433.0" y="448.0" type="curve" smooth="yes"/>
      <point x="380.0" y="387.0"/>
      <point x="362" y="344"/>
      <point x="371.0" y="312.0" type="curve" smooth="yes"/>
      <point x="374" y="301"/>
      <point x="386" y="279"/>
      <point x="396" y="295" type="curve" smooth="yes"/>
      <point x="409" y="316"/>
      <point x="416" y="276"/>
    </contour>
  </outline>
</glyph>
<glyph name="H" format="1">
  <advance width="759"/>
  <unicode hex="0048"/>
  <outline>
    <contour>
      <point x="-6" y="745" type="curve" smooth="yes"/>
      <point x="-14" y="707"/>
      <point x="-71" y="654"/>
      <point x="-74" y="610" type="curve" smooth="yes"/>
      <point x="-82" y="562"/>
      <point x="-74" y="506"/>
      <point x="-68" y="497" type="curve" smooth="yes"/>
      <point x="-56" y="479"/>
      <point x="-51" y="489"/>
      <point x="-25" y="548" type="curve" smooth="yes"/>
      <point x="35" y="685"/>
      <point x="55" y="599"/>
      <point x="82" y="599" type="curve" smooth="yes"/>
      <point x="101" y="599"/>
      <point x="112" y="705"/>
      <point x="142" y="705" type="curve" smooth="yes"/>
      <point x="173" y="705"/>
      <point x="189" y="575"/>
      <point x="219" y="575" type="curve" smooth="yes"/>
      <point x="248" y="575"/>
      <point x="242" y="725"/>
      <point x="257" y="725" type="curve"/>
      <point x="284" y="725"/>
      <point x="301" y="708"/>
      <point x="301" y="669" type="curve"/>
      <point x="301" y="622" type="line"/>
      <point x="312" y="633"/>
      <point x="318" y="659"/>
      <point x="318" y="719" type="curve" smooth="yes"/>
      <point x="318" y="813"/>
      <point x="288" y="847"/>
      <point x="252" y="846" type="curve" smooth="yes"/>
      <point x="217" y="845"/>
      <point x="186" y="827"/>
      <point x="156" y="828" type="curve" smooth="yes"/>
      <point x="105" y="830"/>
      <point x="62" y="850"/>
      <point x="39" y="833" type="curve" smooth="yes"/>
      <point x="6" y="808"/>
      <point x="1" y="770"/>
    </contour>
    <contour>
      <point x="411.0" y="728.0" type="curve" smooth="yes"/>
      <point x="403.0" y="690.0"/>
      <point x="349" y="663"/>
      <point x="346" y="619" type="curve"/>
      <point x="347" y="599"/>
      <point x="358" y="593"/>
      <point x="381" y="603" type="curve"/>
      <point x="408" y="618"/>
      <point x="408" y="666"/>
      <point x="432" y="666" type="curve" smooth="yes"/>
      <point x="468" y="666"/>
      <point x="462" y="623"/>
      <point x="488" y="623" type="curve"/>
      <point x="512" y="623"/>
      <point x="522.0" y="689.0"/>
      <point x="555.0" y="689.0" type="curve" smooth="yes"/>
      <point x="575.0" y="689.0"/>
      <point x="591.0" y="596.0"/>
      <point x="615.0" y="596.0" type="curve" smooth="yes"/>
      <point x="645.0" y="596.0"/>
      <point x="649.0" y="666.0"/>
      <point x="652.0" y="725.0" type="curve"/>
      <point x="679.0" y="725.0"/>
      <point x="696.0" y="708.0"/>
      <point x="696.0" y="669.0" type="curve"/>
      <point x="696" y="542" type="line"/>
      <point x="716" y="576"/>
      <point x="713.0" y="659.0"/>
      <point x="713.0" y="719.0" type="curve" smooth="yes"/>
      <point x="713.0" y="780.0"/>
      <point x="686.0" y="783.0"/>
      <point x="666.0" y="795.0" type="curve" smooth="yes"/>
      <point x="644.0" y="808.0"/>
      <point x="641.0" y="853.0"/>
      <point x="605.0" y="853.0" type="curve"/>
      <point x="547.0" y="853.0"/>
      <point x="502.0" y="834.0"/>
      <point x="469.0" y="809.0" type="curve" smooth="yes"/>
      <point x="437.0" y="784.0"/>
      <point x="418.0" y="753.0"/>
    </contour>
    <contour>
      <point x="301" y="408"/>
      <point x="308" y="369"/>
      <point x="335" y="369" type="curve" smooth="yes"/>
      <point x="353" y="369"/>
      <point x="375" y="468"/>
      <point x="397" y="468" type="curve" smooth="yes"/>
      <point x="426" y="468"/>
      <point x="410" y="398"/>
      <point x="440" y="398" type="curve" smooth="yes"/>
      <point x="455" y="398"/>
      <point x="464" y="423"/>
      <point x="468" y="459" type="curve" smooth="yes"/>
      <point x="476" y="528"/>
      <point x="454" y="573"/>
      <point x="387" y="555" type="curve" smooth="yes"/>
      <point x="346" y="544"/>
      <point x="326" y="594"/>
      <point x="301" y="574" type="curve"/>
      <point x="301" y="534" type="line" smooth="yes"/>
    </contour>
  </outline>
</glyph>
<glyph name="I" format="1">
  <advance width="605"/>
  <unicode hex="0049"/>
  <outline>
    <contour>
      <point x="-79.0" y="730.0" type="curve" smooth="yes"/>
      <point x="-81.0" y="706.0"/>
      <point x="-81.0" y="702.0"/>
      <point x="-76.0" y="675.0" type="curve" smooth="yes"/>
      <point x="-70.0" y="644.0"/>
      <point x="-84.0" y="543.0"/>
      <point x="-52.0" y="543.0" type="curve" smooth="yes"/>
      <point x="-40.0" y="543.0"/>
      <point x="-24.0" y="608.0"/>
      <point x="-11.0" y="615.0" type="curve" smooth="yes"/>
      <point x="14.0" y="628.0"/>
      <point x="38.0" y="642.0"/>
      <point x="47.0" y="642.0" type="curve" smooth="yes"/>
      <point x="66.0" y="642.0"/>
      <point x="63.0" y="555.0"/>
      <point x="88.0" y="555.0" type="curve" smooth="yes"/>
      <point x="101.0" y="555.0"/>
      <point x="113.0" y="578.0"/>
      <point x="115.0" y="599.0" type="curve" smooth="yes"/>
      <point x="119.0" y="632.0"/>
      <point x="122.0" y="688.0"/>
      <point x="139.0" y="695.0" type="curve" smooth="yes"/>
      <point x="161.0" y="705.0"/>
      <point x="168.0" y="650.0"/>
      <point x="196.0" y="648.0" type="curve" smooth="yes"/>
      <point x="219.0" y="645.0"/>
      <point x="223.0" y="710.0"/>
      <point x="255.0" y="710.0" type="curve" smooth="yes"/>
      <point x="287.0" y="710.0"/>
      <point x="296.0" y="573.0"/>
      <point x="322.0" y="573.0" type="curve" smooth="yes"/>
      <point x="348.0" y="573.0"/>
      <point x="342.0" y="642.0"/>
      <point x="370.0" y="689.0" type="curve" smooth="yes"/>
      <point x="390.0" y="725.0"/>
      <point x="458.0" y="725.0"/>
      <point x="511.0" y="725.0" type="curve"/>
      <point x="548.0" y="727.0"/>
      <point x="556.0" y="711.0"/>
      <point x="556.0" y="680.0" type="curve" smooth="yes"/>
      <point x="556.0" y="625.0" type="line" smooth="yes"/>
      <point x="556.0" y="592.0"/>
      <point x="596" y="673"/>
      <point x="598.0" y="725.0" type="curve" smooth="yes"/>
      <point x="602" y="862"/>
      <point x="539" y="862"/>
      <point x="480" y="857" type="curve" smooth="yes"/>
      <point x="455" y="855"/>
      <point x="425" y="850"/>
      <point x="393" y="850" type="curve" smooth="yes"/>
      <point x="346" y="850"/>
      <point x="264" y="809"/>
      <point x="226" y="814" type="curve" smooth="yes"/>
      <point x="180" y="819"/>
      <point x="139.0" y="859.0"/>
      <point x="101.0" y="859.0" type="curve"/>
      <point x="34.0" y="859.0"/>
      <point x="22.0" y="820.0"/>
      <point x="-7.0" y="797.0" type="curve" smooth="yes"/>
      <point x="-45.0" y="767.0"/>
      <point x="-77.0" y="750.0"/>
    </contour>
    <contour>
      <point x="-40.0" y="205.0" type="curve" smooth="yes"/>
      <point x="-55.0" y="205.0"/>
      <point x="-80" y="168"/>
      <point x="-80.0" y="129.0" type="curve" smooth="yes"/>
      <point x="-80" y="68"/>
      <point x="-65.7478647553" y="48.0"/>
      <point x="-46" y="48" type="curve" smooth="yes"/>
      <point x="-27" y="48"/>
      <point x="-17" y="119"/>
      <point x="-1" y="130" type="curve" smooth="yes"/>
      <point x="25" y="148"/>
      <point x="16" y="109"/>
      <point x="35" y="109" type="curve"/>
      <point x="55" y="109"/>
      <point x="77" y="117"/>
      <point x="86" y="94" type="curve" smooth="yes"/>
      <point x="92" y="75"/>
      <point x="89" y="52"/>
      <point x="102" y="52" type="curve" smooth="yes"/>
      <point x="137" y="52"/>
      <point x="114" y="133"/>
      <point x="125" y="161" type="curve" smooth="yes"/>
      <point x="133" y="190"/>
      <point x="204" y="163"/>
      <point x="204" y="188" type="curve" smooth="yes"/>
      <point x="204" y="216"/>
      <point x="186" y="229"/>
      <point x="184.0" y="255.0" type="curve" smooth="yes"/>
      <point x="181" y="293"/>
      <point x="122.0" y="280.0"/>
      <point x="84.0" y="265.0" type="curve" smooth="yes"/>
      <point x="46.0" y="251.0"/>
      <point x="11.0" y="205.0"/>
    </contour>
    <contour>
      <point x="423" y="196" type="line" smooth="yes"/>
      <point x="423" y="141"/>
      <point x="445" y="133"/>
      <point x="468" y="149" type="curve" smooth="yes"/>
      <point x="485" y="161"/>
      <point x="487" y="196"/>
      <point x="512" y="196" type="curve" smooth="yes"/>
      <point x="540" y="196"/>
      <point x="556" y="181"/>
      <point x="556" y="149" type="curve" smooth="yes"/>
      <point x="556" y="95" type="line" smooth="yes"/>
      <point x="556" y="63"/>
      <point x="596" y="143"/>
      <point x="598" y="196" type="curve" smooth="yes"/>
      <point x="602" y="315"/>
      <point x="548" y="284"/>
      <point x="487" y="267" type="curve" smooth="yes"/>
      <point x="459" y="257"/>
      <point x="423" y="320"/>
      <point x="423" y="286" type="curve" smooth="yes"/>
    </contour>
  </outline>
</glyph>
<glyph name="J" format="2">
  <advance width="688"/>
  <unicode hex="004A"/>
  <outline>
    <contour>
      <point x="344.0" y="728.0" type="curve" smooth="yes"/>
      <point x="336.0" y="690.0"/>
      <point x="269.0" y="654.0"/>
      <point x="269.0" y="610.0" type="curve" smooth="yes"/>
      <point x="269.0" y="581.0"/>
      <point x="270.0" y="557.0"/>
      <point x="275.0" y="557.0" type="curve" smooth="yes"/>
      <point x="347.0" y="557.0"/>
      <point x="348.0" y="813.0"/>
      <point x="410.0" y="539.0" type="curve"/>
      <point x="419.0" y="438.0"/>
      <point x="463.0" y="482.0"/>
      <point x="467.0" y="565.0" type="curve"/>
      <point x="494.0" y="731.0"/>
      <point x="527.0" y="595.0"/>
      <point x="548.0" y="616.0" type="curve" smooth="yes"/>
      <point x="566.0" y="634.0"/>
      <point x="570.0" y="725.0"/>
      <point x="585.0" y="725.0" type="curve"/>
      <point x="612.0" y="725.0"/>
      <point x="629.0" y="718.0"/>
      <point x="629.0" y="679.0" type="curve"/>
      <point x="629.0" y="632.0" type="line"/>
      <point x="649.0" y="626.0"/>
      <point x="646.0" y="659.0"/>
      <point x="646.0" y="719.0" type="curve" smooth="yes"/>
      <point x="646.0" y="813.0"/>
      <point x="622.0" y="847.0"/>
      <point x="586.0" y="842.0" type="curve" smooth="yes"/>
      <point x="552.0" y="837.0"/>
      <point x="496" y="828"/>
      <point x="472" y="830" type="curve"/>
      <point x="444" y="846"/>
      <point x="397.0" y="862.0"/>
      <point x="375.0" y="840.0" type="curve" smooth="yes"/>
      <point x="345.0" y="811.0"/>
      <point x="351.0" y="754.0"/>
    </contour>
    <contour>
      <point x="-22.0" y="395.0" type="curve" smooth="yes"/>
      <point x="-30.0" y="357.0"/>
      <point x="-92.0" y="321.0"/>
      <point x="-97.0" y="277.0" type="curve" smooth="yes"/>
      <point x="-99.0" y="260.0"/>
      <point x="-96.0" y="233.0"/>
      <point x="-91.0" y="224.0" type="curve" smooth="yes"/>
      <point x="-85.0" y="214.0"/>
      <point x="-67" y="257"/>
      <point x="-45" y="266" type="curve" smooth="yes"/>
      <point x="-21" y="277"/>
      <point x="8.0" y="255.0"/>
      <point x="30.0" y="289.0" type="curve"/>
      <point x="81.0" y="349.0"/>
      <point x="66.0" y="236.0"/>
      <point x="89.0" y="236.0" type="curve" smooth="yes"/>
      <point x="112.0" y="236.0"/>
      <point x="116.0" y="319.0"/>
      <point x="113.0" y="392.0" type="curve"/>
      <point x="219.0" y="392.0" type="line"/>
      <point x="246.0" y="392.0"/>
      <point x="263.0" y="385.0"/>
      <point x="263.0" y="346.0" type="curve"/>
      <point x="263.0" y="329.0" type="line"/>
      <point x="283.0" y="343.0"/>
      <point x="278.0" y="355.0"/>
      <point x="278.0" y="385.0" type="curve" smooth="yes"/>
      <point x="278.0" y="407.0"/>
      <point x="279.0" y="426.0"/>
      <point x="276.0" y="441.0" type="curve" smooth="yes"/>
      <point x="266.0" y="494.0"/>
      <point x="222.0" y="534.0"/>
      <point x="155.0" y="515.0" type="curve" smooth="yes"/>
      <point x="133.0" y="509.0"/>
      <point x="115.0" y="496.0"/>
      <point x="99.0" y="491.0" type="curve" smooth="yes"/>
      <point x="65.0" y="480.0"/>
      <point x="42.0" y="489.0"/>
      <point x="19.0" y="486.0" type="curve" smooth="yes"/>
      <point x="-22.0" y="481.0"/>
      <point x="-15.0" y="421.0"/>
    </contour>
    <contour>
      <point x="245" y="165"/>
      <point x="269" y="108"/>
      <point x="291" y="108" type="curve" smooth="yes"/>
      <point x="306" y="108"/>
      <point x="324" y="190"/>
      <point x="342" y="190" type="curve" smooth="yes"/>
      <point x="366" y="190"/>
      <point x="353" y="132"/>
      <point x="377" y="132" type="curve" smooth="yes"/>
      <point x="390" y="132"/>
      <point x="397" y="153"/>
      <point x="400" y="182" type="curve" smooth="yes"/>
      <point x="407" y="239"/>
      <point x="389" y="277"/>
      <point x="334" y="262" type="curve" smooth="yes"/>
      <point x="300" y="253"/>
      <point x="284" y="294"/>
      <point x="263" y="277" type="curve"/>
    </contour>
  </outline>
</glyph>
<glyph name="K" format="2">
  <advance width="746"/>
  <unicode hex="004B"/>
  <outline>
    <contour>
      <point x="-6.0" y="745.0" type="curve" smooth="yes"/>
      <point x="-14.0" y="707.0"/>
      <point x="-71.0" y="654.0"/>
      <point x="-74.0" y="610.0" type="curve" smooth="yes"/>
      <point x="-82.0" y="562.0"/>
      <point x="-74.0" y="506.0"/>
      <point x="-68.0" y="497.0" type="curve" smooth="yes"/>
      <point x="-56.0" y="479.0"/>
      <point x="-51.0" y="489.0"/>
      <point x="-25.0" y="548.0" type="curve" smooth="yes"/>
      <point x="5.0" y="617.0"/>
      <point x="17.0" y="656.0"/>
      <point x="50.0" y="656.0" type="curve" smooth="yes"/>
      <point x="75.0" y="656.0"/>
      <point x="66" y="519"/>
      <point x="102" y="519" type="curve" smooth="yes"/>
      <point x="121" y="519"/>
      <point x="111" y="558"/>
      <point x="113" y="613" type="curve" smooth="yes"/>
      <point x="115" y="660"/>
      <point x="129.0" y="705.0"/>
      <point x="147.0" y="705.0" type="curve" smooth="yes"/>
      <point x="194.0" y="705.0"/>
      <point x="199.0" y="625.0"/>
      <point x="219.0" y="625.0" type="curve" smooth="yes"/>
      <point x="239.0" y="625.0"/>
      <point x="242.0" y="725.0"/>
      <point x="257.0" y="725.0" type="curve"/>
      <point x="284.0" y="725.0"/>
      <point x="301.0" y="708.0"/>
      <point x="301.0" y="669.0" type="curve"/>
      <point x="301.0" y="652.0" type="line"/>
      <point x="312.0" y="653.0"/>
      <point x="318.0" y="659.0"/>
      <point x="318.0" y="719.0" type="curve" smooth="yes"/>
      <point x="318.0" y="748.0"/>
      <point x="321.0" y="771.0"/>
      <point x="319.0" y="789.0" type="curve" smooth="yes"/>
      <point x="314.0" y="830.0"/>
      <point x="297.0" y="847.0"/>
      <point x="272.0" y="846.0" type="curve" smooth="yes"/>
      <point x="232.0" y="844.0"/>
      <point x="207.0" y="818.0"/>
      <point x="173.0" y="817.0" type="curve" smooth="yes"/>
      <point x="123.0" y="816.0"/>
      <point x="70.0" y="839.0"/>
      <point x="49.0" y="823.0" type="curve" smooth="yes"/>
      <point x="16.0" y="798.0"/>
      <point x="1.0" y="770.0"/>
    </contour>
    <contour>
      <point x="391.0" y="745.0" type="curve" smooth="yes"/>
      <point x="388.0" y="730.0"/>
      <point x="389.0" y="708.0"/>
      <point x="383.0" y="689.0" type="curve" smooth="yes"/>
      <point x="373.0" y="656.0"/>
      <point x="345.0" y="656.0"/>
      <point x="343.0" y="630.0" type="curve" smooth="yes"/>
      <point x="335.0" y="582.0"/>
      <point x="356.0" y="535.0"/>
      <point x="362.0" y="526.0" type="curve"/>
      <point x="372.0" y="548.0" type="line" smooth="yes"/>
      <point x="434.0" y="684.0"/>
      <point x="452" y="589"/>
      <point x="479" y="589" type="curve" smooth="yes"/>
      <point x="491" y="589"/>
      <point x="489" y="639"/>
      <point x="501" y="670" type="curve" smooth="yes"/>
      <point x="509" y="689"/>
      <point x="527.0" y="705.0"/>
      <point x="539.0" y="705.0" type="curve" smooth="yes"/>
      <point x="570.0" y="705.0"/>
      <point x="576" y="615"/>
      <point x="606" y="615" type="curve" smooth="yes"/>
      <point x="617" y="615"/>
      <point x="615.0" y="647.0"/>
      <point x="623.0" y="663.0" type="curve" smooth="yes"/>
      <point x="636.0" y="689.0"/>
      <point x="645.0" y="725.0"/>
      <point x="654.0" y="725.0" type="curve"/>
      <point x="664.0" y="725.0"/>
      <point x="663.0" y="712.0"/>
      <point x="675.0" y="703.0" type="curve" smooth="yes"/>
      <point x="686.0" y="695.0"/>
      <point x="689.0" y="713.0"/>
      <point x="689.0" y="764.0" type="curve"/>
      <point x="689.0" y="817.0"/>
      <point x="685.0" y="837.0"/>
      <point x="649.0" y="836.0" type="curve" smooth="yes"/>
      <point x="619.0" y="835.0"/>
      <point x="588.0" y="827.0"/>
      <point x="562.0" y="828.0" type="curve" smooth="yes"/>
      <point x="504.0" y="830.0"/>
      <point x="461.0" y="852.0"/>
      <point x="436.0" y="833.0" type="curve" smooth="yes"/>
      <point x="403.0" y="808.0"/>
      <point x="398.0" y="770.0"/>
    </contour>
    <contour>
      <point x="571" y="459" type="curve"/>
      <point x="581" y="364"/>
      <point x="566" y="282"/>
      <point x="602" y="272" type="curve"/>
      <point x="615" y="278"/>
      <point x="608" y="380"/>
      <point x="629" y="380" type="curve"/>
      <point x="642" y="381"/>
      <point x="673" y="385"/>
      <point x="672" y="398" type="curve" smooth="yes"/>
      <point x="667" y="458"/>
      <point x="599" y="478"/>
    </contour>
    <contour>
      <point x="308.0" y="462.0" type="curve" smooth="yes"/>
      <point x="344.0" y="453.0"/>
      <point x="334" y="336"/>
      <point x="347" y="336" type="curve"/>
      <point x="369.704292442" y="336.0"/>
      <point x="353" y="387"/>
      <point x="376.0" y="406.0" type="curve" smooth="yes"/>
      <point x="405" y="430"/>
      <point x="377.0" y="490.0"/>
      <point x="375.0" y="500.0" type="curve" smooth="yes"/>
      <point x="368.0" y="543.0"/>
      <point x="326.0" y="575.0"/>
      <point x="301.0" y="563.0" type="curve"/>
      <point x="301.0" y="500.0" type="line"/>
      <point x="273.0" y="468.0"/>
      <point x="279.0" y="446.0"/>
      <point x="300.0" y="459.0" type="curve"/>
      <point x="308.0" y="464.0"/>
      <point x="304.0" y="463.0"/>
    </contour>
  </outline>
</glyph>
<glyph name="L" format="1">
  <advance width="695"/>
  <unicode hex="004C"/>
  <outline>
    <contour>
      <point x="-36.0" y="745.0" type="curve" smooth="yes"/>
      <point x="-39.0" y="706.0"/>
      <point x="-71.0" y="654.0"/>
      <point x="-74.0" y="610.0" type="curve" smooth="yes"/>
      <point x="-82.0" y="562.0"/>
      <point x="-74.0" y="506.0"/>
      <point x="-68.0" y="497.0" type="curve" smooth="yes"/>
      <point x="-56.0" y="479.0"/>
      <point x="-45.0" y="487.0"/>
      <point x="-25.0" y="548.0" type="curve"/>
      <point x="40.0" y="682.0"/>
      <point x="42.0" y="591.0"/>
      <point x="69.0" y="591.0" type="curve" smooth="yes"/>
      <point x="134.0" y="591.0"/>
      <point x="48.0" y="685.0"/>
      <point x="165.0" y="685.0" type="curve" smooth="yes"/>
      <point x="186.0" y="685.0"/>
      <point x="202" y="676"/>
      <point x="207" y="652" type="curve" smooth="yes"/>
      <point x="212" y="630"/>
      <point x="206.0" y="592.0"/>
      <point x="220.0" y="600.0" type="curve" smooth="yes"/>
      <point x="249.0" y="617.0"/>
      <point x="233.0" y="725.0"/>
      <point x="257.0" y="725.0" type="curve" smooth="yes"/>
      <point x="300.0" y="725.0"/>
      <point x="301.0" y="708.0"/>
      <point x="301.0" y="669.0" type="curve" smooth="yes"/>
      <point x="301.0" y="648.0"/>
      <point x="304.0" y="643.0"/>
      <point x="307.0" y="642.0" type="curve" smooth="yes"/>
      <point x="327.0" y="636.0"/>
      <point x="338.0" y="669.0"/>
      <point x="338.0" y="729.0" type="curve" smooth="yes"/>
      <point x="338.0" y="823.0"/>
      <point x="295.0" y="846.0"/>
      <point x="259.0" y="846.0" type="curve" smooth="yes"/>
      <point x="216.0" y="846.0"/>
      <point x="200.0" y="820.0"/>
      <point x="176.0" y="818.0" type="curve" smooth="yes"/>
      <point x="149.0" y="815.0"/>
      <point x="115.0" y="837.0"/>
      <point x="88.0" y="842.0" type="curve" smooth="yes"/>
      <point x="25.0" y="854.0"/>
      <point x="-29.0" y="836.0"/>
    </contour>
    <contour>
      <point x="421" y="271"/>
      <point x="404" y="282"/>
      <point x="375" y="281" type="curve" smooth="yes"/>
      <point x="347" y="280"/>
      <point x="318.0" y="276.0"/>
      <point x="301.0" y="263.0" type="curve"/>
      <point x="301.0" y="194.0" type="line"/>
      <point x="317.0" y="194.0" type="line" smooth="yes"/>
      <point x="329.0" y="194.0"/>
      <point x="344.0" y="147.0"/>
      <point x="359.0" y="147.0" type="curve" smooth="yes"/>
      <point x="376.0" y="147.0"/>
      <point x="369" y="179"/>
      <point x="384" y="179" type="curve" smooth="yes"/>
      <point x="410" y="179"/>
      <point x="402" y="116"/>
      <point x="418" y="116" type="curve" smooth="yes"/>
      <point x="438" y="116"/>
      <point x="439" y="213"/>
      <point x="428" y="248" type="curve" smooth="yes"/>
    </contour>
    <contour>
      <point x="428.0" y="347.0" type="curve" smooth="yes"/>
      <point x="428.0" y="379.0"/>
      <point x="443.0" y="392.0"/>
      <point x="459.0" y="392.0" type="curve"/>
      <point x="482.0" y="392.0"/>
      <point x="493" y="363"/>
      <point x="495" y="336" type="curve" smooth="yes"/>
      <point x="496" y="312"/>
      <point x="487.0" y="291.0"/>
      <point x="503.0" y="290.0" type="curve" smooth="yes"/>
      <point x="536.0" y="287.0"/>
      <point x="538.0" y="366.0"/>
      <point x="552.0" y="372.0" type="curve" smooth="yes"/>
      <point x="567.0" y="377.0"/>
      <point x="571.0" y="330.0"/>
      <point x="596.0" y="330.0" type="curve" smooth="yes"/>
      <point x="623.0" y="330.0"/>
      <point x="653.0" y="356.0"/>
      <point x="658.0" y="368.0" type="curve" smooth="yes"/>
      <point x="670.0" y="396.0"/>
      <point x="654.0" y="407.0"/>
      <point x="651.0" y="432.0" type="curve" smooth="yes"/>
      <point x="646.0" y="466.0"/>
      <point x="666.0" y="480.0"/>
      <point x="635.0" y="494.0" type="curve" smooth="yes"/>
      <point x="612.0" y="504.0"/>
      <point x="582.0" y="494.0"/>
      <point x="543.0" y="493.0" type="curve" smooth="yes"/>
      <point x="513.0" y="492.0"/>
      <point x="472.0" y="508.0"/>
      <point x="445.0" y="485.0" type="curve" smooth="yes"/>
      <point x="432.0" y="474.0"/>
      <point x="418.0" y="458.0"/>
      <point x="408.0" y="443.0" type="curve" smooth="yes"/>
      <point x="386.0" y="410.0"/>
      <point x="373.0" y="357.0"/>
      <point x="373.0" y="334.0" type="curve" smooth="yes"/>
      <point x="373.0" y="317.0"/>
      <point x="386.0" y="311.0"/>
      <point x="400.0" y="313.0" type="curve" smooth="yes"/>
      <point x="414.0" y="316.0"/>
      <point x="428.0" y="328.0"/>
    </contour>
  </outline>
</glyph>
<glyph name="M" format="2">
  <advance width="849"/>
  <unicode hex="004D"/>
  <outline>
    <contour>
      <point x="479.0" y="364.0"/>
      <point x="495.0" y="538.0"/>
      <point x="502.0" y="637.0" type="curve"/>
      <point x="526.0" y="677.0"/>
      <point x="525.0" y="686.0"/>
      <point x="534.0" y="686.0" type="curve" smooth="yes"/>
      <point x="557.0" y="686.0"/>
      <point x="563.0" y="627.0"/>
      <point x="574.0" y="577.0" type="curve" smooth="yes"/>
      <point x="582.0" y="541.0"/>
      <point x="572" y="510"/>
      <point x="593" y="510" type="curve" smooth="yes"/>
      <point x="614" y="510"/>
      <point x="624" y="573"/>
      <point x="632" y="630" type="curve" smooth="yes"/>
      <point x="639" y="676"/>
      <point x="679.0" y="725.0"/>
      <point x="711.0" y="725.0" type="curve" smooth="yes"/>
      <point x="770.0" y="725.0"/>
      <point x="785.0" y="718.0"/>
      <point x="785.0" y="678.0" type="curve"/>
      <point x="784.0" y="575.0" type="line"/>
      <point x="799.0" y="575.0"/>
      <point x="822.0" y="677.0"/>
      <point x="822.0" y="705.0" type="curve" smooth="yes"/>
      <point x="822.0" y="800.0"/>
      <point x="822.0" y="830.0"/>
      <point x="727.0" y="849.0" type="curve" smooth="yes"/>
      <point x="656.0" y="863.0"/>
      <point x="625.0" y="829.0"/>
      <point x="576.0" y="829.0" type="curve"/>
      <point x="530.0" y="829.0"/>
      <point x="489.0" y="770.0"/>
      <point x="456.0" y="707.0" type="curve" smooth="yes"/>
      <point x="403.0" y="605.0" type="line" smooth="yes"/>
      <point x="387.0" y="574.0"/>
      <point x="380.0" y="556.0"/>
      <point x="380.0" y="539.0" type="curve" smooth="yes"/>
      <point x="378.0" y="451.0"/>
      <point x="388.0" y="426.0"/>
      <point x="401.0" y="426.0" type="curve" smooth="yes"/>
      <point x="415.0" y="426.0"/>
      <point x="407.0" y="465.0"/>
      <point x="419.0" y="465.0" type="curve" smooth="yes"/>
      <point x="440.0" y="465.0"/>
      <point x="424.0" y="364.0"/>
      <point x="450.0" y="364.0" type="curve" smooth="yes"/>
    </contour>
    <contour>
      <point x="-74.0" y="620.0" type="curve" smooth="yes"/>
      <point x="-82.0" y="572.0"/>
      <point x="-74.0" y="516.0"/>
      <point x="-68.0" y="507.0" type="curve" smooth="yes"/>
      <point x="-56.0" y="489.0"/>
      <point x="-36.0" y="495.0"/>
      <point x="-25.0" y="558.0" type="curve" smooth="yes"/>
      <point x="-1.0" y="691.0"/>
      <point x="12.0" y="609.0"/>
      <point x="39.0" y="609.0" type="curve" smooth="yes"/>
      <point x="67.0" y="609.0"/>
      <point x="73.0" y="708.0"/>
      <point x="140.0" y="706.0" type="curve" smooth="yes"/>
      <point x="159.0" y="705.0"/>
      <point x="182" y="648"/>
      <point x="189" y="602" type="curve" smooth="yes"/>
      <point x="196" y="556"/>
      <point x="187.0" y="522.0"/>
      <point x="208.0" y="523.0" type="curve" smooth="yes"/>
      <point x="225.0" y="524.0"/>
      <point x="225.0" y="578.0"/>
      <point x="228.0" y="630.0" type="curve" smooth="yes"/>
      <point x="231.0" y="678.0"/>
      <point x="237.0" y="725.0"/>
      <point x="260.0" y="725.0" type="curve"/>
      <point x="288.0" y="726.0"/>
      <point x="309.0" y="703.0"/>
      <point x="324.0" y="677.0" type="curve" smooth="yes"/>
      <point x="368.0" y="599.0" type="line"/>
      <point x="369.0" y="642.0"/>
      <point x="369.0" y="758.0"/>
      <point x="337.0" y="819.0" type="curve" smooth="yes"/>
      <point x="326.0" y="841.0"/>
      <point x="271.0" y="810.0"/>
      <point x="221.0" y="813.0" type="curve" smooth="yes"/>
      <point x="177.0" y="815.0"/>
      <point x="139.0" y="851.0"/>
      <point x="99.0" y="839.0" type="curve" smooth="yes"/>
      <point x="33.0" y="820.0"/>
      <point x="46.0" y="802.0"/>
      <point x="13.0" y="786.0" type="curve" smooth="yes"/>
      <point x="-13.0" y="774.0"/>
      <point x="-46.0" y="764.0"/>
      <point x="-71.0" y="730.0" type="curve" smooth="yes"/>
      <point x="-89.0" y="705.0"/>
      <point x="-73.0" y="639.0"/>
    </contour>
  </outline>
</glyph>
<glyph name="N" format="2">
  <advance width="753"/>
  <unicode hex="004E"/>
  <outline>
    <contour>
      <point x="-9.0" y="770.0" type="curve" smooth="yes"/>
      <point x="-17.0" y="732.0"/>
      <point x="-71.0" y="664.0"/>
      <point x="-74.0" y="620.0" type="curve" smooth="yes"/>
      <point x="-82.0" y="572.0"/>
      <point x="-74.0" y="516.0"/>
      <point x="-68.0" y="507.0" type="curve" smooth="yes"/>
      <point x="-56.0" y="489.0"/>
      <point x="-36.0" y="495.0"/>
      <point x="-25.0" y="558.0" type="curve" smooth="yes"/>
      <point x="-1.0" y="691.0"/>
      <point x="12.0" y="609.0"/>
      <point x="39.0" y="609.0" type="curve" smooth="yes"/>
      <point x="67.0" y="609.0"/>
      <point x="130.0" y="653.0"/>
      <point x="180.0" y="706.0" type="curve" smooth="yes"/>
      <point x="185.0" y="711.0"/>
      <point x="205.0" y="564.0"/>
      <point x="237.0" y="566.0" type="curve" smooth="yes"/>
      <point x="253.0" y="567.0"/>
      <point x="240" y="587"/>
      <point x="241" y="616" type="curve" smooth="yes"/>
      <point x="243" y="646"/>
      <point x="260.0" y="686.0"/>
      <point x="284.0" y="686.0" type="curve"/>
      <point x="339.0" y="622.0" type="line"/>
      <point x="340.0" y="661.0"/>
      <point x="342.0" y="828.0"/>
      <point x="272.0" y="828.0" type="curve" smooth="yes"/>
      <point x="218.0" y="828.0"/>
      <point x="177.0" y="875.0"/>
      <point x="78.0" y="845.0" type="curve" smooth="yes"/>
      <point x="17.0" y="827.0"/>
      <point x="-3.0" y="790.0"/>
    </contour>
    <contour>
      <point x="457.0" y="631.0" type="curve" smooth="yes"/>
      <point x="485.0" y="631.0"/>
      <point x="490.0" y="686.0"/>
      <point x="508.0" y="698.0" type="curve" smooth="yes"/>
      <point x="514.0" y="702.0"/>
      <point x="532.0" y="715.0"/>
      <point x="544.0" y="704.0" type="curve" smooth="yes"/>
      <point x="554.0" y="695.0"/>
      <point x="543.0" y="662.0"/>
      <point x="558.0" y="662.0" type="curve" smooth="yes"/>
      <point x="573.0" y="662.0"/>
      <point x="564.0" y="690.0"/>
      <point x="572.0" y="700.0" type="curve" smooth="yes"/>
      <point x="580.0" y="709.0"/>
      <point x="588.0" y="718.0"/>
      <point x="597.0" y="718.0" type="curve"/>
      <point x="614.0" y="718.0"/>
      <point x="629" y="701"/>
      <point x="634" y="685" type="curve" smooth="yes"/>
      <point x="639" y="672"/>
      <point x="634.0" y="658.0"/>
      <point x="646.0" y="658.0" type="curve" smooth="yes"/>
      <point x="665.0" y="658.0"/>
      <point x="676.0" y="697.0"/>
      <point x="689.0" y="685.0" type="curve"/>
      <point x="689.0" y="604.0" type="line"/>
      <point x="716.0" y="608.0"/>
      <point x="724.0" y="649.0"/>
      <point x="721.0" y="685.0" type="curve"/>
      <point x="721.0" y="780.0"/>
      <point x="731.0" y="842.0"/>
      <point x="636.0" y="861.0" type="curve" smooth="yes"/>
      <point x="565.0" y="875.0"/>
      <point x="541.0" y="809.0"/>
      <point x="475.0" y="809.0" type="curve" smooth="yes"/>
      <point x="424.0" y="809.0"/>
      <point x="393.0" y="739.0"/>
      <point x="406.0" y="665.0" type="curve" smooth="yes"/>
      <point x="410.0" y="640.0"/>
      <point x="442.0" y="631.0"/>
    </contour>
    <contour>
      <point x="399" y="354" type="curve" smooth="yes"/>
      <point x="410" y="354"/>
      <point x="401" y="390"/>
      <point x="401" y="423" type="curve" smooth="yes"/>
      <point x="402" y="449"/>
      <point x="410" y="469"/>
      <point x="415" y="474" type="curve" smooth="yes"/>
      <point x="419" y="478"/>
      <point x="432" y="488"/>
      <point x="437" y="479" type="curve" smooth="yes"/>
      <point x="446" y="465"/>
      <point x="448" y="426"/>
      <point x="458" y="426" type="curve" smooth="yes"/>
      <point x="468" y="426"/>
      <point x="479" y="451"/>
      <point x="458" y="539" type="curve" smooth="yes"/>
      <point x="448" y="580"/>
      <point x="391" y="619"/>
      <point x="343" y="616" type="curve"/>
      <point x="350" y="588"/>
      <point x="366" y="490"/>
      <point x="368" y="461" type="curve" smooth="yes"/>
      <point x="373" y="401"/>
      <point x="380" y="354"/>
    </contour>
  </outline>
</glyph>
<glyph name="O" format="1">
  <advance width="737"/>
  <unicode hex="004F"/>
  <outline>
    <contour>
      <point x="-40.0" y="603.0" type="curve" smooth="yes"/>
      <point x="-48.0" y="555.0"/>
      <point x="-64.0" y="516.0"/>
      <point x="-58.0" y="507.0" type="curve" smooth="yes"/>
      <point x="-46.0" y="489.0"/>
      <point x="-35.0" y="497.0"/>
      <point x="-15.0" y="558.0" type="curve"/>
      <point x="0.0" y="589.0"/>
      <point x="53.0" y="528.0"/>
      <point x="62.0" y="528.0" type="curve" smooth="yes"/>
      <point x="92.0" y="528.0"/>
      <point x="81.0" y="590.0"/>
      <point x="89.0" y="609.0" type="curve" smooth="yes"/>
      <point x="117.0" y="678.0"/>
      <point x="113" y="460"/>
      <point x="139.0" y="460.0" type="curve" smooth="yes"/>
      <point x="165" y="460"/>
      <point x="165.0" y="622.0"/>
      <point x="204.0" y="622.0" type="curve" smooth="yes"/>
      <point x="235.0" y="622.0"/>
      <point x="263.0" y="695.0"/>
      <point x="286.0" y="695.0" type="curve" smooth="yes"/>
      <point x="315.0" y="695.0"/>
      <point x="324" y="594"/>
      <point x="336" y="594" type="curve" smooth="yes"/>
      <point x="348" y="594"/>
      <point x="369" y="629"/>
      <point x="369" y="689" type="curve" smooth="yes"/>
      <point x="369" y="711"/>
      <point x="391" y="724"/>
      <point x="401" y="724" type="curve" smooth="yes"/>
      <point x="417" y="724"/>
      <point x="424.0" y="687.0"/>
      <point x="447.0" y="687.0" type="curve" smooth="yes"/>
      <point x="462.0" y="686.0"/>
      <point x="491.0" y="709.0"/>
      <point x="506.0" y="729.0" type="curve"/>
      <point x="610.0" y="712.0"/>
      <point x="675.0" y="658.0"/>
      <point x="682.0" y="565.0" type="curve" smooth="yes"/>
      <point x="684.0" y="532.0"/>
      <point x="719.0" y="613.0"/>
      <point x="719.0" y="665.0" type="curve" smooth="yes"/>
      <point x="719.0" y="837.0"/>
      <point x="646.0" y="819.0"/>
      <point x="596.0" y="816.0" type="curve" smooth="yes"/>
      <point x="567.0" y="814.0"/>
      <point x="568.0" y="833.0"/>
      <point x="520.0" y="858.0" type="curve" smooth="yes"/>
      <point x="477.0" y="881.0"/>
      <point x="404.0" y="854.0"/>
      <point x="350.0" y="853.0" type="curve" smooth="yes"/>
      <point x="312.0" y="851.0"/>
      <point x="288.0" y="877.0"/>
      <point x="266.0" y="877.0" type="curve" smooth="yes"/>
      <point x="226.0" y="877.0"/>
      <point x="182.0" y="845.0"/>
      <point x="131.0" y="819.0" type="curve" smooth="yes"/>
      <point x="101.0" y="802.0"/>
      <point x="67.0" y="808.0"/>
      <point x="47.0" y="793.0" type="curve" smooth="yes"/>
      <point x="-40.0" y="729.0"/>
      <point x="-36.0" y="658.0"/>
    </contour>
    <contour>
      <point x="351" y="176" type="curve" smooth="yes"/>
      <point x="375" y="176"/>
      <point x="365" y="62"/>
      <point x="393" y="62" type="curve" smooth="yes"/>
      <point x="421" y="62"/>
      <point x="439.585786438" y="171.686291501"/>
      <point x="448" y="239" type="curve"/>
      <point x="453" y="325"/>
      <point x="426" y="289"/>
      <point x="403" y="285" type="curve" smooth="yes"/>
      <point x="380" y="281"/>
      <point x="378" y="312"/>
      <point x="356" y="312" type="curve" smooth="yes"/>
      <point x="320" y="312"/>
      <point x="290" y="296"/>
      <point x="290" y="247" type="curve" smooth="yes"/>
      <point x="290" y="196"/>
      <point x="320" y="176"/>
    </contour>
  </outline>
</glyph>
<glyph name="P" format="2">
  <advance width="682"/>
  <unicode hex="0050"/>
  <outline>
    <contour>
      <point x="-71.0" y="620.0" type="curve" smooth="yes"/>
      <point x="-79.0" y="572.0"/>
      <point x="-71.0" y="516.0"/>
      <point x="-65.0" y="507.0" type="curve" smooth="yes"/>
      <point x="-55.0" y="491.0"/>
      <point x="-15.0" y="514.0"/>
      <point x="-9.0" y="592.0" type="curve" smooth="yes"/>
      <point x="-7.0" y="614.0"/>
      <point x="41.0" y="660.0"/>
      <point x="58.0" y="682.0" type="curve"/>
      <point x="94.0" y="682.0"/>
      <point x="142.0" y="507.0"/>
      <point x="169.0" y="507.0" type="curve" smooth="yes"/>
      <point x="196.0" y="507.0"/>
      <point x="174.0" y="560.0"/>
      <point x="190.0" y="615.0" type="curve" smooth="yes"/>
      <point x="202.0" y="652.0"/>
      <point x="248.0" y="699.0"/>
      <point x="284.0" y="699.0" type="curve" smooth="yes"/>
      <point x="309.0" y="699.0"/>
      <point x="319.0" y="613.0"/>
      <point x="343.0" y="613.0" type="curve" smooth="yes"/>
      <point x="363.0" y="613.0"/>
      <point x="357.0" y="647.0"/>
      <point x="365.0" y="672.0" type="curve" smooth="yes"/>
      <point x="369.0" y="687.0"/>
      <point x="395" y="698"/>
      <point x="404" y="698" type="curve" smooth="yes"/>
      <point x="416" y="698"/>
      <point x="423" y="684"/>
      <point x="426" y="668" type="curve" smooth="yes"/>
      <point x="432" y="644"/>
      <point x="422.0" y="614.0"/>
      <point x="438.0" y="615.0" type="curve" smooth="yes"/>
      <point x="465.0" y="617.0"/>
      <point x="466.0" y="696.0"/>
      <point x="482.0" y="718.0" type="curve"/>
      <point x="590.0" y="713.0"/>
      <point x="642.0" y="636.0"/>
      <point x="649.0" y="565.0" type="curve" smooth="yes"/>
      <point x="653.0" y="532.0"/>
      <point x="660.0" y="613.0"/>
      <point x="660.0" y="665.0" type="curve" smooth="yes"/>
      <point x="660.0" y="727.0"/>
      <point x="650.0" y="796.0"/>
      <point x="610.0" y="827.0" type="curve" smooth="yes"/>
      <point x="570.0" y="858.0"/>
      <point x="540.0" y="805.0"/>
      <point x="496.0" y="809.0" type="curve" smooth="yes"/>
      <point x="455.0" y="814.0"/>
      <point x="422.0" y="860.0"/>
      <point x="376.0" y="856.0" type="curve" smooth="yes"/>
      <point x="346.0" y="853.0"/>
      <point x="211.0" y="831.0"/>
      <point x="178.0" y="841.0" type="curve" smooth="yes"/>
      <point x="83.0" y="870.0"/>
      <point x="20.0" y="795.0"/>
      <point x="-36.0" y="742.0" type="curve" smooth="yes"/>
      <point x="-88.0" y="692.0"/>
      <point x="-67.0" y="673.0"/>
    </contour>
    <contour>
      <point x="299" y="387" type="line"/>
      <point x="325" y="387" type="line"/>
      <point x="362" y="389"/>
      <point x="371" y="331"/>
      <point x="384" y="331" type="curve"/>
      <point x="398" y="331"/>
      <point x="401" y="370"/>
      <point x="405" y="370" type="curve" smooth="yes"/>
      <point x="416" y="370"/>
      <point x="413" y="316"/>
      <point x="421" y="316" type="curve" smooth="yes"/>
      <point x="427" y="316"/>
      <point x="435" y="346"/>
      <point x="435" y="399" type="curve"/>
      <point x="436" y="461"/>
      <point x="362" y="476"/>
      <point x="299" y="437" type="curve"/>
    </contour>
  </outline>
</glyph>
<glyph name="Q" format="1">
  <advance width="737"/>
  <unicode hex="0051"/>
  <outline>
    <contour>
      <point x="-40" y="603" type="curve" smooth="yes"/>
      <point x="-48" y="555"/>
      <point x="-64" y="516"/>
      <point x="-58" y="507" type="curve" smooth="yes"/>
      <point x="-46" y="489"/>
      <point x="-35" y="497"/>
      <point x="-15" y="558" type="curve"/>
      <point x="0" y="589"/>
      <point x="53" y="528"/>
      <point x="62" y="528" type="curve" smooth="yes"/>
      <point x="92" y="528"/>
      <point x="81" y="590"/>
      <point x="89" y="609" type="curve" smooth="yes"/>
      <point x="108" y="656"/>
      <point x="133" y="694"/>
      <point x="156" y="691" type="curve" smooth="yes"/>
      <point x="181" y="688"/>
      <point x="205" y="642"/>
      <point x="236" y="639" type="curve" smooth="yes"/>
      <point x="269" y="636"/>
      <point x="285" y="689"/>
      <point x="325" y="689" type="curve" smooth="yes"/>
      <point x="339" y="689"/>
      <point x="372" y="726"/>
      <point x="390" y="713" type="curve" smooth="yes"/>
      <point x="398" y="706"/>
      <point x="413" y="672"/>
      <point x="422" y="643" type="curve" smooth="yes"/>
      <point x="432" y="607"/>
      <point x="429" y="577"/>
      <point x="444" y="577" type="curve" smooth="yes"/>
      <point x="471" y="577"/>
      <point x="489" y="687"/>
      <point x="506" y="729" type="curve"/>
      <point x="539" y="724"/>
      <point x="568" y="715"/>
      <point x="592" y="702" type="curve" smooth="yes"/>
      <point x="602" y="697"/>
      <point x="587" y="601"/>
      <point x="607" y="601" type="curve" smooth="yes"/>
      <point x="627" y="601"/>
      <point x="634" y="673"/>
      <point x="640" y="666" type="curve" smooth="yes"/>
      <point x="664" y="640"/>
      <point x="679" y="606"/>
      <point x="682" y="565" type="curve" smooth="yes"/>
      <point x="684" y="532"/>
      <point x="699" y="613"/>
      <point x="699" y="665" type="curve" smooth="yes"/>
      <point x="699" y="750"/>
      <point x="705" y="838"/>
      <point x="638" y="857" type="curve" smooth="yes"/>
      <point x="592" y="870"/>
      <point x="519" y="850"/>
      <point x="468" y="842" type="curve"/>
      <point x="411" y="879"/>
      <point x="296" y="887"/>
      <point x="266" y="887" type="curve" smooth="yes"/>
      <point x="220" y="887"/>
      <point x="199" y="858"/>
      <point x="145" y="830" type="curve" smooth="yes"/>
      <point x="111" y="813"/>
      <point x="39" y="801"/>
      <point x="19" y="781" type="curve" smooth="yes"/>
      <point x="-47" y="718"/>
      <point x="-36" y="652"/>
    </contour>
    <contour>
      <point x="321" y="184" type="curve" smooth="yes"/>
      <point x="345" y="184"/>
      <point x="356" y="130"/>
      <point x="373" y="130" type="curve" smooth="yes"/>
      <point x="398" y="130"/>
      <point x="400" y="174"/>
      <point x="411" y="178" type="curve" smooth="yes"/>
      <point x="421" y="182"/>
      <point x="429" y="114"/>
      <point x="437" y="114" type="curve" smooth="yes"/>
      <point x="454" y="114"/>
      <point x="458" y="207"/>
      <point x="458" y="237" type="curve" smooth="yes"/>
      <point x="458" y="318"/>
      <point x="436" y="277"/>
      <point x="413" y="273" type="curve" smooth="yes"/>
      <point x="390" y="269"/>
      <point x="378" y="300"/>
      <point x="344" y="300" type="curve"/>
      <point x="320" y="300"/>
      <point x="290" y="286"/>
      <point x="290" y="245" type="curve" smooth="yes"/>
      <point x="290" y="201"/>
      <point x="290" y="184"/>
    </contour>
  </outline>
</glyph>
<glyph name="R" format="1">
  <advance width="743"/>
  <unicode hex="0052"/>
  <outline>
    <contour>
      <point x="299.0" y="417.0" type="line"/>
      <point x="325.0" y="417.0" type="line"/>
      <point x="362.0" y="419.0"/>
      <point x="371.0" y="361.0"/>
      <point x="384.0" y="361.0" type="curve"/>
      <point x="398.0" y="361.0"/>
      <point x="413.0" y="378.0"/>
      <point x="415.0" y="429.0" type="curve"/>
      <point x="416.0" y="472.0"/>
      <point x="411" y="479"/>
      <point x="382" y="477" type="curve" smooth="yes"/>
      <point x="372" y="476"/>
      <point x="347" y="482"/>
      <point x="335" y="482" type="curve" smooth="yes"/>
      <point x="324" y="482"/>
      <point x="309" y="472"/>
      <point x="299.0" y="457.0" type="curve"/>
    </contour>
    <contour>
      <point x="600" y="395" type="curve"/>
      <point x="610" y="300"/>
      <point x="595" y="268"/>
      <point x="631" y="258" type="curve"/>
      <point x="644" y="264"/>
      <point x="637" y="336"/>
      <point x="658" y="336" type="curve" smooth="yes"/>
      <point x="665" y="336"/>
      <point x="656" y="280"/>
      <point x="674" y="270" type="curve"/>
      <point x="691" y="271"/>
      <point x="692" y="321"/>
      <point x="691" y="334" type="curve" smooth="yes"/>
      <point x="686" y="394"/>
      <point x="608" y="412"/>
    </contour>
    <contour>
      <point x="-71.0" y="620.0" type="curve" smooth="yes"/>
      <point x="-79.0" y="572.0"/>
      <point x="-71.0" y="516.0"/>
      <point x="-65.0" y="507.0" type="curve" smooth="yes"/>
      <point x="-58.0" y="496.0"/>
      <point x="-63.0" y="498.0"/>
      <point x="-36.0" y="544.0" type="curve" smooth="yes"/>
      <point x="-27.0" y="560.0"/>
      <point x="11.0" y="474.0"/>
      <point x="34.0" y="497.0" type="curve" smooth="yes"/>
      <point x="61.0" y="524.0"/>
      <point x="38.0" y="653.0"/>
      <point x="58.0" y="682.0" type="curve" smooth="yes"/>
      <point x="68.0" y="696.0"/>
      <point x="78.0" y="705.0"/>
      <point x="89.0" y="705.0" type="curve" smooth="yes"/>
      <point x="110.0" y="705.0"/>
      <point x="130.0" y="654.0"/>
      <point x="214.0" y="699.0" type="curve" smooth="yes"/>
      <point x="238.0" y="712.0"/>
      <point x="249.0" y="563.0"/>
      <point x="273.0" y="563.0" type="curve" smooth="yes"/>
      <point x="282.0" y="563.0"/>
      <point x="294" y="573"/>
      <point x="300" y="599" type="curve" smooth="yes"/>
      <point x="306" y="627"/>
      <point x="307.0" y="671.0"/>
      <point x="321.0" y="685.0" type="curve" smooth="yes"/>
      <point x="343.0" y="707.0"/>
      <point x="360.0" y="664.0"/>
      <point x="394.0" y="698.0" type="curve" smooth="yes"/>
      <point x="415.0" y="719.0"/>
      <point x="411.0" y="613.0"/>
      <point x="438.0" y="615.0" type="curve" smooth="yes"/>
      <point x="465.0" y="617.0"/>
      <point x="466.0" y="701.0"/>
      <point x="482.0" y="723.0" type="curve"/>
      <point x="556.0" y="716.0"/>
      <point x="600.0" y="686.0"/>
      <point x="622.0" y="639.0" type="curve" smooth="yes"/>
      <point x="633.0" y="617.0"/>
      <point x="639.0" y="617.0"/>
      <point x="638.0" y="641.0" type="curve" smooth="yes"/>
      <point x="637.0" y="671.0"/>
      <point x="636.0" y="703.0"/>
      <point x="634.0" y="729.0" type="curve" smooth="yes"/>
      <point x="632.0" y="758.0"/>
      <point x="622.0" y="805.0"/>
      <point x="602.0" y="821.0" type="curve" smooth="yes"/>
      <point x="563.0" y="850.0"/>
      <point x="500.0" y="852.0"/>
      <point x="457.0" y="856.0" type="curve" smooth="yes"/>
      <point x="433.0" y="859.0"/>
      <point x="393.0" y="852.0"/>
      <point x="373.0" y="824.0" type="curve"/>
      <point x="340.0" y="833.0"/>
      <point x="307.0" y="854.0"/>
      <point x="268.0" y="852.0" type="curve" smooth="yes"/>
      <point x="215.0" y="848.0"/>
      <point x="157.0" y="846.0"/>
      <point x="97.0" y="849.0" type="curve" smooth="yes"/>
      <point x="49.0" y="852.0"/>
      <point x="33.0" y="791.0"/>
      <point x="5.0" y="752.0" type="curve" smooth="yes"/>
      <point x="-29.0" y="703.0"/>
      <point x="-68.0" y="669.0"/>
    </contour>
  </outline>
</glyph>
<glyph name="S" format="2">
  <advance width="650"/>
  <unicode hex="0053"/>
  <outline>
    <contour>
      <point x="-88" y="50" type="curve" smooth="yes"/>
      <point x="-86" y="43"/>
      <point x="-70" y="72"/>
      <point x="-61.0" y="72.0" type="curve" smooth="yes"/>
      <point x="-52" y="72"/>
      <point x="-48" y="23"/>
      <point x="-37" y="23" type="curve" smooth="yes"/>
      <point x="-12" y="23"/>
      <point x="-21" y="61"/>
      <point x="-6" y="85" type="curve" smooth="yes"/>
      <point x="25.8282398121" y="138.047066353"/>
      <point x="82.1950529679" y="155.0"/>
      <point x="103" y="155" type="curve" smooth="yes"/>
      <point x="129" y="155"/>
      <point x="115.0" y="30.0"/>
      <point x="144.0" y="30.0" type="curve" smooth="yes"/>
      <point x="175.0" y="30.0"/>
      <point x="163.0" y="126.0"/>
      <point x="181.0" y="168.0" type="curve" smooth="yes"/>
      <point x="185.0" y="178.0"/>
      <point x="211.0" y="144.0"/>
      <point x="221.0" y="144.0" type="curve" smooth="yes"/>
      <point x="240.0" y="144.0"/>
      <point x="228.0" y="194.0"/>
      <point x="261.0" y="194.0" type="curve"/>
      <point x="325.0" y="194.0" type="line" smooth="yes"/>
      <point x="354.0" y="194.0"/>
      <point x="343.0" y="103.0"/>
      <point x="357.0" y="103.0" type="curve" smooth="yes"/>
      <point x="372.0" y="103.0"/>
      <point x="377.0" y="164.0"/>
      <point x="377.0" y="193.0" type="curve"/>
      <point x="377.0" y="223.0"/>
      <point x="354.0" y="239.0"/>
      <point x="305.0" y="236.0" type="curve" smooth="yes"/>
      <point x="288.0" y="235.0"/>
      <point x="225" y="231"/>
      <point x="206" y="231" type="curve" smooth="yes"/>
      <point x="188" y="231"/>
      <point x="162" y="256"/>
      <point x="110" y="256" type="curve" smooth="yes"/>
      <point x="80" y="256"/>
      <point x="51" y="241"/>
      <point x="26" y="216" type="curve" smooth="yes"/>
      <point x="2" y="192"/>
      <point x="0.0" y="182.0"/>
      <point x="-14.0" y="162.0" type="curve" smooth="yes"/>
      <point x="-30.0" y="139.0"/>
      <point x="-66" y="147"/>
      <point x="-81" y="131" type="curve" smooth="yes"/>
      <point x="-95" y="117"/>
      <point x="-92" y="66"/>
    </contour>
    <contour>
      <point x="-43.0" y="743.0" type="curve" smooth="yes"/>
      <point x="-51.0" y="705.0"/>
      <point x="-37.0" y="647.0"/>
      <point x="-40.0" y="603.0" type="curve" smooth="yes"/>
      <point x="-48.0" y="555.0"/>
      <point x="-64.0" y="516.0"/>
      <point x="-58.0" y="507.0" type="curve" smooth="yes"/>
      <point x="-46.0" y="489.0"/>
      <point x="-35.0" y="497.0"/>
      <point x="-15.0" y="558.0" type="curve"/>
      <point x="0.0" y="589.0"/>
      <point x="43.0" y="528.0"/>
      <point x="52.0" y="528.0" type="curve" smooth="yes"/>
      <point x="82.0" y="528.0"/>
      <point x="71.0" y="590.0"/>
      <point x="79.0" y="609.0" type="curve" smooth="yes"/>
      <point x="107.0" y="678.0"/>
      <point x="165.0" y="710.0"/>
      <point x="269.0" y="710.0" type="curve" smooth="yes"/>
      <point x="305.0" y="710.0"/>
      <point x="303.0" y="620.0"/>
      <point x="327.0" y="620.0" type="curve" smooth="yes"/>
      <point x="358.0" y="620.0"/>
      <point x="373.0" y="709.0"/>
      <point x="409.0" y="709.0" type="curve"/>
      <point x="445.0" y="709.0"/>
      <point x="463" y="668"/>
      <point x="468" y="630" type="curve" smooth="yes"/>
      <point x="473" y="597"/>
      <point x="465.0" y="566.0"/>
      <point x="480.0" y="566.0" type="curve"/>
      <point x="513.0" y="566.0"/>
      <point x="525.0" y="627.0"/>
      <point x="532.0" y="725.0" type="curve"/>
      <point x="569.0" y="727.0"/>
      <point x="579.0" y="711.0"/>
      <point x="579.0" y="690.0" type="curve" smooth="yes"/>
      <point x="579.0" y="635.0" type="line" smooth="yes"/>
      <point x="579.0" y="602.0"/>
      <point x="619.0" y="683.0"/>
      <point x="619.0" y="735.0" type="curve" smooth="yes"/>
      <point x="619.0" y="877.0"/>
      <point x="546.0" y="859.0"/>
      <point x="496.0" y="846.0" type="curve" smooth="yes"/>
      <point x="425.0" y="830.0"/>
      <point x="341.0" y="867.0"/>
      <point x="256.0" y="867.0" type="curve" smooth="yes"/>
      <point x="216.0" y="867.0"/>
      <point x="152.0" y="845.0"/>
      <point x="101.0" y="819.0" type="curve" smooth="yes"/>
      <point x="45.0" y="788.0"/>
      <point x="-37.0" y="763.0"/>
    </contour>
  </outline>
</glyph>
<glyph name="T" format="2">
  <advance width="656"/>
  <unicode hex="0054"/>
  <outline>
    <contour>
      <point x="-64" y="774"/>
      <point x="-116" y="684"/>
      <point x="-110" y="638" type="curve"/>
      <point x="-104" y="591"/>
      <point x="-133" y="517"/>
      <point x="-98" y="517" type="curve" smooth="yes"/>
      <point x="-29" y="517"/>
      <point x="-19" y="611"/>
      <point x="-2" y="629" type="curve"/>
      <point x="39" y="671"/>
      <point x="28" y="584"/>
      <point x="63" y="584" type="curve"/>
      <point x="98" y="584"/>
      <point x="75" y="725"/>
      <point x="115" y="725" type="curve"/>
      <point x="258" y="725" type="line"/>
      <point x="302" y="725"/>
      <point x="287" y="583"/>
      <point x="331" y="583" type="curve"/>
      <point x="350" y="583"/>
      <point x="340" y="614"/>
      <point x="354" y="640" type="curve"/>
      <point x="364" y="661"/>
      <point x="386" y="679"/>
      <point x="405" y="679" type="curve"/>
      <point x="457" y="679"/>
      <point x="476" y="483"/>
      <point x="498" y="483" type="curve"/>
      <point x="540" y="483"/>
      <point x="527" y="554"/>
      <point x="558" y="599" type="curve"/>
      <point x="584" y="636"/>
      <point x="533" y="725"/>
      <point x="586" y="725" type="curve"/>
      <point x="618" y="725"/>
      <point x="633" y="711"/>
      <point x="633" y="680" type="curve"/>
      <point x="633" y="625" type="line"/>
      <point x="633" y="592"/>
      <point x="677" y="673"/>
      <point x="679" y="725" type="curve"/>
      <point x="683" y="856"/>
      <point x="638" y="855"/>
      <point x="557" y="840" type="curve"/>
      <point x="529" y="835"/>
      <point x="482" y="862"/>
      <point x="427" y="862" type="curve"/>
      <point x="357" y="862"/>
      <point x="272" y="830"/>
      <point x="183" y="830" type="curve"/>
      <point x="163" y="830"/>
      <point x="49" y="849"/>
      <point x="16" y="825" type="curve"/>
    </contour>
  </outline>
</glyph>
<glyph name="U" format="2">
  <advance width="746"/>
  <unicode hex="0055"/>
  <outline>
    <contour>
      <point x="-9.0" y="745.0" type="curve" smooth="yes"/>
      <point x="-17.0" y="707.0"/>
      <point x="-74.0" y="654.0"/>
      <point x="-77.0" y="610.0" type="curve" smooth="yes"/>
      <point x="-85.0" y="562.0"/>
      <point x="-77.0" y="506.0"/>
      <point x="-71.0" y="497.0" type="curve" smooth="yes"/>
      <point x="-59.0" y="479.0"/>
      <point x="-54.0" y="489.0"/>
      <point x="-28.0" y="548.0" type="curve" smooth="yes"/>
      <point x="-12.0" y="584.0"/>
      <point x="-9" y="604"/>
      <point x="2" y="615" type="curve" smooth="yes"/>
      <point x="33" y="646"/>
      <point x="59.0" y="599.0"/>
      <point x="79.0" y="599.0" type="curve" smooth="yes"/>
      <point x="98.0" y="599.0"/>
      <point x="117.0" y="610.0"/>
      <point x="136.0" y="625.0" type="curve" smooth="yes"/>
      <point x="148.0" y="635.0"/>
      <point x="153.0" y="587.0"/>
      <point x="170.0" y="587.0" type="curve" smooth="yes"/>
      <point x="189.0" y="587.0"/>
      <point x="194.0" y="683.0"/>
      <point x="205.0" y="694.0" type="curve" smooth="yes"/>
      <point x="223.0" y="712.0"/>
      <point x="239.0" y="725.0"/>
      <point x="254.0" y="725.0" type="curve"/>
      <point x="281.0" y="725.0"/>
      <point x="298.0" y="708.0"/>
      <point x="298.0" y="669.0" type="curve"/>
      <point x="298.0" y="642.0" type="line"/>
      <point x="318.0" y="636.0"/>
      <point x="315.0" y="659.0"/>
      <point x="315.0" y="719.0" type="curve" smooth="yes"/>
      <point x="315.0" y="813.0"/>
      <point x="284.0" y="828.0"/>
      <point x="249.0" y="836.0" type="curve" smooth="yes"/>
      <point x="214.0" y="844.0"/>
      <point x="188.0" y="835.0"/>
      <point x="162.0" y="836.0" type="curve" smooth="yes"/>
      <point x="132.0" y="837.0"/>
      <point x="104.0" y="858.0"/>
      <point x="84.0" y="852.0" type="curve" smooth="yes"/>
      <point x="17.0" y="832.0"/>
      <point x="1.0" y="779.0"/>
    </contour>
    <contour>
      <point x="300" y="140" type="curve"/>
      <point x="317" y="139"/>
      <point x="328" y="191"/>
      <point x="332" y="177" type="curve" smooth="yes"/>
      <point x="337" y="157"/>
      <point x="333" y="71"/>
      <point x="362" y="69" type="curve" smooth="yes"/>
      <point x="380" y="68"/>
      <point x="372" y="188"/>
      <point x="394" y="188" type="curve" smooth="yes"/>
      <point x="417" y="188"/>
      <point x="424.0" y="163.0"/>
      <point x="444.0" y="128.0" type="curve" smooth="yes"/>
      <point x="461.0" y="99.0"/>
      <point x="468.0" y="176.0"/>
      <point x="474.0" y="229.0" type="curve" smooth="yes"/>
      <point x="479.0" y="275.0"/>
      <point x="447.0" y="290.0"/>
      <point x="384.0" y="275.0" type="curve" smooth="yes"/>
      <point x="342.0" y="266.0"/>
      <point x="323.0" y="314.0"/>
      <point x="298.0" y="294.0" type="curve"/>
      <point x="298.0" y="254.0" type="line" smooth="yes"/>
      <point x="298.0" y="200.0"/>
      <point x="269" y="140"/>
    </contour>
    <contour>
      <point x="402.0" y="728.0" type="curve" smooth="yes"/>
      <point x="394.0" y="690.0"/>
      <point x="336.0" y="653.0"/>
      <point x="327.0" y="610.0" type="curve" smooth="yes"/>
      <point x="324.0" y="595.0"/>
      <point x="334.0" y="570.0"/>
      <point x="348.0" y="566.0" type="curve" smooth="yes"/>
      <point x="358.0" y="564.0"/>
      <point x="358" y="570"/>
      <point x="369" y="593" type="curve"/>
      <point x="392" y="643"/>
      <point x="447.0" y="678.0"/>
      <point x="477.0" y="599.0" type="curve" smooth="yes"/>
      <point x="492.0" y="559.0"/>
      <point x="524.0" y="603.0"/>
      <point x="534.0" y="625.0" type="curve" smooth="yes"/>
      <point x="561.0" y="681.0"/>
      <point x="585.0" y="545.0"/>
      <point x="606.0" y="566.0" type="curve" smooth="yes"/>
      <point x="624.0" y="584.0"/>
      <point x="628.0" y="725.0"/>
      <point x="643.0" y="725.0" type="curve"/>
      <point x="670.0" y="725.0"/>
      <point x="671.0" y="641.0"/>
      <point x="686.0" y="641.0" type="curve" smooth="yes"/>
      <point x="701.0" y="641.0"/>
      <point x="704.0" y="681.0"/>
      <point x="704.0" y="719.0" type="curve" smooth="yes"/>
      <point x="704.0" y="813.0"/>
      <point x="674.0" y="861.0"/>
      <point x="639.0" y="853.0" type="curve" smooth="yes"/>
      <point x="516.0" y="826.0"/>
      <point x="467.0" y="856.0"/>
      <point x="437.0" y="826.0" type="curve" smooth="yes"/>
      <point x="407.0" y="797.0"/>
      <point x="409.0" y="754.0"/>
    </contour>
  </outline>
</glyph>
<glyph name="V" format="2">
  <advance width="730"/>
  <unicode hex="0056"/>
  <anchor x="365.0" y="747.0" name="top"/>
  <anchor x="365.0" y="0.0" name="bottom"/>
  <outline>
    <contour>
      <point x="-14.0" y="745.0" type="curve" smooth="yes"/>
      <point x="-22.0" y="707.0"/>
      <point x="-79.0" y="654.0"/>
      <point x="-82.0" y="610.0" type="curve" smooth="yes"/>
      <point x="-90.0" y="562.0"/>
      <point x="-82.0" y="506.0"/>
      <point x="-76.0" y="497.0" type="curve" smooth="yes"/>
      <point x="-64.0" y="479.0"/>
      <point x="-59.0" y="489.0"/>
      <point x="-33.0" y="548.0" type="curve" smooth="yes"/>
      <point x="-8.0" y="606.0"/>
      <point x="10.0" y="624.0"/>
      <point x="25.0" y="625.0" type="curve" smooth="yes"/>
      <point x="45.0" y="628.0"/>
      <point x="58.0" y="519.0"/>
      <point x="74.0" y="519.0" type="curve" smooth="yes"/>
      <point x="104.0" y="519.0"/>
      <point x="98.0" y="591.0"/>
      <point x="104.0" y="646.0" type="curve" smooth="yes"/>
      <point x="108.0" y="679.0"/>
      <point x="123.0" y="705.0"/>
      <point x="134.0" y="705.0" type="curve" smooth="yes"/>
      <point x="149.0" y="705.0"/>
      <point x="168" y="697"/>
      <point x="176" y="679" type="curve" smooth="yes"/>
      <point x="186" y="658"/>
      <point x="185.0" y="625.0"/>
      <point x="201.0" y="625.0" type="curve" smooth="yes"/>
      <point x="230.0" y="625.0"/>
      <point x="234.0" y="725.0"/>
      <point x="249.0" y="725.0" type="curve"/>
      <point x="276.0" y="725.0"/>
      <point x="293.0" y="708.0"/>
      <point x="293.0" y="669.0" type="curve"/>
      <point x="293.0" y="652.0" type="line"/>
      <point x="304.0" y="653.0"/>
      <point x="310.0" y="659.0"/>
      <point x="310.0" y="719.0" type="curve" smooth="yes"/>
      <point x="310.0" y="813.0"/>
      <point x="280.0" y="847.0"/>
      <point x="244.0" y="846.0" type="curve" smooth="yes"/>
      <point x="216.0" y="845.0"/>
      <point x="189.0" y="828.0"/>
      <point x="164.0" y="827.0" type="curve" smooth="yes"/>
      <point x="104.0" y="827.0"/>
      <point x="57.0" y="842.0"/>
      <point x="31.0" y="823.0" type="curve" smooth="yes"/>
      <point x="-2.0" y="798.0"/>
      <point x="-7.0" y="770.0"/>
    </contour>
    <contour>
      <point x="396.0" y="728.0" type="curve" smooth="yes"/>
      <point x="392.0" y="709.0"/>
      <point x="361.0" y="697.0"/>
      <point x="339.0" y="679.0" type="curve" smooth="yes"/>
      <point x="317.0" y="660.0"/>
      <point x="303.0" y="634.0"/>
      <point x="306.0" y="613.0" type="curve" smooth="yes"/>
      <point x="307.0" y="605.0"/>
      <point x="305.0" y="580.0"/>
      <point x="308.0" y="576.0" type="curve" smooth="yes"/>
      <point x="314.0" y="568.0"/>
      <point x="336.0" y="587.0"/>
      <point x="349.0" y="596.0" type="curve" smooth="yes"/>
      <point x="357.0" y="602.0"/>
      <point x="365" y="545"/>
      <point x="378.0" y="545.0" type="curve" smooth="yes"/>
      <point x="397" y="545"/>
      <point x="394.0" y="615.0"/>
      <point x="403.0" y="641.0" type="curve" smooth="yes"/>
      <point x="405.0" y="648.0"/>
      <point x="430" y="643"/>
      <point x="444" y="650" type="curve" smooth="yes"/>
      <point x="471" y="662"/>
      <point x="496.0" y="680.0"/>
      <point x="503.0" y="661.0" type="curve" smooth="yes"/>
      <point x="513.0" y="632.0"/>
      <point x="509.0" y="585.0"/>
      <point x="527.0" y="585.0" type="curve"/>
      <point x="544.0" y="585.0"/>
      <point x="555.0" y="606.0"/>
      <point x="565.0" y="632.0" type="curve" smooth="yes"/>
      <point x="569.0" y="641.0"/>
      <point x="580.0" y="634.0"/>
      <point x="583.0" y="643.0" type="curve" smooth="yes"/>
      <point x="586.0" y="651.0"/>
      <point x="581.0" y="676.0"/>
      <point x="585.0" y="684.0" type="curve" smooth="yes"/>
      <point x="595.0" y="707.0"/>
      <point x="610.0" y="725.0"/>
      <point x="637.0" y="725.0" type="curve" smooth="yes"/>
      <point x="664.0" y="725.0"/>
      <point x="681.0" y="718.0"/>
      <point x="681.0" y="679.0" type="curve"/>
      <point x="681.0" y="642.0" type="line"/>
      <point x="701.0" y="636.0"/>
      <point x="700.0" y="659.0"/>
      <point x="700.0" y="719.0" type="curve" smooth="yes"/>
      <point x="700.0" y="813.0"/>
      <point x="684.0" y="845.0"/>
      <point x="605.0" y="845.0" type="curve"/>
      <point x="581.0" y="845.0"/>
      <point x="554.0" y="824.0"/>
      <point x="525.0" y="820.0" type="curve" smooth="yes"/>
      <point x="498.0" y="816.0"/>
      <point x="470.0" y="829.0"/>
      <point x="455.0" y="820.0" type="curve" smooth="yes"/>
      <point x="412.0" y="794.0"/>
      <point x="404.0" y="758.0"/>
    </contour>
    <contour>
      <point x="348.0" y="227.0" type="line"/>
      <point x="351" y="193"/>
      <point x="348" y="147"/>
      <point x="366" y="147" type="curve"/>
      <point x="380" y="147"/>
      <point x="383" y="206"/>
      <point x="387" y="206" type="curve" smooth="yes"/>
      <point x="398" y="206"/>
      <point x="395" y="112"/>
      <point x="413" y="112" type="curve" smooth="yes"/>
      <point x="431" y="112"/>
      <point x="446" y="171"/>
      <point x="446" y="274" type="curve" smooth="yes"/>
      <point x="446" y="316"/>
      <point x="428" y="342"/>
      <point x="392" y="335" type="curve"/>
      <point x="383" y="351"/>
      <point x="337" y="369"/>
      <point x="302" y="364" type="curve"/>
    </contour>
  </outline>
</glyph>
<glyph name="W" format="1">
  <advance width="831"/>
  <unicode hex="0057"/>
  <outline>
    <contour>
      <point x="-16" y="745" type="curve" smooth="yes"/>
      <point x="-24" y="707"/>
      <point x="-81" y="654"/>
      <point x="-84" y="610" type="curve" smooth="yes"/>
      <point x="-92" y="562"/>
      <point x="-84" y="506"/>
      <point x="-78" y="497" type="curve" smooth="yes"/>
      <point x="-66" y="479"/>
      <point x="-61" y="489"/>
      <point x="-35" y="548" type="curve" smooth="yes"/>
      <point x="-10" y="606"/>
      <point x="8" y="624"/>
      <point x="23" y="625" type="curve" smooth="yes"/>
      <point x="43" y="628"/>
      <point x="56" y="519"/>
      <point x="72" y="519" type="curve" smooth="yes"/>
      <point x="91" y="519"/>
      <point x="102" y="655"/>
      <point x="132" y="655" type="curve" smooth="yes"/>
      <point x="193" y="655"/>
      <point x="216.482758621" y="725.0"/>
      <point x="247" y="725" type="curve"/>
      <point x="274" y="725"/>
      <point x="291" y="708"/>
      <point x="291" y="669" type="curve"/>
      <point x="291" y="652" type="line"/>
      <point x="302" y="653"/>
      <point x="308" y="659"/>
      <point x="308" y="719" type="curve" smooth="yes"/>
      <point x="308" y="813"/>
      <point x="278" y="847"/>
      <point x="242" y="846" type="curve" smooth="yes"/>
      <point x="214" y="845"/>
      <point x="177" y="828"/>
      <point x="128" y="827" type="curve"/>
      <point x="92" y="827"/>
      <point x="55" y="832"/>
      <point x="29" y="813" type="curve" smooth="yes"/>
      <point x="-4" y="788"/>
      <point x="-9" y="770"/>
    </contour>
    <contour>
      <point x="491.0" y="728.0" type="curve" smooth="yes"/>
      <point x="483.0" y="690.0"/>
      <point x="417.0" y="652.0"/>
      <point x="416.0" y="610.0" type="curve" smooth="yes"/>
      <point x="415.0" y="557.0"/>
      <point x="542.0" y="726.0"/>
      <point x="557.0" y="684.0" type="curve" smooth="yes"/>
      <point x="562.0" y="671.0"/>
      <point x="576.0" y="669.0"/>
      <point x="580.0" y="658.0" type="curve" smooth="yes"/>
      <point x="594.0" y="619.0"/>
      <point x="587.0" y="585.0"/>
      <point x="604.0" y="585.0" type="curve" smooth="yes"/>
      <point x="626.0" y="585.0"/>
      <point x="627.0" y="678.0"/>
      <point x="648.0" y="678.0" type="curve" smooth="yes"/>
      <point x="657.0" y="678.0"/>
      <point x="662.0" y="663.0"/>
      <point x="668.0" y="646.0" type="curve" smooth="yes"/>
      <point x="674.0" y="627.0"/>
      <point x="671" y="606"/>
      <point x="685" y="606" type="curve" smooth="yes"/>
      <point x="710" y="606"/>
      <point x="717.0" y="725.0"/>
      <point x="732.0" y="725.0" type="curve"/>
      <point x="759.0" y="725.0"/>
      <point x="776.0" y="708.0"/>
      <point x="776.0" y="669.0" type="curve"/>
      <point x="776.0" y="642.0" type="line"/>
      <point x="796.0" y="636.0"/>
      <point x="795.0" y="659.0"/>
      <point x="795.0" y="719.0" type="curve" smooth="yes"/>
      <point x="795.0" y="750.0"/>
      <point x="802.0" y="775.0"/>
      <point x="797.0" y="793.0" type="curve" smooth="yes"/>
      <point x="786.0" y="831.0"/>
      <point x="753.0" y="845.0"/>
      <point x="700.0" y="845.0" type="curve"/>
      <point x="653.0" y="845.0"/>
      <point x="580.0" y="858.0"/>
      <point x="550.0" y="840.0" type="curve" smooth="yes"/>
      <point x="507.0" y="814.0"/>
      <point x="499.0" y="758.0"/>
    </contour>
    <contour>
      <point x="533.0" y="506.0" type="curve" smooth="yes"/>
      <point x="571.0" y="461.0"/>
      <point x="567.0" y="347.0"/>
      <point x="546.0" y="308.0" type="curve" smooth="yes"/>
      <point x="536" y="290"/>
      <point x="536" y="272"/>
      <point x="526" y="272" type="curve" smooth="yes"/>
      <point x="517" y="272"/>
      <point x="518.0" y="302.0"/>
      <point x="516.0" y="322.0" type="curve" smooth="yes"/>
      <point x="514.0" y="338.0"/>
      <point x="511.0" y="356.0"/>
      <point x="504.0" y="366.0" type="curve" smooth="yes"/>
      <point x="495.0" y="380.0"/>
      <point x="474.0" y="373.0"/>
      <point x="463.0" y="361.0" type="curve" smooth="yes"/>
      <point x="449.0" y="345.0"/>
      <point x="455.0" y="309.0"/>
      <point x="436.0" y="309.0" type="curve" smooth="yes"/>
      <point x="403.0" y="309.0"/>
      <point x="415.0" y="464.0"/>
      <point x="378.0" y="384.0" type="curve" smooth="yes"/>
      <point x="360.0" y="345.0"/>
      <point x="333.0" y="278.0"/>
      <point x="299.0" y="278.0" type="curve" smooth="yes"/>
      <point x="282.0" y="278.0"/>
      <point x="284.0" y="359.0"/>
      <point x="291.0" y="424.0" type="curve"/>
      <point x="291.0" y="525.0" type="line"/>
      <point x="328.0" y="526.0"/>
      <point x="365.0" y="501.0"/>
      <point x="365.0" y="501.0" type="curve"/>
      <point x="365.0" y="501.0"/>
      <point x="389.0" y="536.0"/>
      <point x="411.0" y="539.0" type="curve" smooth="yes"/>
      <point x="470.0" y="547.0"/>
      <point x="504.0" y="541.0"/>
    </contour>
    <contour>
      <point x="415.0" y="747.0" type="move" name="top"/>
    </contour>
    <contour>
      <point x="415.0" y="0.0" type="move" name="bottom"/>
    </contour>
  </outline>
</glyph>
<glyph name="X" format="2">
  <advance width="737"/>
  <unicode hex="0058"/>
  <anchor x="368.0" y="747.0" name="top"/>
  <anchor x="368.0" y="0.0" name="bottom"/>
  <outline>
    <contour>
      <point x="463" y="629" type="curve" smooth="yes"/>
      <point x="490" y="600"/>
      <point x="510" y="633"/>
      <point x="520" y="655" type="curve" smooth="yes"/>
      <point x="547" y="711"/>
      <point x="580" y="595"/>
      <point x="601" y="616" type="curve" smooth="yes"/>
      <point x="619" y="634"/>
      <point x="623" y="725"/>
      <point x="638" y="725" type="curve"/>
      <point x="665" y="725"/>
      <point x="682" y="708"/>
      <point x="682" y="669" type="curve"/>
      <point x="682" y="642" type="line"/>
      <point x="702" y="636"/>
      <point x="699" y="659"/>
      <point x="699" y="719" type="curve" smooth="yes"/>
      <point x="699" y="813"/>
      <point x="670" y="833"/>
      <point x="591" y="833" type="curve"/>
      <point x="547" y="833"/>
      <point x="503" y="861"/>
      <point x="459" y="827" type="curve" smooth="yes"/>
      <point x="430" y="805"/>
      <point x="386" y="760"/>
      <point x="377" y="728" type="curve" smooth="yes"/>
      <point x="369" y="691"/>
      <point x="348" y="666"/>
      <point x="348" y="624" type="curve" smooth="yes"/>
      <point x="348" y="592"/>
      <point x="418" y="677"/>
    </contour>
    <contour>
      <point x="-16.0" y="745.0" type="curve" smooth="yes"/>
      <point x="-24.0" y="707.0"/>
      <point x="-81.0" y="654.0"/>
      <point x="-84.0" y="610.0" type="curve" smooth="yes"/>
      <point x="-92.0" y="562.0"/>
      <point x="-84.0" y="506.0"/>
      <point x="-78.0" y="497.0" type="curve" smooth="yes"/>
      <point x="-66.0" y="479.0"/>
      <point x="-61.0" y="489.0"/>
      <point x="-35.0" y="548.0" type="curve" smooth="yes"/>
      <point x="-20.0" y="581.0"/>
      <point x="-10.0" y="632.0"/>
      <point x="0.0" y="642.0" type="curve" smooth="yes"/>
      <point x="33.0" y="672.0"/>
      <point x="52.0" y="579.0"/>
      <point x="72.0" y="579.0" type="curve" smooth="yes"/>
      <point x="83.0" y="579.0"/>
      <point x="76" y="620"/>
      <point x="87" y="655" type="curve" smooth="yes"/>
      <point x="95" y="681"/>
      <point x="119.0" y="705.0"/>
      <point x="132.0" y="705.0" type="curve" smooth="yes"/>
      <point x="147.0" y="705.0"/>
      <point x="174.0" y="701.0"/>
      <point x="188.0" y="678.0" type="curve" smooth="yes"/>
      <point x="202.0" y="653.0"/>
      <point x="204.0" y="609.0"/>
      <point x="219.0" y="609.0" type="curve" smooth="yes"/>
      <point x="239.0" y="609.0"/>
      <point x="232.0" y="667.0"/>
      <point x="237.0" y="700.0" type="curve" smooth="yes"/>
      <point x="240.0" y="714.0"/>
      <point x="242.0" y="725.0"/>
      <point x="247.0" y="725.0" type="curve"/>
      <point x="274.0" y="725.0"/>
      <point x="291.0" y="708.0"/>
      <point x="291.0" y="669.0" type="curve"/>
      <point x="291.0" y="652.0" type="line"/>
      <point x="302.0" y="653.0"/>
      <point x="308.0" y="659.0"/>
      <point x="308.0" y="719.0" type="curve" smooth="yes"/>
      <point x="308.0" y="779.0"/>
      <point x="279.0" y="815.0"/>
      <point x="240.0" y="835.0" type="curve" smooth="yes"/>
      <point x="213.0" y="849.0"/>
      <point x="182.0" y="835.0"/>
      <point x="151.0" y="837.0" type="curve" smooth="yes"/>
      <point x="99.0" y="840.0"/>
      <point x="49.0" y="848.0"/>
      <point x="29.0" y="833.0" type="curve" smooth="yes"/>
      <point x="-4.0" y="808.0"/>
      <point x="-9.0" y="770.0"/>
    </contour>
    <contour>
      <point x="344.0" y="399.0" type="curve" smooth="yes"/>
      <point x="353.0" y="399.0"/>
      <point x="351" y="420"/>
      <point x="357" y="437" type="curve" smooth="yes"/>
      <point x="363" y="454"/>
      <point x="376.0" y="468.0"/>
      <point x="387.0" y="468.0" type="curve" smooth="yes"/>
      <point x="398.0" y="468.0"/>
      <point x="413.0" y="441.0"/>
      <point x="416.0" y="423.0" type="curve" smooth="yes"/>
      <point x="421.0" y="391.0"/>
      <point x="411.0" y="358.0"/>
      <point x="430.0" y="358.0" type="curve" smooth="yes"/>
      <point x="445.0" y="358.0"/>
      <point x="454.0" y="423.0"/>
      <point x="458.0" y="459.0" type="curve" smooth="yes"/>
      <point x="466.0" y="528.0"/>
      <point x="444.0" y="573.0"/>
      <point x="377.0" y="555.0" type="curve" smooth="yes"/>
      <point x="336.0" y="544.0"/>
      <point x="327.0" y="591.0"/>
      <point x="302.0" y="571.0" type="curve"/>
      <point x="307.0" y="515.0" type="line" smooth="yes"/>
      <point x="314.0" y="432.0"/>
      <point x="317.0" y="399.0"/>
    </contour>
  </outline>
</glyph>
<glyph name="Y" format="2">
  <advance width="705"/>
  <unicode hex="0059"/>
  <anchor x="352.0" y="747.0" name="top"/>
  <anchor x="352.0" y="0.0" name="bottom"/>
  <outline>
    <contour>
      <point x="-31.0" y="735.0" type="curve" smooth="yes"/>
      <point x="-39.0" y="697.0"/>
      <point x="-96.0" y="654.0"/>
      <point x="-99.0" y="610.0" type="curve" smooth="yes"/>
      <point x="-107.0" y="562.0"/>
      <point x="-99.0" y="506.0"/>
      <point x="-93.0" y="497.0" type="curve" smooth="yes"/>
      <point x="-81.0" y="479.0"/>
      <point x="-76.0" y="489.0"/>
      <point x="-50.0" y="548.0" type="curve" smooth="yes"/>
      <point x="-35.0" y="581.0"/>
      <point x="-25.0" y="632.0"/>
      <point x="-15.0" y="642.0" type="curve" smooth="yes"/>
      <point x="18.0" y="672.0"/>
      <point x="37.0" y="579.0"/>
      <point x="57.0" y="579.0" type="curve" smooth="yes"/>
      <point x="67.0" y="579.0"/>
      <point x="83.0" y="592.0"/>
      <point x="83.0" y="625.0" type="curve" smooth="yes"/>
      <point x="83.0" y="637.0"/>
      <point x="88.0" y="704.0"/>
      <point x="103.0" y="704.0" type="curve"/>
      <point x="146.0" y="704.0"/>
      <point x="131.0" y="595.0"/>
      <point x="161.0" y="595.0" type="curve" smooth="yes"/>
      <point x="179.0" y="595.0"/>
      <point x="194.0" y="680.0"/>
      <point x="200.0" y="680.0" type="curve" smooth="yes"/>
      <point x="229.0" y="680.0"/>
      <point x="217.0" y="725.0"/>
      <point x="232.0" y="725.0" type="curve"/>
      <point x="259.0" y="725.0"/>
      <point x="276.0" y="708.0"/>
      <point x="276.0" y="669.0" type="curve"/>
      <point x="276.0" y="652.0" type="line"/>
      <point x="287.0" y="653.0"/>
      <point x="293.0" y="659.0"/>
      <point x="293.0" y="719.0" type="curve" smooth="yes"/>
      <point x="293.0" y="787.0"/>
      <point x="288.0" y="827.0"/>
      <point x="241.0" y="845.0" type="curve" smooth="yes"/>
      <point x="191.0" y="864.0"/>
      <point x="118" y="825"/>
      <point x="69" y="808" type="curve" smooth="yes"/>
      <point x="49" y="801"/>
      <point x="33.0" y="820.0"/>
      <point x="24.0" y="813.0" type="curve" smooth="yes"/>
      <point x="-9.0" y="788.0"/>
      <point x="-24.0" y="760.0"/>
    </contour>
    <contour>
      <point x="380.0" y="728.0" type="curve" smooth="yes"/>
      <point x="372.0" y="690.0"/>
      <point x="306" y="654"/>
      <point x="303" y="610" type="curve" smooth="yes"/>
      <point x="299" y="588"/>
      <point x="300.0" y="565.0"/>
      <point x="300.0" y="535.0" type="curve"/>
      <point x="310.0" y="519.0"/>
      <point x="316" y="537"/>
      <point x="329" y="548" type="curve" smooth="yes"/>
      <point x="340" y="556"/>
      <point x="359.0" y="555.0"/>
      <point x="368.0" y="579.0" type="curve" smooth="yes"/>
      <point x="375.0" y="596.0"/>
      <point x="392.0" y="546.0"/>
      <point x="400.0" y="559.0" type="curve" smooth="yes"/>
      <point x="408.0" y="575.0"/>
      <point x="407.0" y="648.0"/>
      <point x="415.0" y="654.0" type="curve" smooth="yes"/>
      <point x="511.0" y="731.0"/>
      <point x="550.0" y="602.0"/>
      <point x="584.0" y="636.0" type="curve" smooth="yes"/>
      <point x="602.0" y="654.0"/>
      <point x="606.0" y="725.0"/>
      <point x="621.0" y="725.0" type="curve"/>
      <point x="648.0" y="725.0"/>
      <point x="665.0" y="708.0"/>
      <point x="665.0" y="669.0" type="curve"/>
      <point x="665.0" y="642.0" type="line"/>
      <point x="685.0" y="636.0"/>
      <point x="682.0" y="659.0"/>
      <point x="682.0" y="719.0" type="curve" smooth="yes"/>
      <point x="682.0" y="780.0"/>
      <point x="664.0" y="794.0"/>
      <point x="634.0" y="813.0" type="curve" smooth="yes"/>
      <point x="618.0" y="824.0"/>
      <point x="602.0" y="853.0"/>
      <point x="574.0" y="853.0" type="curve"/>
      <point x="530.0" y="853.0"/>
      <point x="481.0" y="844.0"/>
      <point x="452.0" y="827.0" type="curve" smooth="yes"/>
      <point x="406.0" y="801.0"/>
      <point x="389.0" y="760.0"/>
    </contour>
    <contour>
      <point x="292.0" y="352.0"/>
      <point x="289.0" y="239.0"/>
      <point x="306.0" y="239.0" type="curve" smooth="yes"/>
      <point x="318.0" y="239.0"/>
      <point x="326.0" y="305.0"/>
      <point x="335.0" y="349.0" type="curve" smooth="yes"/>
      <point x="337.0" y="358.0"/>
      <point x="349" y="342"/>
      <point x="361" y="347" type="curve" smooth="yes"/>
      <point x="373" y="352"/>
      <point x="365" y="378"/>
      <point x="384" y="378" type="curve" smooth="yes"/>
      <point x="394" y="378"/>
      <point x="395" y="318"/>
      <point x="408.0" y="318.0" type="curve" smooth="yes"/>
      <point x="423" y="318"/>
      <point x="432.0" y="354.0"/>
      <point x="436.0" y="390.0" type="curve" smooth="yes"/>
      <point x="444.0" y="459.0"/>
      <point x="422.0" y="493.0"/>
      <point x="355.0" y="475.0" type="curve" smooth="yes"/>
      <point x="314.0" y="464.0"/>
      <point x="305" y="511"/>
      <point x="280.0" y="491.0" type="curve"/>
      <point x="285.0" y="435.0" type="line" smooth="yes"/>
    </contour>
  </outline>
</glyph>
<glyph name="Z" format="2">
  <advance width="660"/>
  <unicode hex="005A"/>
  <anchor x="330" y="747" name="top"/>
  <anchor x="330" y="0" name="bottom"/>
  <outline>
    <contour>
      <point x="-64.0" y="710.0" type="curve" smooth="yes"/>
      <point x="-66.0" y="686.0"/>
      <point x="-66.0" y="682.0"/>
      <point x="-61.0" y="655.0" type="curve" smooth="yes"/>
      <point x="-55.0" y="624.0"/>
      <point x="-103.0" y="533.0"/>
      <point x="-71.0" y="533.0" type="curve" smooth="yes"/>
      <point x="-39.0" y="533.0"/>
      <point x="11.0" y="618.0"/>
      <point x="24.0" y="625.0" type="curve" smooth="yes"/>
      <point x="49.0" y="638.0"/>
      <point x="83.0" y="642.0"/>
      <point x="92.0" y="642.0" type="curve" smooth="yes"/>
      <point x="111.0" y="642.0"/>
      <point x="108.0" y="545.0"/>
      <point x="133.0" y="545.0" type="curve" smooth="yes"/>
      <point x="146.0" y="545.0"/>
      <point x="158.0" y="598.0"/>
      <point x="160.0" y="619.0" type="curve" smooth="yes"/>
      <point x="164.0" y="652.0"/>
      <point x="167.0" y="688.0"/>
      <point x="184.0" y="695.0" type="curve" smooth="yes"/>
      <point x="206.0" y="705.0"/>
      <point x="253.0" y="670.0"/>
      <point x="281.0" y="668.0" type="curve" smooth="yes"/>
      <point x="304.0" y="665.0"/>
      <point x="308.0" y="710.0"/>
      <point x="340.0" y="710.0" type="curve" smooth="yes"/>
      <point x="372.0" y="710.0"/>
      <point x="381.0" y="613.0"/>
      <point x="407.0" y="613.0" type="curve" smooth="yes"/>
      <point x="433.0" y="613.0"/>
      <point x="427.0" y="642.0"/>
      <point x="455.0" y="689.0" type="curve" smooth="yes"/>
      <point x="475.0" y="725.0"/>
      <point x="503.0" y="725.0"/>
      <point x="556.0" y="725.0" type="curve"/>
      <point x="593.0" y="727.0"/>
      <point x="601.0" y="711.0"/>
      <point x="601.0" y="680.0" type="curve" smooth="yes"/>
      <point x="601.0" y="625.0" type="line" smooth="yes"/>
      <point x="601.0" y="592.0"/>
      <point x="633" y="673"/>
      <point x="633" y="725" type="curve" smooth="yes"/>
      <point x="633" y="773"/>
      <point x="647" y="799"/>
      <point x="631" y="820" type="curve" smooth="yes"/>
      <point x="605" y="851"/>
      <point x="551.0" y="860.0"/>
      <point x="515.0" y="851.0" type="curve" smooth="yes"/>
      <point x="490.0" y="848.0"/>
      <point x="450.0" y="840.0"/>
      <point x="398.0" y="840.0" type="curve" smooth="yes"/>
      <point x="344.0" y="840.0"/>
      <point x="297.0" y="808.0"/>
      <point x="254.0" y="814.0" type="curve" smooth="yes"/>
      <point x="215.0" y="818.0"/>
      <point x="180.0" y="853.0"/>
      <point x="146.0" y="853.0" type="curve"/>
      <point x="79.0" y="853.0"/>
      <point x="67.0" y="820.0"/>
      <point x="38.0" y="797.0" type="curve" smooth="yes"/>
      <point x="0.0" y="767.0"/>
      <point x="-62.0" y="730.0"/>
    </contour>
    <contour>
      <point x="350.0" y="196.0" type="line" smooth="yes"/>
      <point x="333.0" y="175.0"/>
      <point x="344" y="128"/>
      <point x="386" y="122" type="curve" smooth="yes"/>
      <point x="402" y="120"/>
      <point x="422" y="183"/>
      <point x="438" y="183" type="curve" smooth="yes"/>
      <point x="464" y="183"/>
      <point x="475" y="137"/>
      <point x="500" y="137" type="curve" smooth="yes"/>
      <point x="523" y="137"/>
      <point x="542.0" y="196.0"/>
      <point x="567.0" y="196.0" type="curve" smooth="yes"/>
      <point x="607.0" y="196.0"/>
      <point x="619.0" y="181.0"/>
      <point x="619.0" y="149.0" type="curve" smooth="yes"/>
      <point x="619.0" y="95.0" type="line" smooth="yes"/>
      <point x="619.0" y="63.0"/>
      <point x="649.0" y="143.0"/>
      <point x="651.0" y="196.0" type="curve" smooth="yes"/>
      <point x="655.0" y="315.0"/>
      <point x="593.0" y="284.0"/>
      <point x="532.0" y="267.0" type="curve" smooth="yes"/>
      <point x="504.0" y="257.0"/>
      <point x="445" y="313"/>
      <point x="380" y="233" type="curve" smooth="yes"/>
    </contour>
  </outline>
</glyph>
<glyph name="backslash" format="2">
  <advance width="347"/>
  <unicode hex="005C"/>
  <outline>
    <contour>
      <point x="-78" y="835" type="curve" smooth="yes"/>
      <point x="-86" y="797"/>
      <point x="-132" y="744"/>
      <point x="-135" y="700" type="curve" smooth="yes"/>
      <point x="-143" y="652"/>
      <point x="-135" y="596"/>
      <point x="-129" y="587" type="curve" smooth="yes"/>
      <point x="-117" y="569"/>
      <point x="-112" y="579"/>
      <point x="-86" y="638" type="curve" smooth="yes"/>
      <point x="-26" y="775"/>
      <point x="-7" y="589"/>
      <point x="20" y="589" type="curve" smooth="yes"/>
      <point x="39" y="589"/>
      <point x="40" y="795"/>
      <point x="70" y="795" type="curve" smooth="yes"/>
      <point x="101" y="795"/>
      <point x="117" y="755"/>
      <point x="147" y="755" type="curve" smooth="yes"/>
      <point x="176" y="755"/>
      <point x="170" y="815"/>
      <point x="185" y="815" type="curve"/>
      <point x="212" y="815"/>
      <point x="223" y="798"/>
      <point x="229" y="759" type="curve" smooth="yes"/>
      <point x="236" y="712" type="line"/>
      <point x="247" y="723"/>
      <point x="246" y="749"/>
      <point x="246" y="809" type="curve" smooth="yes"/>
      <point x="246" y="903"/>
      <point x="216" y="917"/>
      <point x="180" y="916" type="curve" smooth="yes"/>
      <point x="145" y="915"/>
      <point x="114" y="937"/>
      <point x="84" y="938" type="curve" smooth="yes"/>
      <point x="33" y="940"/>
      <point x="-10" y="940"/>
      <point x="-33" y="923" type="curve" smooth="yes"/>
      <point x="-66" y="898"/>
      <point x="-71" y="860"/>
    </contour>
  </outline>
</glyph>
<glyph name="bar" format="2">
  <advance width="347"/>
  <unicode hex="007C"/>
  <outline>
    <contour>
      <point x="-20" y="835" type="curve" smooth="yes"/>
      <point x="-28" y="797"/>
      <point x="-85" y="744"/>
      <point x="-88" y="700" type="curve" smooth="yes"/>
      <point x="-96" y="652"/>
      <point x="-88" y="596"/>
      <point x="-82" y="587" type="curve" smooth="yes"/>
      <point x="-70" y="569"/>
      <point x="-65" y="579"/>
      <point x="-39" y="638" type="curve" smooth="yes"/>
      <point x="21" y="775"/>
      <point x="41" y="689"/>
      <point x="68" y="689" type="curve" smooth="yes"/>
      <point x="87" y="689"/>
      <point x="98" y="795"/>
      <point x="128" y="795" type="curve" smooth="yes"/>
      <point x="159" y="795"/>
      <point x="175" y="665"/>
      <point x="205" y="665" type="curve" smooth="yes"/>
      <point x="234" y="665"/>
      <point x="228" y="815"/>
      <point x="243" y="815" type="curve"/>
      <point x="270" y="815"/>
      <point x="287" y="798"/>
      <point x="287" y="759" type="curve"/>
      <point x="287" y="712" type="line"/>
      <point x="298" y="723"/>
      <point x="304" y="749"/>
      <point x="304" y="809" type="curve" smooth="yes"/>
      <point x="304" y="903"/>
      <point x="274" y="937"/>
      <point x="238" y="936" type="curve" smooth="yes"/>
      <point x="203" y="935"/>
      <point x="172" y="917"/>
      <point x="142" y="918" type="curve" smooth="yes"/>
      <point x="91" y="920"/>
      <point x="48" y="940"/>
      <point x="25" y="923" type="curve" smooth="yes"/>
      <point x="-8" y="898"/>
      <point x="-13" y="860"/>
    </contour>
  </outline>
</glyph>
<glyph name="quoteright" format="1">
  <advance width="384"/>
  <unicode hex="2019"/>
  <outline>
    <contour>
      <point x="191.0" y="675.0" type="curve" smooth="yes"/>
      <point x="198.0" y="724.0"/>
      <point x="271" y="685"/>
      <point x="295" y="725" type="curve"/>
      <point x="326" y="725"/>
      <point x="334.0" y="708.0"/>
      <point x="334.0" y="669.0" type="curve" smooth="yes"/>
      <point x="334.0" y="595.0" type="line"/>
      <point x="354.0" y="629.0"/>
      <point x="356.0" y="659.0"/>
      <point x="356.0" y="719.0" type="curve" smooth="yes"/>
      <point x="356.0" y="780.0"/>
      <point x="329.0" y="783.0"/>
      <point x="309.0" y="795.0" type="curve" smooth="yes"/>
      <point x="287.0" y="808.0"/>
      <point x="274.0" y="853.0"/>
      <point x="238.0" y="853.0" type="curve"/>
      <point x="206.0" y="853.0"/>
      <point x="175.0" y="830.0"/>
      <point x="123.0" y="812.0" type="curve" smooth="yes"/>
      <point x="82.0" y="798.0"/>
      <point x="15.0" y="815.0"/>
      <point x="0.0" y="804.0" type="curve" smooth="yes"/>
      <point x="-32.0" y="779.0"/>
      <point x="-19" y="717"/>
      <point x="-25.0" y="692.0" type="curve" smooth="yes"/>
      <point x="-34" y="653"/>
      <point x="-82" y="640"/>
      <point x="-82.0" y="593.0" type="curve" smooth="yes"/>
      <point x="-82" y="586"/>
      <point x="-73.0" y="582.0"/>
      <point x="-45.0" y="582.0" type="curve" smooth="yes"/>
      <point x="-38.0" y="582.0"/>
      <point x="-7" y="626"/>
      <point x="19" y="626" type="curve"/>
      <point x="50" y="626"/>
      <point x="84.0" y="670.0"/>
      <point x="101.0" y="675.0" type="curve"/>
      <point x="121.0" y="676.0"/>
      <point x="114.0" y="662.0"/>
      <point x="121.0" y="618.0" type="curve" smooth="yes"/>
      <point x="124.0" y="596.0"/>
      <point x="137.0" y="599.0"/>
      <point x="142.0" y="582.0" type="curve" smooth="yes"/>
      <point x="146.0" y="564.0"/>
      <point x="152" y="516"/>
      <point x="158" y="516" type="curve" smooth="yes"/>
      <point x="173" y="516"/>
      <point x="183.0" y="624.0"/>
    </contour>
  </outline>
</glyph>
